<svg width="80" height="17" viewBox="0 0 80 17" fill="none" xmlns="http://www.w3.org/2000/svg">
<path fill-rule="evenodd" clip-rule="evenodd" d="M14.2267 8.56521C14.2267 8.48802 14.1835 8.41844 14.1174 8.38899C14.0512 8.35951 13.9751 8.37597 13.9246 8.43069C13.145 9.27503 11.089 11.5018 10.5538 12.0813C10.4714 12.1706 10.4251 12.2916 10.4251 12.4177C10.4251 12.7195 10.4251 13.3283 10.4251 13.9604C10.4251 14.5039 10.6253 15.0252 10.9817 15.4096C11.3381 15.794 11.8216 16.0099 12.3256 16.0099C12.3258 16.0099 12.3259 16.0099 12.3261 16.0099C12.8302 16.0099 13.3136 15.794 13.67 15.4096C14.0264 15.0252 14.2267 14.5039 14.2267 13.9604C14.2267 12.1339 14.2267 9.59526 14.2267 8.56521V8.56521ZM0 8.56521C0 8.48802 0.0431653 8.41844 0.109331 8.38899C0.175497 8.35951 0.251602 8.37597 0.302115 8.43069C1.08173 9.27503 3.13773 11.5018 3.67284 12.0813C3.75533 12.1706 3.80163 12.2916 3.80163 12.4177C3.80163 12.7195 3.80163 13.3283 3.80163 13.9604C3.80163 14.5039 3.60139 15.0252 3.24498 15.4096C2.88854 15.794 2.40513 16.0099 1.90105 16.0099C1.9009 16.0099 1.90074 16.0099 1.90059 16.0099C1.39652 16.0099 0.913107 15.794 0.556673 15.4096C0.200253 15.0252 0 14.5039 0 13.9604C0 12.1339 0 9.59526 0 8.56521V8.56521ZM0.524758 7.95094C-0.174913 7.19643 -0.174913 5.97312 0.524758 5.21861C0.524788 5.21859 0.524804 5.21856 0.524834 5.21854C1.22451 4.46403 2.3589 4.46403 3.05857 5.21854C4.63212 6.9154 7.11179 9.58945 7.11179 9.58945C7.11179 9.58945 9.59879 6.90751 11.1748 5.208C11.8739 4.45408 13.0074 4.45408 13.7065 5.208C13.7066 5.20805 13.7066 5.2081 13.7066 5.20815C14.4057 5.96198 14.4057 7.18421 13.7066 7.93806C12.2691 9.48822 9.93283 12.0076 8.46085 13.595C8.10251 13.9814 7.61649 14.1985 7.10972 14.1985C6.60295 14.1985 6.11694 13.9814 5.7586 13.595C4.2895 12.0108 1.95991 9.49859 0.524758 7.95094V7.95094ZM1.90967 0C2.96235 0 3.817 0.921636 3.817 2.05683C3.817 3.19201 2.96235 4.11364 1.90967 4.11364C0.856986 4.11364 0.0023357 3.19201 0.0023357 2.05683C0.0023357 0.921636 0.856986 0 1.90967 0V0ZM12.3237 0C13.3764 0 14.231 0.921636 14.231 2.05683C14.231 3.19201 13.3764 4.11364 12.3237 4.11364C11.271 4.11364 10.4164 3.19201 10.4164 2.05683C10.4164 0.921636 11.271 0 12.3237 0V0Z" fill="#737373"/>
<path d="M28.352 9.98531H30.3064C30.2438 10.7306 30.0354 11.395 29.681 11.9787C29.3266 12.5572 28.8289 13.0132 28.1879 13.3468C27.5469 13.6803 26.7677 13.8471 25.8505 13.8471C25.1469 13.8471 24.5137 13.722 23.9509 13.4718C23.388 13.2165 22.906 12.8569 22.5047 12.3931C22.1034 11.924 21.7959 11.3586 21.5822 10.6967C21.3738 10.0348 21.2695 9.29478 21.2695 8.47657V7.53067C21.2695 6.71246 21.3764 5.97241 21.59 5.31055C21.8089 4.64868 22.1216 4.08323 22.5281 3.61419C22.9346 3.13993 23.4219 2.77773 23.99 2.52758C24.5632 2.27742 25.2069 2.15234 25.9208 2.15234C26.8277 2.15234 27.5938 2.31911 28.2191 2.65265C28.8445 2.98619 29.3292 3.44742 29.6732 4.03632C30.0223 4.62523 30.236 5.30012 30.3142 6.06101H28.3599C28.3077 5.57112 28.1931 5.15159 28.0159 4.80242C27.8439 4.45325 27.5885 4.18746 27.2498 4.00505C26.911 3.81744 26.4681 3.72363 25.9208 3.72363C25.4727 3.72363 25.0818 3.80701 24.7482 3.97378C24.4147 4.14055 24.1359 4.3855 23.9118 4.70861C23.6877 5.03173 23.5183 5.43041 23.4037 5.90466C23.2942 6.3737 23.2395 6.91049 23.2395 7.51504V8.47657C23.2395 9.04984 23.289 9.57099 23.388 10.04C23.4923 10.5039 23.6486 10.9025 23.8571 11.2361C24.0707 11.5696 24.3417 11.8276 24.6701 12.01C24.9984 12.1924 25.3919 12.2836 25.8505 12.2836C26.4081 12.2836 26.8589 12.195 27.2029 12.0178C27.5521 11.8406 27.8152 11.5827 27.9924 11.2439C28.1748 10.8999 28.2947 10.4804 28.352 9.98531Z" fill="#737373"/>
<path d="M31.2213 9.55536V9.37556C31.2213 8.76581 31.3099 8.20036 31.4871 7.6792C31.6643 7.15283 31.9197 6.69682 32.2532 6.31117C32.592 5.9203 33.0037 5.61803 33.4883 5.40436C33.9782 5.18547 34.5306 5.07603 35.1456 5.07603C35.7658 5.07603 36.3182 5.18547 36.8029 5.40436C37.2928 5.61803 37.7071 5.9203 38.0458 6.31117C38.3846 6.69682 38.6426 7.15283 38.8198 7.6792C38.997 8.20036 39.0856 8.76581 39.0856 9.37556V9.55536C39.0856 10.1651 38.997 10.7306 38.8198 11.2517C38.6426 11.7729 38.3846 12.2289 38.0458 12.6198C37.7071 13.0054 37.2954 13.3077 36.8107 13.5266C36.326 13.7402 35.7762 13.8471 35.1612 13.8471C34.5411 13.8471 33.986 13.7402 33.4962 13.5266C33.0115 13.3077 32.5998 13.0054 32.261 12.6198C31.9223 12.2289 31.6643 11.7729 31.4871 11.2517C31.3099 10.7306 31.2213 10.1651 31.2213 9.55536ZM33.1053 9.37556V9.55536C33.1053 9.9358 33.1444 10.2954 33.2226 10.6342C33.3007 10.9729 33.4232 11.27 33.59 11.5253C33.7567 11.7807 33.9704 11.9813 34.231 12.1273C34.4916 12.2732 34.8017 12.3461 35.1612 12.3461C35.5104 12.3461 35.8127 12.2732 36.0681 12.1273C36.3286 11.9813 36.5423 11.7807 36.7091 11.5253C36.8759 11.27 36.9983 10.9729 37.0765 10.6342C37.1599 10.2954 37.2016 9.9358 37.2016 9.55536V9.37556C37.2016 9.00033 37.1599 8.64594 37.0765 8.3124C36.9983 7.97365 36.8732 7.67399 36.7013 7.41341C36.5345 7.15283 36.3208 6.94958 36.0602 6.80366C35.8049 6.65252 35.5 6.57696 35.1456 6.57696C34.7912 6.57696 34.4837 6.65252 34.2232 6.80366C33.9678 6.94958 33.7567 7.15283 33.59 7.41341C33.4232 7.67399 33.3007 7.97365 33.2226 8.3124C33.1444 8.64594 33.1053 9.00033 33.1053 9.37556Z" fill="#737373"/>
<path d="M42.2128 7.03818V13.6907H40.3288V5.23237H42.1034L42.2128 7.03818ZM41.8767 9.14886L41.2669 9.14104C41.2721 8.54171 41.3555 7.99189 41.5171 7.49158C41.6838 6.99127 41.9131 6.56132 42.205 6.20172C42.502 5.84213 42.8564 5.56591 43.2681 5.37309C43.6799 5.17505 44.1385 5.07603 44.644 5.07603C45.0505 5.07603 45.4179 5.13335 45.7462 5.24801C46.0798 5.35745 46.3638 5.53725 46.5983 5.7874C46.8381 6.03756 47.0205 6.36328 47.1455 6.76457C47.2706 7.16065 47.3332 7.64793 47.3332 8.22641V13.6907H45.4414V8.2186C45.4414 7.81209 45.3814 7.49158 45.2616 7.25706C45.1469 7.01733 44.9775 6.84796 44.7534 6.74894C44.5345 6.64471 44.2609 6.59259 43.9326 6.59259C43.6095 6.59259 43.3203 6.66034 43.0649 6.79584C42.8095 6.93134 42.5932 7.11635 42.416 7.35087C42.2441 7.58539 42.1112 7.85639 42.0174 8.16387C41.9236 8.47136 41.8767 8.79968 41.8767 9.14886Z" fill="#737373"/>
<path d="M52.8134 5.23237V6.60822H48.0448V5.23237H52.8134ZM49.4207 3.16078H51.3047V11.3533C51.3047 11.6139 51.3412 11.8146 51.4141 11.9553C51.4923 12.0908 51.5991 12.182 51.7346 12.2289C51.8701 12.2758 52.0291 12.2992 52.2115 12.2992C52.3418 12.2992 52.4668 12.2914 52.5867 12.2758C52.7066 12.2602 52.803 12.2445 52.876 12.2289L52.8838 13.6673C52.7274 13.7142 52.545 13.7559 52.3366 13.7924C52.1333 13.8288 51.8988 13.8471 51.633 13.8471C51.2004 13.8471 50.8174 13.7715 50.4838 13.6204C50.1503 13.464 49.8897 13.2113 49.7021 12.8621C49.5145 12.5129 49.4207 12.0491 49.4207 11.4706V3.16078Z" fill="#737373"/>
<path d="M55.839 6.84274V13.6907H53.9551V5.23237H55.753L55.839 6.84274ZM58.4266 5.17765L58.4109 6.92874C58.2963 6.90789 58.1712 6.89225 58.0357 6.88183C57.9054 6.87141 57.7751 6.8662 57.6448 6.8662C57.3217 6.8662 57.0377 6.9131 56.7928 7.00691C56.5478 7.09551 56.342 7.22579 56.1752 7.39778C56.0136 7.56455 55.8886 7.7678 55.8 8.00753C55.7114 8.24726 55.6592 8.51565 55.6436 8.81271L55.2137 8.84398C55.2137 8.3124 55.2658 7.81991 55.37 7.36651C55.4742 6.9131 55.6306 6.51442 55.839 6.17045C56.0527 5.82649 56.3185 5.5581 56.6364 5.36527C56.9595 5.17244 57.3322 5.07603 57.7543 5.07603C57.8689 5.07603 57.9914 5.08645 58.1217 5.1073C58.2572 5.12814 58.3588 5.15159 58.4266 5.17765Z" fill="#737373"/>
<path d="M63.7739 11.9944V7.96062C63.7739 7.65835 63.7192 7.39778 63.6098 7.17889C63.5003 6.96 63.3336 6.79063 63.1095 6.67076C62.8906 6.5509 62.6144 6.49096 62.2808 6.49096C61.9734 6.49096 61.7076 6.54308 61.4835 6.64731C61.2594 6.75154 61.0848 6.89225 60.9597 7.06945C60.8346 7.24664 60.7721 7.44729 60.7721 7.67138H58.8959C58.8959 7.33784 58.9767 7.01473 59.1383 6.70203C59.2998 6.38934 59.5343 6.11052 59.8418 5.86558C60.1493 5.62063 60.5167 5.42781 60.9441 5.2871C61.3714 5.14638 61.8509 5.07603 62.3825 5.07603C63.0183 5.07603 63.5811 5.18286 64.071 5.39654C64.5661 5.61021 64.9544 5.93333 65.2358 6.36589C65.5224 6.79323 65.6657 7.33003 65.6657 7.97626V11.7364C65.6657 12.1221 65.6918 12.4686 65.7439 12.7761C65.8012 13.0784 65.882 13.3416 65.9863 13.5657V13.6907H64.0554C63.9668 13.4875 63.8964 13.2295 63.8443 12.9168C63.7974 12.5989 63.7739 12.2914 63.7739 11.9944ZM64.0476 8.54692L64.0632 9.71171H62.7108C62.3616 9.71171 62.0541 9.74558 61.7883 9.81333C61.5226 9.87587 61.3011 9.96968 61.1239 10.0948C60.9467 10.2198 60.8138 10.371 60.7252 10.5482C60.6366 10.7254 60.5923 10.926 60.5923 11.1501C60.5923 11.3742 60.6444 11.58 60.7486 11.7677C60.8529 11.9501 61.004 12.0934 61.202 12.1976C61.4053 12.3019 61.6502 12.354 61.9369 12.354C62.3225 12.354 62.6587 12.2758 62.9453 12.1194C63.2372 11.9579 63.4665 11.7625 63.6332 11.5331C63.8 11.2986 63.8886 11.0771 63.899 10.8687L64.5088 11.7051C64.4462 11.9188 64.3394 12.1481 64.1883 12.3931C64.0371 12.638 63.8391 12.8725 63.5941 13.0966C63.3544 13.3155 63.0652 13.4953 62.7264 13.636C62.3929 13.7767 62.0072 13.8471 61.5695 13.8471C61.017 13.8471 60.5245 13.7376 60.092 13.5187C59.6594 13.2947 59.3207 12.995 59.0757 12.6198C58.8308 12.2393 58.7083 11.8094 58.7083 11.3299C58.7083 10.8817 58.7917 10.4856 58.9585 10.1417C59.1305 9.79249 59.3806 9.50064 59.7089 9.26612C60.0425 9.0316 60.449 8.85441 60.9284 8.73454C61.4079 8.60946 61.9551 8.54692 62.5701 8.54692H64.0476Z" fill="#737373"/>
<path d="M70.7708 12.3461C71.0783 12.3461 71.3545 12.2862 71.5994 12.1663C71.8496 12.0413 72.0502 11.8693 72.2013 11.6504C72.3577 11.4315 72.4437 11.1788 72.4593 10.8921H74.2339C74.2234 11.4393 74.0619 11.937 73.7492 12.3852C73.4365 12.8334 73.0222 13.1904 72.5062 13.4562C71.9903 13.7168 71.4196 13.8471 70.7942 13.8471C70.148 13.8471 69.5851 13.7376 69.1057 13.5187C68.6262 13.2947 68.2275 12.9872 67.9096 12.5963C67.5917 12.2054 67.352 11.7546 67.1904 11.2439C67.0341 10.7332 66.9559 10.186 66.9559 9.60226V9.32866C66.9559 8.74496 67.0341 8.19775 67.1904 7.68702C67.352 7.17107 67.5917 6.71767 67.9096 6.3268C68.2275 5.93593 68.6262 5.63106 69.1057 5.41217C69.5851 5.18808 70.1454 5.07603 70.7864 5.07603C71.4639 5.07603 72.058 5.21153 72.5688 5.48253C73.0795 5.74832 73.4808 6.12094 73.7726 6.60041C74.0697 7.07466 74.2234 7.62708 74.2339 8.25768H72.4593C72.4437 7.94499 72.3655 7.66356 72.2248 7.41341C72.0893 7.15804 71.8965 6.95479 71.6463 6.80366C71.4014 6.65252 71.1069 6.57696 70.763 6.57696C70.3825 6.57696 70.0672 6.65513 69.8171 6.81148C69.5669 6.96261 69.3715 7.17107 69.2308 7.43686C69.09 7.69744 68.9884 7.99189 68.9259 8.32022C68.8686 8.64334 68.8399 8.97948 68.8399 9.32866V9.60226C68.8399 9.95144 68.8686 10.2902 68.9259 10.6185C68.9832 10.9468 69.0822 11.2413 69.2229 11.5019C69.3689 11.7572 69.5669 11.9631 69.8171 12.1194C70.0672 12.2706 70.3851 12.3461 70.7708 12.3461Z" fill="#737373"/>
<path d="M79.2373 5.23237V6.60822H74.4687V5.23237H79.2373ZM75.8445 3.16078H77.7285V11.3533C77.7285 11.6139 77.765 11.8146 77.838 11.9553C77.9161 12.0908 78.023 12.182 78.1585 12.2289C78.294 12.2758 78.4529 12.2992 78.6353 12.2992C78.7656 12.2992 78.8907 12.2914 79.0106 12.2758C79.1304 12.2602 79.2268 12.2445 79.2998 12.2289L79.3076 13.6673C79.1513 13.7142 78.9689 13.7559 78.7604 13.7924C78.5571 13.8288 78.3226 13.8471 78.0568 13.8471C77.6243 13.8471 77.2412 13.7715 76.9077 13.6204C76.5742 13.464 76.3136 13.2113 76.126 12.8621C75.9383 12.5129 75.8445 12.0491 75.8445 11.4706V3.16078Z" fill="#737373"/>
</svg>
