<svg width="103" height="103" viewBox="0 0 103 103" fill="none" xmlns="http://www.w3.org/2000/svg">
<g filter="url(#filter0_b_585_17414)">
<g opacity="0.3">
<path fill-rule="evenodd" clip-rule="evenodd" d="M67.2921 24.8614C58.5637 19.2706 46.9558 21.8141 41.365 30.5424L37.8862 35.9737C36.0561 38.8308 32.6142 40.1502 29.5789 41.6666C27.9834 42.4638 26.5757 43.6884 25.5438 45.2994C22.878 49.4611 23.5643 54.9363 27.3205 58.1484C31.0505 61.3382 35.8001 65.1855 39.815 67.7572C43.8299 70.3289 49.3108 73.0344 53.7681 75.0889C58.2565 77.1578 63.517 75.4917 66.1827 71.3299C67.2145 69.7192 67.7383 67.9286 67.7953 66.1461C67.9038 62.7554 67.6634 59.0779 69.4932 56.2213L72.9731 50.7884C78.5639 42.0601 76.0204 30.4522 67.2921 24.8614Z" fill="#4C5EFE"/>
<path d="M41.365 30.5424L43.3123 31.7897L41.365 30.5424ZM25.5438 45.2994L27.491 46.5467L25.5438 45.2994ZM27.3205 58.1484L25.8175 59.9059L25.8175 59.9059L27.3205 58.1484ZM53.7681 75.0889L54.7361 72.9888L54.7361 72.9888L53.7681 75.0889ZM67.7953 66.1461L65.484 66.0722L67.7953 66.1461ZM29.5789 41.6666L28.5454 39.5979L29.5789 41.6666ZM43.3123 31.7897C48.2142 24.1369 58.3919 21.9068 66.0448 26.8087L68.5393 22.9141C58.7356 16.6345 45.6974 19.4914 39.4178 29.2951L43.3123 31.7897ZM39.8334 37.221L43.3123 31.7897L39.4178 29.2951L35.9389 34.7264L39.8334 37.221ZM27.491 46.5467C28.2918 45.2965 29.3796 44.3512 30.6124 43.7353L28.5454 39.5979C26.5871 40.5763 24.8595 42.0803 23.5965 44.0521L27.491 46.5467ZM28.8234 56.3909C25.9853 53.9639 25.4186 49.7821 27.491 46.5467L23.5965 44.0521C20.3374 49.1401 21.1433 55.9087 25.8175 59.9059L28.8234 56.3909ZM41.0623 65.8099C37.1885 63.3287 32.5391 59.5683 28.8234 56.3909L25.8175 59.9059C29.562 63.108 34.4116 67.0424 38.5677 69.7045L41.0623 65.8099ZM54.7361 72.9888C50.296 70.9422 44.936 68.2912 41.0623 65.8099L38.5677 69.7045C42.7237 72.3666 48.3256 75.1267 52.8001 77.1891L54.7361 72.9888ZM64.2354 70.0826C62.163 73.3181 58.1274 74.552 54.7361 72.9888L52.8001 77.1891C58.3856 79.7636 64.8709 77.6653 68.13 72.5772L64.2354 70.0826ZM65.484 66.0722C65.4399 67.4494 65.0361 68.8326 64.2354 70.0826L68.13 72.5772C69.3928 70.6057 70.0366 68.4077 70.1066 66.2201L65.484 66.0722ZM71.0258 49.5411L67.5459 54.974L71.4404 57.4686L74.9204 52.0357L71.0258 49.5411ZM66.0448 26.8087C73.6976 31.7106 75.9277 41.8882 71.0258 49.5411L74.9204 52.0357C81.2 42.2319 78.3431 29.1937 68.5393 22.9141L66.0448 26.8087ZM70.1066 66.2201C70.1661 64.3617 70.1279 62.8177 70.2981 61.2298C70.461 59.7094 70.7961 58.4746 71.4404 57.4686L67.5459 54.974C66.3605 56.8247 65.9009 58.8569 65.6994 60.7371C65.5052 62.5498 65.533 64.5399 65.484 66.0722L70.1066 66.2201ZM35.9389 34.7264C35.2944 35.7325 34.3126 36.5534 32.9993 37.3372C31.6277 38.1558 30.209 38.7668 28.5454 39.5979L30.6124 43.7353C31.9841 43.05 33.8039 42.2431 35.3696 41.3086C36.9936 40.3394 38.6478 39.072 39.8334 37.221L35.9389 34.7264Z" fill="#4C5EFE"/>
</g>
<path d="M41.6147 77.375C39.2323 78.4228 36.3869 78.2965 34.031 76.7875C31.6752 75.2785 30.3706 72.7466 30.3262 70.1443" stroke="#4C5EFE" stroke-width="4.625" stroke-linecap="round"/>
</g>
<defs>
<filter id="filter0_b_585_17414" x="-15" y="-15" width="132.227" height="132.227" filterUnits="userSpaceOnUse" color-interpolation-filters="sRGB">
<feFlood flood-opacity="0" result="BackgroundImageFix"/>
<feGaussianBlur in="BackgroundImageFix" stdDeviation="7.5"/>
<feComposite in2="SourceAlpha" operator="in" result="effect1_backgroundBlur_585_17414"/>
<feBlend mode="normal" in="SourceGraphic" in2="effect1_backgroundBlur_585_17414" result="shape"/>
</filter>
</defs>
</svg>
