<svg width="16" height="15" viewBox="0 0 16 15" fill="none" xmlns="http://www.w3.org/2000/svg">
<path d="M5.67456 12.2266C5.78394 12.3906 5.948 12.4453 6.16675 12.4453C6.35815 12.4453 6.52222 12.3906 6.65894 12.2266L14.7253 4.1875C14.8347 4.07812 14.9167 3.91406 14.9167 3.69531C14.9167 3.50391 14.8347 3.33984 14.7253 3.20312L13.7136 2.21875C13.5769 2.08203 13.4128 2 13.2214 2C13.03 2 12.866 2.08203 12.7292 2.21875L6.16675 8.78125L3.10425 5.71875C2.94019 5.58203 2.77612 5.5 2.58472 5.5C2.39331 5.5 2.22925 5.58203 2.11987 5.71875L1.10815 6.70312C0.971436 6.83984 0.916748 7.00391 0.916748 7.19531C0.916748 7.41406 0.971436 7.57812 1.10815 7.6875L5.67456 12.2266Z" fill="#0AC43E"/>
</svg>
