<svg width="54" height="40" viewBox="0 0 54 40" fill="none" xmlns="http://www.w3.org/2000/svg">
<path d="M18.4137 39.1623C18.8326 39.7906 19.4609 40 20.2986 40C21.0315 40 21.6598 39.7906 22.1834 39.1623L53.0734 8.37696C53.4923 7.95812 53.8064 7.32984 53.8064 6.49215C53.8064 5.75916 53.4923 5.13089 53.0734 4.60733L49.1991 0.837696C48.6755 0.314136 48.0473 0 47.3143 0C46.5813 0 45.953 0.314136 45.4295 0.837696L20.2986 25.9686L8.57081 14.2408C7.94254 13.7173 7.31427 13.4031 6.58128 13.4031C5.8483 13.4031 5.22003 13.7173 4.80118 14.2408L0.926832 18.0105C0.403272 18.534 0.193848 19.1623 0.193848 19.8953C0.193848 20.733 0.403272 21.3613 0.926832 21.7801L18.4137 39.1623Z" fill="white"/>
</svg>
