<svg width="202" height="202" viewBox="0 0 202 202" fill="none" xmlns="http://www.w3.org/2000/svg">
<circle cx="146.5" cy="57.5" r="76.5" fill="url(#paint0_linear_591_17505)"/>
<g filter="url(#filter0_d_591_17505)">
<path fill-rule="evenodd" clip-rule="evenodd" d="M172.69 79.0649C172.872 79.0889 173.053 79.1137 173.234 79.1391L174.146 79.2671C178.115 79.8241 181.667 76.7986 181.667 72.86V69.8541C181.667 67.0372 179.864 64.5245 177.163 63.5771C174.043 62.4825 170.822 61.7697 167.57 61.4389C170.963 63.892 173.068 67.8644 173.068 72.1981V75.9301C173.068 77.0139 172.937 78.0634 172.69 79.0649ZM158.937 57.4401C160.289 57.9984 161.775 58.3069 163.333 58.3069C169.605 58.3069 174.688 53.3133 174.688 47.1534C174.688 40.9936 169.605 36 163.333 36C163.148 36 162.963 36.0044 162.779 36.013C163.92 38.4418 164.557 41.1536 164.557 44.0142C164.557 49.2692 162.406 54.0219 158.937 57.4401Z" fill="white"/>
<path fill-rule="evenodd" clip-rule="evenodd" d="M118.58 79.0649C118.398 79.0889 118.217 79.1137 118.035 79.1391L117.124 79.2671C113.154 79.8241 109.603 76.7986 109.603 72.86V69.8541C109.603 67.0372 111.405 64.5245 114.106 63.5771C117.226 62.4825 120.448 61.7697 123.699 61.4389C120.306 63.892 118.202 67.8644 118.202 72.1981V75.9301C118.202 77.0139 118.333 78.0634 118.58 79.0649ZM132.332 57.4401C130.98 57.9984 129.495 58.3069 127.936 58.3069C121.665 58.3069 116.581 53.3133 116.581 47.1534C116.581 40.9936 121.665 36 127.936 36C128.122 36 128.307 36.0044 128.49 36.013C127.35 38.4418 126.712 41.1536 126.712 44.0142C126.712 49.2692 128.863 54.0219 132.332 57.4401Z" fill="white"/>
<path opacity="0.3" fill-rule="evenodd" clip-rule="evenodd" d="M128.843 64.4039C139.75 60.5086 151.669 60.5086 162.576 64.4039C165.869 65.5801 168.068 68.6998 168.068 72.1971V75.929C168.068 80.819 163.737 84.5753 158.896 83.8838L157.784 83.7249C149.775 82.5808 141.644 82.5808 133.635 83.7249L132.523 83.8838C127.682 84.5753 123.351 80.819 123.351 75.929V72.1971C123.351 68.6998 125.55 65.5801 128.843 64.4039Z" fill="white"/>
<path opacity="0.3" fill-rule="evenodd" clip-rule="evenodd" d="M159.557 44.0135C159.557 36.3658 153.357 30.166 145.709 30.166C138.062 30.166 131.862 36.3658 131.862 44.0135C131.862 51.6613 138.062 57.8611 145.709 57.8611C153.357 57.8611 159.557 51.6613 159.557 44.0135Z" fill="white"/>
</g>
<g filter="url(#filter1_f_591_17505)">
<circle cx="144.5" cy="57.5" r="129" stroke="url(#paint1_linear_591_17505)"/>
</g>
<defs>
<filter id="filter0_d_591_17505" x="75" y="-9" width="140" height="140" filterUnits="userSpaceOnUse" color-interpolation-filters="sRGB">
<feFlood flood-opacity="0" result="BackgroundImageFix"/>
<feColorMatrix in="SourceAlpha" type="matrix" values="0 0 0 0 0 0 0 0 0 0 0 0 0 0 0 0 0 0 127 0" result="hardAlpha"/>
<feOffset dy="5"/>
<feGaussianBlur stdDeviation="15"/>
<feComposite in2="hardAlpha" operator="out"/>
<feColorMatrix type="matrix" values="0 0 0 0 0 0 0 0 0 0.608131 0 0 0 0 0.474342 0 0 0 0.2 0"/>
<feBlend mode="normal" in2="BackgroundImageFix" result="effect1_dropShadow_591_17505"/>
<feBlend mode="normal" in="SourceGraphic" in2="effect1_dropShadow_591_17505" result="shape"/>
</filter>
<filter id="filter1_f_591_17505" x="0" y="-87" width="289" height="289" filterUnits="userSpaceOnUse" color-interpolation-filters="sRGB">
<feFlood flood-opacity="0" result="BackgroundImageFix"/>
<feBlend mode="normal" in="SourceGraphic" in2="BackgroundImageFix" result="shape"/>
<feGaussianBlur stdDeviation="7.5" result="effect1_foregroundBlur_591_17505"/>
</filter>
<linearGradient id="paint0_linear_591_17505" x1="216.151" y1="170.773" x2="53.0707" y2="39.177" gradientUnits="userSpaceOnUse">
<stop stop-color="#28F5D0"/>
<stop offset="1" stop-color="#15D49B"/>
</linearGradient>
<linearGradient id="paint1_linear_591_17505" x1="262.406" y1="249.249" x2="-13.658" y2="26.4827" gradientUnits="userSpaceOnUse">
<stop stop-color="#28F5D0"/>
<stop offset="1" stop-color="#15D49B"/>
</linearGradient>
</defs>
</svg>
