<svg width="201" height="207" viewBox="0 0 201 207" fill="none" xmlns="http://www.w3.org/2000/svg">
<circle cx="152.5" cy="48.5" r="70.5" fill="#F6D009"/>
<g filter="url(#filter0_d_592_17504)">
<path opacity="0.3" fill-rule="evenodd" clip-rule="evenodd" d="M136.333 13.166C125.748 13.166 117.167 21.7472 117.167 32.3327V65.666C117.167 76.2515 125.748 84.8327 136.333 84.8327H169.667C180.252 84.8327 188.833 76.2515 188.833 65.666V32.3327C188.833 21.7472 180.252 13.166 169.667 13.166H136.333Z" fill="white"/>
<path d="M136.333 58.166L148 44.8327L158 53.166L169.667 39.8327" stroke="white" stroke-width="5" stroke-linecap="round" stroke-linejoin="round"/>
<circle cx="6.66667" cy="6.66667" r="6.66667" transform="matrix(-1 0 0 1 189.667 15.666)" fill="white"/>
</g>
<g filter="url(#filter1_f_592_17504)">
<circle cx="144.5" cy="62.5" r="129" stroke="#F3CD0A"/>
</g>
<defs>
<filter id="filter0_d_592_17504" x="63" y="-36" width="180" height="180" filterUnits="userSpaceOnUse" color-interpolation-filters="sRGB">
<feFlood flood-opacity="0" result="BackgroundImageFix"/>
<feColorMatrix in="SourceAlpha" type="matrix" values="0 0 0 0 0 0 0 0 0 0 0 0 0 0 0 0 0 0 127 0" result="hardAlpha"/>
<feOffset dy="5"/>
<feGaussianBlur stdDeviation="25"/>
<feComposite in2="hardAlpha" operator="out"/>
<feColorMatrix type="matrix" values="0 0 0 0 0.616464 0 0 0 0 0.517622 0 0 0 0 0 0 0 0 0.1 0"/>
<feBlend mode="normal" in2="BackgroundImageFix" result="effect1_dropShadow_592_17504"/>
<feBlend mode="normal" in="SourceGraphic" in2="effect1_dropShadow_592_17504" result="shape"/>
</filter>
<filter id="filter1_f_592_17504" x="0" y="-82" width="289" height="289" filterUnits="userSpaceOnUse" color-interpolation-filters="sRGB">
<feFlood flood-opacity="0" result="BackgroundImageFix"/>
<feBlend mode="normal" in="SourceGraphic" in2="BackgroundImageFix" result="shape"/>
<feGaussianBlur stdDeviation="7.5" result="effect1_foregroundBlur_592_17504"/>
</filter>
</defs>
</svg>
