<svg width="320" height="388" viewBox="0 0 320 388" fill="none" xmlns="http://www.w3.org/2000/svg">
<circle cx="387.054" cy="351.855" r="154.447" fill="#4C5EFE"/>
<circle cx="368.591" cy="351.856" r="191.727" stroke="#4C5EFE" stroke-width="0.710101"/>
<circle cx="359.715" cy="351.501" r="236.109" stroke="#4C5EFE" stroke-width="0.710101"/>
<circle opacity="0.5" cx="345.158" cy="351.855" r="290.431" stroke="#4C5EFE" stroke-width="0.710101"/>
<circle opacity="0.2" cx="323.5" cy="351.5" r="351.145" stroke="#4C5EFE" stroke-width="0.710101"/>
<g filter="url(#filter0_bf_710_17504)">
<g opacity="0.3">
<path fill-rule="evenodd" clip-rule="evenodd" d="M292.361 44.237C286.31 47.7413 284.232 55.4949 287.72 61.5551L289.891 65.3265C291.032 67.3098 290.755 69.7833 290.721 72.0741C290.703 73.2784 291 74.5024 291.643 75.6208C293.306 78.5103 296.795 79.7957 299.881 78.5375C302.945 77.2881 306.72 75.6308 309.503 74.0188C312.286 72.4069 315.604 69.9568 318.215 67.9191C320.844 65.8671 321.479 62.1942 319.816 59.3047C319.172 58.1861 318.263 57.3166 317.214 56.7299C315.219 55.6137 312.943 54.618 311.802 52.6341L309.632 48.8648C306.144 42.8046 298.411 40.7326 292.361 44.237Z" fill="#4C5EFE"/>
<path d="M287.72 61.5551L289.07 60.7733L287.72 61.5551ZM291.643 75.6208L292.993 74.839L291.643 75.6208ZM299.881 78.5375L299.295 77.0909L299.295 77.0909L299.881 78.5375ZM309.503 74.0188L310.281 75.3709L310.281 75.3709L309.503 74.0188ZM318.215 67.9191L317.259 66.6873L317.259 66.6873L318.215 67.9191ZM309.632 48.8648L308.282 49.6466L309.632 48.8648ZM317.214 56.7299L316.453 58.0939L317.214 56.7299ZM311.802 52.6341L310.452 53.4159L311.802 52.6341ZM289.07 60.7733C286.012 55.4598 287.834 48.6615 293.139 45.589L291.583 42.8849C284.786 46.821 282.453 55.53 286.37 62.3369L289.07 60.7733ZM291.241 64.5447L289.07 60.7733L286.37 62.3369L288.541 66.1083L291.241 64.5447ZM292.993 74.839C292.494 73.9711 292.266 73.0255 292.279 72.0951L289.163 72.0532C289.141 73.5312 289.506 75.0338 290.293 76.4026L292.993 74.839ZM299.295 77.0909C296.963 78.0416 294.286 77.0854 292.993 74.839L290.293 76.4026C292.327 79.9353 296.626 81.5498 300.466 79.9841L299.295 77.0909ZM308.725 72.6668C306.039 74.2221 302.348 75.8463 299.295 77.0909L300.466 79.9841C303.543 78.7299 307.4 77.0395 310.281 75.3709L308.725 72.6668ZM317.259 66.6873C314.658 68.7171 311.41 71.1115 308.725 72.6668L310.281 75.3709C313.162 73.7022 316.55 71.1965 319.171 69.1509L317.259 66.6873ZM318.466 60.0865C319.759 62.3329 319.245 65.1369 317.259 66.6873L319.171 69.1509C322.443 66.5974 323.199 62.0555 321.166 58.5228L318.466 60.0865ZM316.453 58.0939C317.264 58.5473 317.966 59.2184 318.466 60.0865L321.166 58.5228C320.378 57.1537 319.262 56.086 317.975 55.3659L316.453 58.0939ZM308.282 49.6466L310.452 53.4159L313.152 51.8523L310.982 48.083L308.282 49.6466ZM293.139 45.589C298.444 42.5164 305.224 44.3331 308.282 49.6466L310.982 48.083C307.064 41.2761 298.379 38.9488 291.583 42.8849L293.139 45.589ZM317.975 55.3659C316.881 54.7541 315.945 54.2983 315.048 53.704C314.189 53.1349 313.554 52.5509 313.152 51.8523L310.452 53.4159C311.191 54.7012 312.265 55.607 313.328 56.3108C314.352 56.9893 315.552 57.5895 316.453 58.0939L317.975 55.3659ZM288.541 66.1083C288.943 66.8067 289.13 67.6501 289.191 68.6808C289.256 69.7572 289.182 70.7977 289.163 72.0532L292.279 72.0951C292.294 71.0598 292.376 69.7181 292.302 68.4892C292.226 67.2146 291.98 65.8295 291.241 64.5447L288.541 66.1083Z" fill="#4C5EFE"/>
</g>
<path d="M315.814 75.9238C315.703 77.6781 314.745 79.3464 313.112 80.2922C311.478 81.2381 309.559 81.236 307.989 80.4561" stroke="#4C5EFE" stroke-width="3.11995" stroke-linecap="round"/>
</g>
<defs>
<filter id="filter0_bf_710_17504" x="258.881" y="17.8812" width="88.2161" height="88.427" filterUnits="userSpaceOnUse" color-interpolation-filters="sRGB">
<feFlood flood-opacity="0" result="BackgroundImageFix"/>
<feGaussianBlur in="BackgroundImageFix" stdDeviation="5.05938"/>
<feComposite in2="SourceAlpha" operator="in" result="effect1_backgroundBlur_710_17504"/>
<feBlend mode="normal" in="SourceGraphic" in2="effect1_backgroundBlur_710_17504" result="shape"/>
<feGaussianBlur stdDeviation="2" result="effect2_foregroundBlur_710_17504"/>
</filter>
</defs>
</svg>
