<svg width="315" height="40" viewBox="0 0 315 40" fill="none" xmlns="http://www.w3.org/2000/svg">
<path opacity="0.3" fill-rule="evenodd" clip-rule="evenodd" d="M32.7696 30.594C32.7696 31.0084 32.434 31.3443 32.0199 31.3443H23.8576C23.4436 31.3443 23.1079 31.0084 23.1079 30.594C23.1079 30.1797 23.4436 29.8438 23.8576 29.8438H32.0199C32.434 29.8438 32.7696 30.1797 32.7696 30.594Z" fill="#007E8C"/>
<path d="M31.3467 4.47679C29.9968 3.12681 27.8088 3.12763 26.4599 4.47864L23.5852 7.35765L32.8158 16.5883L35.6849 13.6446C37.0061 12.2891 36.9922 10.1222 35.6537 8.78377L31.3467 4.47679Z" fill="#007E8C"/>
<path opacity="0.3" d="M31.006 18.4442L21.7532 9.19141L10.3855 20.5763C9.46758 21.4956 8.92792 22.7263 8.87331 24.0247L8.66909 28.8799C8.60709 30.3538 9.78428 31.5825 11.2583 31.5826L16.0152 31.5828C17.4124 31.5829 18.7504 31.0185 19.726 30.0175L31.006 18.4442Z" fill="#007E8C"/>
<path d="M55.7527 18.8359H56.9558C57.3412 18.8359 57.6589 18.7708 57.9089 18.6406C58.1589 18.5052 58.3438 18.3177 58.4636 18.0781C58.5886 17.8333 58.6511 17.5495 58.6511 17.2266C58.6511 16.9349 58.5938 16.6771 58.4792 16.4531C58.3699 16.224 58.2006 16.0469 57.9714 15.9219C57.7423 15.7917 57.4532 15.7266 57.1042 15.7266C56.8282 15.7266 56.573 15.7812 56.3386 15.8906C56.1042 16 55.9167 16.1536 55.7761 16.3516C55.6355 16.5495 55.5652 16.7891 55.5652 17.0703H53.3074C53.3074 16.4453 53.474 15.901 53.8074 15.4375C54.1459 14.974 54.599 14.612 55.1667 14.3516C55.7345 14.0911 56.3595 13.9609 57.0417 13.9609C57.8126 13.9609 58.4871 14.0859 59.0652 14.3359C59.6433 14.5807 60.0938 14.9427 60.4167 15.4219C60.7397 15.901 60.9011 16.4948 60.9011 17.2031C60.9011 17.5625 60.8178 17.9115 60.6511 18.25C60.4845 18.5833 60.2449 18.8854 59.9324 19.1562C59.6251 19.4219 59.2501 19.6354 58.8074 19.7969C58.3647 19.9531 57.8673 20.0312 57.3152 20.0312H55.7527V18.8359ZM55.7527 20.5469V19.3828H57.3152C57.935 19.3828 58.4792 19.4531 58.948 19.5938C59.4167 19.7344 59.81 19.9375 60.1277 20.2031C60.4454 20.4635 60.685 20.7734 60.8464 21.1328C61.0079 21.487 61.0886 21.8802 61.0886 22.3125C61.0886 22.8438 60.9871 23.3177 60.7839 23.7344C60.5808 24.1458 60.2944 24.4948 59.9246 24.7812C59.56 25.0677 59.1329 25.2865 58.6433 25.4375C58.1537 25.5833 57.6199 25.6562 57.0417 25.6562C56.5626 25.6562 56.0912 25.5911 55.6277 25.4609C55.1694 25.3255 54.7527 25.125 54.3777 24.8594C54.0079 24.5885 53.711 24.25 53.4871 23.8438C53.2683 23.4323 53.1589 22.9453 53.1589 22.3828H55.4167C55.4167 22.6745 55.4897 22.9349 55.6355 23.1641C55.7813 23.3932 55.9819 23.5729 56.2371 23.7031C56.4975 23.8333 56.7865 23.8984 57.1042 23.8984C57.4636 23.8984 57.7709 23.8333 58.0261 23.7031C58.2865 23.5677 58.4845 23.3802 58.6199 23.1406C58.7605 22.8958 58.8308 22.612 58.8308 22.2891C58.8308 21.8724 58.7553 21.5391 58.6042 21.2891C58.4532 21.0339 58.2371 20.8464 57.9558 20.7266C57.6746 20.6068 57.3412 20.5469 56.9558 20.5469H55.7527Z" fill="#007E8C"/>
<path d="M314.354 20.3536C314.549 20.1583 314.549 19.8417 314.354 19.6464L311.172 16.4645C310.976 16.2692 310.66 16.2692 310.465 16.4645C310.269 16.6597 310.269 16.9763 310.465 17.1716L313.293 20L310.465 22.8284C310.269 23.0237 310.269 23.3403 310.465 23.5355C310.66 23.7308 310.976 23.7308 311.172 23.5355L314.354 20.3536ZM74.6667 20.5H314V19.5H74.6667V20.5Z" fill="#007E8C"/>
</svg>
