<svg width="40" height="40" viewBox="0 0 40 40" fill="none" xmlns="http://www.w3.org/2000/svg">
<g opacity="0.3">
<path d="M21.0941 4.5C21.1872 4.5 21.2799 4.50317 21.3721 4.50944V11.5698C21.3721 13.8303 23.2046 15.6628 25.4651 15.6628H31.0465V23.6931C30.7018 23.5536 30.325 23.4767 29.9302 23.4767C28.2862 23.4767 26.9535 24.8095 26.9535 26.4535V27.9419H25.4651C23.8211 27.9419 22.4884 29.2746 22.4884 30.9186C22.4884 32.5626 23.8211 33.8953 25.4651 33.8953H26.9535V35.3837C26.9535 35.5351 26.9648 35.6838 26.9866 35.8291C26.0734 36.2594 25.0532 36.5 23.9767 36.5H12.0698C8.16524 36.5 5 33.3348 5 29.4302V11.5698C5 7.66524 8.16524 4.5 12.0698 4.5H21.0941Z" fill="#007E8C"/>
<path d="M30.0978 13.004C30.2111 13.1398 30.3149 13.2823 30.4088 13.4302H25.4651C24.4376 13.4302 23.6047 12.5973 23.6047 11.5698V5.36031C23.8353 5.53943 24.0481 5.74429 24.2385 5.97273L30.0978 13.004Z" fill="#007E8C"/>
</g>
<path d="M35.5114 30.9193C35.5114 31.5358 35.0116 32.0356 34.3951 32.0356H31.0463V35.3844C31.0463 36.0009 30.5465 36.5007 29.93 36.5007C29.3135 36.5007 28.8137 36.0009 28.8137 35.3844V32.0356H25.4649C24.8484 32.0356 24.3486 31.5358 24.3486 30.9193C24.3486 30.3028 24.8484 29.803 25.4649 29.803H28.8137V26.4542C28.8137 25.8377 29.3135 25.3379 29.93 25.3379C30.5465 25.3379 31.0463 25.8377 31.0463 26.4542V29.803H34.3951C35.0116 29.803 35.5114 30.3028 35.5114 30.9193Z" fill="#007E8C"/>
</svg>
