<svg width="315" height="40" viewBox="0 0 315 40" fill="none" xmlns="http://www.w3.org/2000/svg">
<path d="M27.5498 22.2486H30.5729V25.2718H27.5498V22.2486ZM37.5774 23.7602C37.5774 26.3408 36.6557 28.8478 34.9968 30.9123C35.2918 31.5022 35.7341 31.9445 36.2502 32.2763C36.8031 32.645 37.0613 33.2717 36.9137 33.8984C36.7663 34.5251 36.287 34.9674 35.6232 35.0783C35.1809 35.1521 34.7384 35.1889 34.296 35.1889C32.9688 35.1889 31.7522 34.9307 30.6462 34.3778C28.5817 35.4468 26.2223 36 23.7891 36C16.1946 36 10.0011 30.5069 10.0011 23.7604C10.0016 17.0139 16.1582 11.5208 23.7529 11.5208C31.3473 11.5208 37.5774 17.0137 37.5774 23.7602ZM35.1812 23.7602C35.1812 18.3041 30.0568 13.88 23.7527 13.88C17.4484 13.88 12.3241 18.3039 12.3241 23.7602C12.3241 29.2165 17.4485 33.6404 23.7527 33.6404C26.0015 33.6404 28.1398 33.0875 30.0199 32.0182L30.6098 31.6865L31.1997 32.0552C31.8264 32.424 32.5269 32.6819 33.3012 32.7925C32.9324 32.3131 32.6745 31.7602 32.4534 31.1703L32.1952 30.5068L32.6745 29.9907C34.3332 28.1474 35.1812 26.0091 35.1812 23.7602ZM22.278 25.2715H25.3012V22.2484H22.278V25.2715ZM17.006 25.2715H20.0292V22.2484L17.006 22.2486V25.2715ZM3.07053 22.7648C2.81234 22.9121 2.88615 23.3176 3.18111 23.3547C4.21337 23.502 5.94608 23.5391 7.56827 22.5436C8.26879 15.0598 15.2733 9.16115 23.8263 9.16115C21.8724 6.10125 18.112 4 13.7987 4C7.4944 4 2.33325 8.49769 2.33325 14.0645C2.33325 16.4607 3.29171 18.6728 4.87709 20.4055C4.6189 21.2166 4.06599 22.1013 3.07053 22.7648Z" fill="#007E8C"/>
<path d="M60.8958 23.7422V25.5H53.1145V24L56.7942 20.0547C57.164 19.6432 57.4556 19.2812 57.6692 18.9688C57.8827 18.651 58.0364 18.3672 58.1301 18.1172C58.2291 17.862 58.2786 17.6198 58.2786 17.3906C58.2786 17.0469 58.2213 16.7526 58.1067 16.5078C57.9921 16.2578 57.8228 16.0651 57.5989 15.9297C57.3801 15.7943 57.1093 15.7266 56.7864 15.7266C56.4426 15.7266 56.1458 15.8099 55.8958 15.9766C55.651 16.1432 55.4635 16.375 55.3333 16.6719C55.2083 16.9688 55.1458 17.3047 55.1458 17.6797H52.8879C52.8879 17.0026 53.0494 16.3828 53.3723 15.8203C53.6952 15.2526 54.151 14.8021 54.7395 14.4688C55.328 14.1302 56.026 13.9609 56.8333 13.9609C57.6301 13.9609 58.302 14.0911 58.8489 14.3516C59.401 14.6068 59.8176 14.9766 60.0989 15.4609C60.3853 15.9401 60.5286 16.513 60.5286 17.1797C60.5286 17.5547 60.4687 17.9219 60.3489 18.2812C60.2291 18.6354 60.0572 18.9896 59.8333 19.3438C59.6145 19.6927 59.3489 20.0469 59.0364 20.4062C58.7239 20.7656 58.3775 21.138 57.9973 21.5234L56.0208 23.7422H60.8958Z" fill="#007E8C"/>
<path d="M314.02 20.3536C314.215 20.1583 314.215 19.8417 314.02 19.6464L310.838 16.4645C310.643 16.2692 310.326 16.2692 310.131 16.4645C309.936 16.6597 309.936 16.9763 310.131 17.1716L312.959 20L310.131 22.8284C309.936 23.0237 309.936 23.3403 310.131 23.5355C310.326 23.7308 310.643 23.7308 310.838 23.5355L314.02 20.3536ZM74.3333 20.5H313.667V19.5H74.3333V20.5Z" fill="#007E8C"/>
</svg>
