<svg width="40" height="40" viewBox="0 0 40 40" fill="none" xmlns="http://www.w3.org/2000/svg">
<path opacity="0.3" fill-rule="evenodd" clip-rule="evenodd" d="M32.1026 30.594C32.1026 31.0084 31.767 31.3443 31.3529 31.3443H23.1906C22.7766 31.3443 22.4409 31.0084 22.4409 30.594C22.4409 30.1797 22.7766 29.8438 23.1906 29.8438H31.3529C31.767 29.8438 32.1026 30.1797 32.1026 30.594Z" fill="#007E8C"/>
<path d="M30.68 4.47679C29.33 3.12681 27.1421 3.12763 25.7931 4.47864L22.9185 7.35765L32.1491 16.5883L35.0181 13.6446C36.3393 12.2891 36.3254 10.1222 34.987 8.78377L30.68 4.47679Z" fill="#007E8C"/>
<path opacity="0.3" d="M30.3392 18.4442L21.0864 9.19141L9.71874 20.5763C8.80083 21.4956 8.26118 22.7263 8.20656 24.0247L8.00234 28.8799C7.94035 30.3538 9.11754 31.5825 10.5916 31.5826L15.3485 31.5828C16.7456 31.5829 18.0837 31.0185 19.0592 30.0175L30.3392 18.4442Z" fill="#007E8C"/>
</svg>
