<svg width="270" height="229" viewBox="0 0 270 229" fill="none" xmlns="http://www.w3.org/2000/svg">
<path opacity="0.2" d="M269.5 95.5C269.5 168.949 209.288 228.5 135 228.5C60.7124 228.5 0.5 168.949 0.5 95.5C0.5 22.0514 60.7124 -37.5 135 -37.5C209.288 -37.5 269.5 22.0514 269.5 95.5Z" stroke="#0968F6"/>
<path d="M210.5 95.5C210.5 136.918 176.701 170.5 135 170.5C93.2994 170.5 59.5 136.918 59.5 95.5C59.5 54.0817 93.2994 20.5 135 20.5C176.701 20.5 210.5 54.0817 210.5 95.5Z" stroke="#0968F6"/>
<path d="M210.5 95.5C210.5 136.918 176.701 170.5 135 170.5C93.2994 170.5 59.5 136.918 59.5 95.5C59.5 54.0817 93.2994 20.5 135 20.5C176.701 20.5 210.5 54.0817 210.5 95.5Z" stroke="#0968F6"/>
<g filter="url(#filter0_b_606_17505)">
<ellipse cx="190" cy="46.5" rx="21" ry="20.5" fill="#0968F6" fill-opacity="0.03"/>
</g>
<g filter="url(#filter1_b_606_17505)">
<circle cx="64.5" cy="118.5" r="10.5" fill="#0968F6" fill-opacity="0.03"/>
</g>
<g filter="url(#filter2_d_606_17505)">
<path d="M152.333 90.6667V73.3333C152.333 63.7604 144.573 56 135 56V56C125.427 56 117.667 63.7604 117.667 73.3333L117.667 90.6667" stroke="#3B68FF" stroke-width="6.5" stroke-linecap="round"/>
</g>
<g filter="url(#filter3_bdi_606_17505)">
<rect x="100.333" y="82" width="69.3333" height="52" rx="17.3333" fill="url(#paint0_linear_606_17505)" shape-rendering="crispEdges"/>
<rect x="100.875" y="82.5417" width="68.25" height="50.9167" rx="16.7917" stroke="url(#paint1_linear_606_17505)" stroke-opacity="0.7" stroke-width="1.08333" shape-rendering="crispEdges"/>
</g>
<g filter="url(#filter4_d_606_17505)">
<path d="M126.333 108L132.833 114.5L145.833 101.5" stroke="#3B68FF" stroke-width="6.5" stroke-linecap="round" stroke-linejoin="round"/>
</g>
<defs>
<filter id="filter0_b_606_17505" x="154" y="11" width="72" height="71" filterUnits="userSpaceOnUse" color-interpolation-filters="sRGB">
<feFlood flood-opacity="0" result="BackgroundImageFix"/>
<feGaussianBlur in="BackgroundImageFix" stdDeviation="7.5"/>
<feComposite in2="SourceAlpha" operator="in" result="effect1_backgroundBlur_606_17505"/>
<feBlend mode="normal" in="SourceGraphic" in2="effect1_backgroundBlur_606_17505" result="shape"/>
</filter>
<filter id="filter1_b_606_17505" x="39" y="93" width="51" height="51" filterUnits="userSpaceOnUse" color-interpolation-filters="sRGB">
<feFlood flood-opacity="0" result="BackgroundImageFix"/>
<feGaussianBlur in="BackgroundImageFix" stdDeviation="7.5"/>
<feComposite in2="SourceAlpha" operator="in" result="effect1_backgroundBlur_606_17505"/>
<feBlend mode="normal" in="SourceGraphic" in2="effect1_backgroundBlur_606_17505" result="shape"/>
</filter>
<filter id="filter2_d_606_17505" x="94.4165" y="32.75" width="81.1667" height="81.166" filterUnits="userSpaceOnUse" color-interpolation-filters="sRGB">
<feFlood flood-opacity="0" result="BackgroundImageFix"/>
<feColorMatrix in="SourceAlpha" type="matrix" values="0 0 0 0 0 0 0 0 0 0 0 0 0 0 0 0 0 0 127 0" result="hardAlpha"/>
<feOffset/>
<feGaussianBlur stdDeviation="10"/>
<feComposite in2="hardAlpha" operator="out"/>
<feColorMatrix type="matrix" values="0 0 0 0 0.231373 0 0 0 0 0.407843 0 0 0 0 1 0 0 0 0.35 0"/>
<feBlend mode="normal" in2="BackgroundImageFix" result="effect1_dropShadow_606_17505"/>
<feBlend mode="normal" in="SourceGraphic" in2="effect1_dropShadow_606_17505" result="shape"/>
</filter>
<filter id="filter3_bdi_606_17505" x="70.3333" y="52" width="129.333" height="112" filterUnits="userSpaceOnUse" color-interpolation-filters="sRGB">
<feFlood flood-opacity="0" result="BackgroundImageFix"/>
<feGaussianBlur in="BackgroundImageFix" stdDeviation="4.33333"/>
<feComposite in2="SourceAlpha" operator="in" result="effect1_backgroundBlur_606_17505"/>
<feColorMatrix in="SourceAlpha" type="matrix" values="0 0 0 0 0 0 0 0 0 0 0 0 0 0 0 0 0 0 127 0" result="hardAlpha"/>
<feOffset/>
<feGaussianBlur stdDeviation="15"/>
<feComposite in2="hardAlpha" operator="out"/>
<feColorMatrix type="matrix" values="0 0 0 0 0.231373 0 0 0 0 0.407843 0 0 0 0 1 0 0 0 0.1 0"/>
<feBlend mode="normal" in2="effect1_backgroundBlur_606_17505" result="effect2_dropShadow_606_17505"/>
<feBlend mode="normal" in="SourceGraphic" in2="effect2_dropShadow_606_17505" result="shape"/>
<feColorMatrix in="SourceAlpha" type="matrix" values="0 0 0 0 0 0 0 0 0 0 0 0 0 0 0 0 0 0 127 0" result="hardAlpha"/>
<feOffset/>
<feGaussianBlur stdDeviation="6.5"/>
<feComposite in2="hardAlpha" operator="arithmetic" k2="-1" k3="1"/>
<feColorMatrix type="matrix" values="0 0 0 0 0.231373 0 0 0 0 0.407843 0 0 0 0 1 0 0 0 0.38 0"/>
<feBlend mode="normal" in2="shape" result="effect3_innerShadow_606_17505"/>
</filter>
<filter id="filter4_d_606_17505" x="114.417" y="89.5833" width="43.3333" height="36.8333" filterUnits="userSpaceOnUse" color-interpolation-filters="sRGB">
<feFlood flood-opacity="0" result="BackgroundImageFix"/>
<feColorMatrix in="SourceAlpha" type="matrix" values="0 0 0 0 0 0 0 0 0 0 0 0 0 0 0 0 0 0 127 0" result="hardAlpha"/>
<feOffset/>
<feGaussianBlur stdDeviation="4.33333"/>
<feComposite in2="hardAlpha" operator="out"/>
<feColorMatrix type="matrix" values="0 0 0 0 0.231373 0 0 0 0 0.407843 0 0 0 0 1 0 0 0 0.35 0"/>
<feBlend mode="normal" in2="BackgroundImageFix" result="effect1_dropShadow_606_17505"/>
<feBlend mode="normal" in="SourceGraphic" in2="effect1_dropShadow_606_17505" result="shape"/>
</filter>
<linearGradient id="paint0_linear_606_17505" x1="77.7999" y1="61.2" x2="173.195" y2="174.642" gradientUnits="userSpaceOnUse">
<stop stop-color="#344EA6" stop-opacity="0.26"/>
<stop offset="0.505208" stop-color="#587EFF" stop-opacity="0.12"/>
<stop offset="1" stop-color="#829EFF" stop-opacity="0.04"/>
</linearGradient>
<linearGradient id="paint1_linear_606_17505" x1="102.067" y1="89.8" x2="147.701" y2="141.953" gradientUnits="userSpaceOnUse">
<stop stop-color="white" stop-opacity="0.15"/>
<stop offset="1" stop-color="white" stop-opacity="0.44"/>
</linearGradient>
</defs>
</svg>
