<svg width="74" height="64" viewBox="0 0 74 64" fill="none" xmlns="http://www.w3.org/2000/svg">
<path d="M48.2143 4.64286C49.7143 6.21429 50.8571 7.92857 51.7143 9.85714C52.5714 11.7857 53 13.7857 53 15.8571C53 18.7143 52.2143 21.3571 50.7857 23.7857C49.3571 26.2143 47.3571 28.1429 44.9286 29.5714C42.5 31 39.8571 31.7143 37 31.7143C34.2857 31.7143 31.7143 31.0714 29.4286 29.7857L21 32L23.2857 23.7857C21.8571 21.3571 21.1429 18.7143 21.1429 15.8571C21.1429 13 21.8571 10.3571 23.2857 7.92857C24.7143 5.5 26.6429 3.57143 29.0714 2.14286C31.5 0.714286 34.1429 0 37 0C39.0714 0 41.0714 0.428571 43 1.21429C44.9286 2.07143 46.6429 3.21429 48.2143 4.64286ZM37 29.0714C39.3571 29.0714 41.5714 28.5 43.6429 27.2857C45.6429 26.1429 47.2857 24.5 48.5 22.5C49.7143 20.5 50.3571 18.2857 50.3571 15.8571C50.3571 14.1429 50 12.5 49.2857 10.8571C48.5714 9.28571 47.5714 7.85714 46.2857 6.57143C45 5.28571 43.5714 4.35714 42 3.64286C40.4286 3 38.7143 2.64286 37 2.64286C34.5714 2.64286 32.3571 3.28571 30.3571 4.42857C28.3571 5.64286 26.7143 7.28571 25.5714 9.28571C24.3571 11.2857 23.7857 13.5 23.7857 15.8571C23.7857 18.4286 24.4286 20.7143 25.8571 22.8571L26.1429 23.3571L24.7857 28.2143L29.7857 26.9286L30.2857 27.2143C32.2857 28.5 34.5714 29.0714 37 29.0714ZM44.2143 19.1429L44.4286 19.2857C44.7143 19.4286 44.9286 19.5714 45 19.6429C45 19.7857 45 20 45 20.3571C45 20.7857 44.8571 21.1429 44.7143 21.5714C44.5714 22 44.1429 22.3571 43.5714 22.7857C43 23.2143 42.5 23.4286 42.0714 23.4286C41.3571 23.5714 40.7143 23.5714 40.1429 23.4286C39.4286 23.2857 38.4286 23 37.2857 22.4286C34.8571 21.4286 32.6429 19.4286 30.6429 16.5714L30.5 16.4286C29.4286 15 28.9286 13.6429 28.9286 12.3571C28.9286 11.1429 29.3571 10.0714 30.2143 9.14286L30.2857 9.07143C30.5714 8.78571 30.9286 8.57143 31.3571 8.57143H32.2143C32.3571 8.57143 32.5 8.64286 32.6429 8.71429C32.7857 8.78571 32.8571 8.92857 33 9.21429L34.2143 12.1429C34.3571 12.4286 34.3571 12.7143 34.2857 12.8571C34 13.3571 33.7143 13.7857 33.3571 14.1429C33.1429 14.3571 33 14.5 33 14.6429C32.9286 14.7857 33 14.8571 33.1429 15C33.7857 16.2857 34.5714 17.2143 35.5 17.9286C36.1429 18.5 37.1429 19.0714 38.5 19.7143C38.8571 19.9286 39.1429 19.9286 39.3571 19.6429C39.9286 18.9286 40.3571 18.4286 40.6429 18.0714C40.7143 17.9286 40.8571 17.7857 41 17.7857C41.1429 17.7857 41.2857 17.8571 41.5 17.8571C41.8571 18 42.7857 18.4286 44.2143 19.1429Z" fill="#8A8A8A"/>
<path d="M8.5625 57.9922L10.5381 51.0469H11.4951L10.9414 53.7471L8.81543 61H7.86523L8.5625 57.9922ZM6.51855 51.0469L8.09082 57.8555L8.5625 61H7.61914L5.20605 51.0469H6.51855ZM14.0518 57.8486L15.5898 51.0469H16.9092L14.5029 61H13.5596L14.0518 57.8486ZM11.6387 51.0469L13.5596 57.9922L14.2568 61H13.3066L11.2559 53.7471L10.6953 51.0469H11.6387ZM19.4453 50.5V61H18.1807V50.5H19.4453ZM19.1445 57.0215L18.6182 57.001C18.6227 56.4951 18.6979 56.028 18.8438 55.5996C18.9896 55.1667 19.1947 54.7907 19.459 54.4717C19.7233 54.1527 20.0378 53.9066 20.4023 53.7334C20.7715 53.5557 21.1794 53.4668 21.626 53.4668C21.9906 53.4668 22.3187 53.5169 22.6104 53.6172C22.902 53.7129 23.1504 53.8678 23.3555 54.082C23.5651 54.2962 23.7246 54.5742 23.834 54.916C23.9434 55.2533 23.998 55.6657 23.998 56.1533V61H22.7266V56.1396C22.7266 55.7523 22.6696 55.4424 22.5557 55.21C22.4417 54.973 22.2754 54.8021 22.0566 54.6973C21.8379 54.5879 21.569 54.5332 21.25 54.5332C20.9355 54.5332 20.6484 54.5993 20.3887 54.7314C20.1335 54.8636 19.9124 55.0459 19.7256 55.2783C19.5433 55.5107 19.3997 55.7773 19.2949 56.0781C19.1947 56.3743 19.1445 56.6888 19.1445 57.0215ZM30.2529 59.7354V55.9277C30.2529 55.6361 30.1937 55.3831 30.0752 55.1689C29.9613 54.9502 29.7881 54.7816 29.5557 54.6631C29.3232 54.5446 29.0361 54.4854 28.6943 54.4854C28.3753 54.4854 28.0951 54.54 27.8535 54.6494C27.6165 54.7588 27.4297 54.9023 27.293 55.0801C27.1608 55.2578 27.0947 55.4492 27.0947 55.6543H25.8301C25.8301 55.39 25.8984 55.1279 26.0352 54.8682C26.1719 54.6084 26.3678 54.3737 26.623 54.1641C26.8828 53.9499 27.1927 53.7812 27.5527 53.6582C27.9173 53.5306 28.3229 53.4668 28.7695 53.4668C29.3073 53.4668 29.7812 53.5579 30.1914 53.7402C30.6061 53.9225 30.9297 54.1982 31.1621 54.5674C31.3991 54.932 31.5176 55.39 31.5176 55.9414V59.3867C31.5176 59.6328 31.5381 59.8949 31.5791 60.1729C31.6247 60.4508 31.6908 60.6901 31.7773 60.8906V61H30.458C30.3942 60.8542 30.3441 60.6605 30.3076 60.4189C30.2712 60.1729 30.2529 59.945 30.2529 59.7354ZM30.4717 56.5156L30.4854 57.4043H29.207C28.847 57.4043 28.5257 57.4339 28.2432 57.4932C27.9606 57.5479 27.7236 57.6322 27.5322 57.7461C27.3408 57.86 27.195 58.0036 27.0947 58.1768C26.9945 58.3454 26.9443 58.5436 26.9443 58.7715C26.9443 59.0039 26.9967 59.2158 27.1016 59.4072C27.2064 59.5986 27.3636 59.7513 27.5732 59.8652C27.7874 59.9746 28.0495 60.0293 28.3594 60.0293C28.7467 60.0293 29.0885 59.9473 29.3848 59.7832C29.681 59.6191 29.9157 59.4186 30.0889 59.1816C30.2666 58.9447 30.3623 58.7145 30.376 58.4912L30.916 59.0996C30.8841 59.291 30.7975 59.5029 30.6562 59.7354C30.515 59.9678 30.3258 60.1911 30.0889 60.4053C29.8564 60.6149 29.5785 60.7904 29.2549 60.9316C28.9359 61.0684 28.5758 61.1367 28.1748 61.1367C27.6735 61.1367 27.2337 61.0387 26.8555 60.8428C26.4818 60.6468 26.1901 60.3848 25.9805 60.0566C25.7754 59.724 25.6729 59.3525 25.6729 58.9424C25.6729 58.5459 25.7503 58.1973 25.9053 57.8965C26.0602 57.5911 26.2835 57.3382 26.5752 57.1377C26.8669 56.9326 27.2178 56.7777 27.6279 56.6729C28.0381 56.568 28.4961 56.5156 29.002 56.5156H30.4717ZM36.6035 53.6035V54.5742H32.6045V53.6035H36.6035ZM33.958 51.8057H35.2227V59.168C35.2227 59.4186 35.2614 59.6077 35.3389 59.7354C35.4163 59.863 35.5166 59.9473 35.6396 59.9883C35.7627 60.0293 35.8949 60.0498 36.0361 60.0498C36.141 60.0498 36.2503 60.0407 36.3643 60.0225C36.4827 59.9997 36.5716 59.9814 36.6309 59.9678L36.6377 61C36.5374 61.0319 36.4053 61.0615 36.2412 61.0889C36.0817 61.1208 35.888 61.1367 35.6602 61.1367C35.3503 61.1367 35.0654 61.0752 34.8057 60.9521C34.5459 60.8291 34.3385 60.624 34.1836 60.3369C34.0332 60.0452 33.958 59.6533 33.958 59.1611V51.8057ZM42.3936 59.0381C42.3936 58.8558 42.3525 58.6872 42.2705 58.5322C42.193 58.3727 42.0312 58.2292 41.7852 58.1016C41.5436 57.9694 41.179 57.8555 40.6914 57.7598C40.2812 57.6732 39.9098 57.5706 39.5771 57.4521C39.249 57.3337 38.9688 57.1901 38.7363 57.0215C38.5085 56.8529 38.333 56.6546 38.21 56.4268C38.0869 56.1989 38.0254 55.9323 38.0254 55.627C38.0254 55.3353 38.0892 55.0596 38.2168 54.7998C38.349 54.54 38.5335 54.3099 38.7705 54.1094C39.012 53.9089 39.3014 53.7516 39.6387 53.6377C39.9759 53.5238 40.3519 53.4668 40.7666 53.4668C41.359 53.4668 41.8649 53.5716 42.2842 53.7812C42.7035 53.9909 43.0247 54.2712 43.248 54.6221C43.4714 54.9684 43.583 55.3535 43.583 55.7773H42.3184C42.3184 55.5723 42.2568 55.374 42.1338 55.1826C42.0153 54.9867 41.8398 54.8249 41.6074 54.6973C41.3796 54.5697 41.0993 54.5059 40.7666 54.5059C40.4157 54.5059 40.1309 54.5605 39.9121 54.6699C39.6979 54.7747 39.5407 54.9092 39.4404 55.0732C39.3447 55.2373 39.2969 55.4105 39.2969 55.5928C39.2969 55.7295 39.3197 55.8525 39.3652 55.9619C39.4154 56.0667 39.502 56.1647 39.625 56.2559C39.748 56.3424 39.9212 56.4245 40.1445 56.502C40.3678 56.5794 40.6527 56.6569 40.999 56.7344C41.6051 56.8711 42.1042 57.0352 42.4961 57.2266C42.888 57.418 43.1797 57.6527 43.3711 57.9307C43.5625 58.2087 43.6582 58.5459 43.6582 58.9424C43.6582 59.266 43.5898 59.5622 43.4531 59.8311C43.321 60.0999 43.1273 60.3324 42.8721 60.5283C42.6214 60.7197 42.3206 60.8701 41.9697 60.9795C41.6234 61.0843 41.2337 61.1367 40.8008 61.1367C40.1491 61.1367 39.5977 61.0205 39.1465 60.7881C38.6953 60.5557 38.3535 60.2549 38.1211 59.8857C37.8887 59.5166 37.7725 59.127 37.7725 58.7168H39.0439C39.0622 59.0632 39.1624 59.3389 39.3447 59.5439C39.527 59.7445 39.7503 59.888 40.0146 59.9746C40.279 60.0566 40.541 60.0977 40.8008 60.0977C41.1471 60.0977 41.4365 60.0521 41.6689 59.9609C41.9059 59.8698 42.0859 59.7445 42.209 59.585C42.332 59.4255 42.3936 59.2432 42.3936 59.0381ZM49.1953 51.9287L45.9004 61H44.5537L48.3477 51.0469H49.2158L49.1953 51.9287ZM51.957 61L48.6553 51.9287L48.6348 51.0469H49.5029L53.3105 61H51.957ZM51.7861 57.3154V58.3955H46.1943V57.3154H51.7861ZM55.7168 55.0254V63.8438H54.4453V53.6035H55.6074L55.7168 55.0254ZM60.7002 57.2402V57.3838C60.7002 57.9215 60.6364 58.4206 60.5088 58.8809C60.3812 59.3366 60.1943 59.7331 59.9482 60.0703C59.7067 60.4076 59.4082 60.6696 59.0527 60.8564C58.6973 61.0433 58.2894 61.1367 57.8291 61.1367C57.3597 61.1367 56.945 61.0592 56.585 60.9043C56.2249 60.7493 55.9196 60.5238 55.6689 60.2275C55.4183 59.9313 55.2178 59.5758 55.0674 59.1611C54.9215 58.7464 54.8213 58.2793 54.7666 57.7598V56.9941C54.8213 56.4473 54.9238 55.9574 55.0742 55.5244C55.2246 55.0915 55.4229 54.7223 55.6689 54.417C55.9196 54.1071 56.2227 53.8724 56.5781 53.7129C56.9336 53.5488 57.3438 53.4668 57.8086 53.4668C58.2734 53.4668 58.6859 53.5579 59.0459 53.7402C59.4059 53.918 59.709 54.1732 59.9551 54.5059C60.2012 54.8385 60.3857 55.2373 60.5088 55.7021C60.6364 56.1624 60.7002 56.6751 60.7002 57.2402ZM59.4287 57.3838V57.2402C59.4287 56.8711 59.39 56.5247 59.3125 56.2012C59.235 55.873 59.1143 55.5859 58.9502 55.3398C58.7907 55.0892 58.5856 54.8932 58.335 54.752C58.0843 54.6061 57.7858 54.5332 57.4395 54.5332C57.1204 54.5332 56.8424 54.5879 56.6055 54.6973C56.373 54.8066 56.1748 54.9548 56.0107 55.1416C55.8467 55.3239 55.7122 55.5335 55.6074 55.7705C55.5072 56.0029 55.432 56.2445 55.3818 56.4951V58.2656C55.473 58.5846 55.6006 58.8854 55.7646 59.168C55.9287 59.446 56.1475 59.6715 56.4209 59.8447C56.6943 60.0133 57.0384 60.0977 57.4531 60.0977C57.7949 60.0977 58.0889 60.027 58.335 59.8857C58.5856 59.7399 58.7907 59.5417 58.9502 59.291C59.1143 59.0404 59.235 58.7533 59.3125 58.4297C59.39 58.1016 59.4287 57.7529 59.4287 57.3838ZM63.5781 55.0254V63.8438H62.3066V53.6035H63.4688L63.5781 55.0254ZM68.5615 57.2402V57.3838C68.5615 57.9215 68.4977 58.4206 68.3701 58.8809C68.2425 59.3366 68.0557 59.7331 67.8096 60.0703C67.568 60.4076 67.2695 60.6696 66.9141 60.8564C66.5586 61.0433 66.1507 61.1367 65.6904 61.1367C65.221 61.1367 64.8063 61.0592 64.4463 60.9043C64.0863 60.7493 63.7809 60.5238 63.5303 60.2275C63.2796 59.9313 63.0791 59.5758 62.9287 59.1611C62.7829 58.7464 62.6826 58.2793 62.6279 57.7598V56.9941C62.6826 56.4473 62.7852 55.9574 62.9355 55.5244C63.0859 55.0915 63.2842 54.7223 63.5303 54.417C63.7809 54.1071 64.084 53.8724 64.4395 53.7129C64.7949 53.5488 65.2051 53.4668 65.6699 53.4668C66.1348 53.4668 66.5472 53.5579 66.9072 53.7402C67.2673 53.918 67.5703 54.1732 67.8164 54.5059C68.0625 54.8385 68.2471 55.2373 68.3701 55.7021C68.4977 56.1624 68.5615 56.6751 68.5615 57.2402ZM67.29 57.3838V57.2402C67.29 56.8711 67.2513 56.5247 67.1738 56.2012C67.0964 55.873 66.9756 55.5859 66.8115 55.3398C66.652 55.0892 66.4469 54.8932 66.1963 54.752C65.9456 54.6061 65.6471 54.5332 65.3008 54.5332C64.9818 54.5332 64.7038 54.5879 64.4668 54.6973C64.2344 54.8066 64.0361 54.9548 63.8721 55.1416C63.708 55.3239 63.5736 55.5335 63.4688 55.7705C63.3685 56.0029 63.2933 56.2445 63.2432 56.4951V58.2656C63.3343 58.5846 63.4619 58.8854 63.626 59.168C63.79 59.446 64.0088 59.6715 64.2822 59.8447C64.5557 60.0133 64.8997 60.0977 65.3145 60.0977C65.6562 60.0977 65.9502 60.027 66.1963 59.8857C66.4469 59.7399 66.652 59.5417 66.8115 59.291C66.9756 59.0404 67.0964 58.7533 67.1738 58.4297C67.2513 58.1016 67.29 57.7529 67.29 57.3838Z" fill="#222222"/>
</svg>
