<svg width="6" height="10" viewBox="0 0 6 10" fill="none" xmlns="http://www.w3.org/2000/svg">
<path d="M0.808443 0C1.03146 0 1.21963 0.0767088 1.37296 0.230125L5.54759 4.36541C5.74273 4.5537 5.83333 4.75593 5.83333 5C5.83333 5.24407 5.74273 5.45328 5.55456 5.63459L1.37296 9.76987C1.21963 9.92329 1.03146 10 0.808443 10C0.362405 10 0 9.64435 0 9.19805C0 8.9749 0.0906014 8.77266 0.250896 8.6053L3.91677 4.99303L0.250896 1.38773C0.0906014 1.22734 0 1.0251 0 0.801952C0 0.355649 0.362405 0 0.808443 0Z" fill="#4C5EFE"/>
</svg>
