<svg width="40" height="40" viewBox="0 0 40 40" fill="none" xmlns="http://www.w3.org/2000/svg">
<path d="M27.2165 22.2486H30.2397V25.2718H27.2165V22.2486ZM37.2441 23.7602C37.2441 26.3408 36.3225 28.8478 34.6636 30.9123C34.9585 31.5022 35.4008 31.9445 35.917 32.2763C36.4698 32.645 36.728 33.2717 36.5804 33.8984C36.4331 34.5251 35.9537 34.9674 35.29 35.0783C34.8476 35.1521 34.4051 35.1889 33.9628 35.1889C32.6356 35.1889 31.4189 34.9307 30.3129 34.3778C28.2485 35.4468 25.8891 36 23.4558 36C15.8614 36 9.66781 30.5069 9.66781 23.7604C9.66833 17.0139 15.8249 11.5208 23.4196 11.5208C31.0141 11.5208 37.2441 17.0137 37.2441 23.7602ZM34.848 23.7602C34.848 18.3041 29.7235 13.88 23.4194 13.88C17.1151 13.88 11.9909 18.3039 11.9909 23.7602C11.9909 29.2165 17.1153 33.6404 23.4194 33.6404C25.6682 33.6404 27.8066 33.0875 29.6866 32.0182L30.2765 31.6865L30.8664 32.0552C31.4931 32.424 32.1936 32.6819 32.968 32.7925C32.5992 32.3131 32.3413 31.7602 32.1201 31.1703L31.8619 30.5068L32.3413 29.9907C33.9999 28.1474 34.848 26.0091 34.848 23.7602ZM21.9448 25.2715H24.9679V22.2484H21.9448V25.2715ZM16.6727 25.2715H19.6959V22.2484L16.6727 22.2486V25.2715ZM2.73728 22.7648C2.47909 22.9121 2.5529 23.3176 2.84786 23.3547C3.88012 23.502 5.61283 23.5391 7.23501 22.5436C7.93554 15.0598 14.9401 9.16115 23.493 9.16115C21.5391 6.10125 17.7787 4 13.4654 4C7.16115 4 2 8.49769 2 14.0645C2 16.4607 2.95846 18.6728 4.54384 20.4055C4.28565 21.2166 3.73274 22.1013 2.73728 22.7648Z" fill="#007E8C"/>
</svg>
