<svg width="74" height="64" viewBox="0 0 74 64" fill="none" xmlns="http://www.w3.org/2000/svg">
<path d="M44.5942 18.2486H47.6174V21.2718H44.5942V18.2486ZM54.6218 19.7602C54.6218 22.3408 53.7002 24.8478 52.0412 26.9123C52.3362 27.5022 52.7785 27.9445 53.2946 28.2763C53.8475 28.645 54.1057 29.2717 53.9581 29.8984C53.8107 30.5251 53.3314 30.9674 52.6676 31.0783C52.2253 31.1521 51.7828 31.1889 51.3405 31.1889C50.0133 31.1889 48.7966 30.9307 47.6906 30.3778C45.6262 31.4468 43.2667 32 40.8335 32C33.239 32 27.0455 26.5069 27.0455 19.7604C27.046 13.0139 33.2026 7.52078 40.7973 7.52078C48.3917 7.52078 54.6222 13.0139 54.6222 19.7604L54.6218 19.7602ZM52.2256 19.7602C52.2256 14.3041 47.1012 9.88004 40.7971 9.88004C34.4928 9.88004 29.3685 14.3039 29.3685 19.7602C29.3685 25.2165 34.493 29.6404 40.7971 29.6404C43.0459 29.6404 45.1842 29.0875 47.0643 28.0182L47.6542 27.6865L48.2441 28.0552C48.8708 28.424 49.5713 28.6819 50.3456 28.7925C49.9769 28.3131 49.719 27.7602 49.4978 27.1703L49.2396 26.5068L49.7189 25.9907C51.3776 24.1474 52.2257 22.0092 52.2257 19.7603L52.2256 19.7602ZM39.3224 21.2715H42.3456V18.2484H39.3224V21.2715ZM34.0504 21.2715H37.0736V18.2484L34.0504 18.2486V21.2715ZM20.115 18.7648C19.8568 18.9121 19.9306 19.3176 20.2255 19.3547C21.2578 19.502 22.9905 19.5391 24.6127 18.5436C25.3132 11.0598 32.3178 5.16115 40.8707 5.16115C38.9168 2.10125 35.1564 0 30.8431 0C24.5388 0 19.3777 4.49769 19.3777 10.0645C19.3777 12.4607 20.3361 14.6728 21.9215 16.4055C21.6633 17.2166 21.1105 18.1015 20.115 18.7649L20.115 18.7648Z" fill="#8A8A8A"/>
<path d="M29.0361 58.4844C29.0361 58.252 28.9997 58.0469 28.9268 57.8691C28.8584 57.6868 28.7354 57.5228 28.5576 57.377C28.3844 57.2311 28.1429 57.0921 27.833 56.96C27.5277 56.8278 27.1403 56.6934 26.6709 56.5566C26.1787 56.4108 25.7344 56.249 25.3379 56.0713C24.9414 55.889 24.6019 55.6816 24.3193 55.4492C24.0368 55.2168 23.8203 54.9502 23.6699 54.6494C23.5195 54.3486 23.4443 54.0046 23.4443 53.6172C23.4443 53.2298 23.5241 52.8721 23.6836 52.5439C23.8431 52.2158 24.071 51.931 24.3672 51.6895C24.668 51.4434 25.0257 51.252 25.4404 51.1152C25.8551 50.9785 26.3177 50.9102 26.8281 50.9102C27.5755 50.9102 28.209 51.0537 28.7285 51.3408C29.2526 51.6234 29.6514 51.9948 29.9248 52.4551C30.1982 52.9108 30.335 53.3984 30.335 53.918H29.0225C29.0225 53.5443 28.9427 53.2139 28.7832 52.9268C28.6237 52.6351 28.3822 52.4072 28.0586 52.2432C27.735 52.0745 27.3249 51.9902 26.8281 51.9902C26.3587 51.9902 25.9714 52.0609 25.666 52.2021C25.3607 52.3434 25.1328 52.5348 24.9824 52.7764C24.8366 53.0179 24.7637 53.2936 24.7637 53.6035C24.7637 53.8132 24.807 54.0046 24.8936 54.1777C24.9847 54.3464 25.1237 54.5036 25.3105 54.6494C25.502 54.7952 25.7435 54.9297 26.0352 55.0527C26.3314 55.1758 26.6846 55.2943 27.0947 55.4082C27.6598 55.5677 28.1475 55.7454 28.5576 55.9414C28.9678 56.1374 29.305 56.3584 29.5693 56.6045C29.8382 56.846 30.0365 57.1217 30.1641 57.4316C30.2962 57.737 30.3623 58.0833 30.3623 58.4707C30.3623 58.8763 30.2803 59.2432 30.1162 59.5713C29.9521 59.8994 29.7174 60.1797 29.4121 60.4121C29.1068 60.6445 28.7399 60.8245 28.3115 60.9521C27.8877 61.0752 27.4137 61.1367 26.8896 61.1367C26.4294 61.1367 25.9759 61.0729 25.5293 60.9453C25.0872 60.8177 24.6839 60.6263 24.3193 60.3711C23.9593 60.1159 23.6699 59.8014 23.4512 59.4277C23.237 59.0495 23.1299 58.612 23.1299 58.1152H24.4424C24.4424 58.457 24.5085 58.751 24.6406 58.9971C24.7728 59.2386 24.9528 59.4391 25.1807 59.5986C25.4131 59.7581 25.6751 59.8766 25.9668 59.9541C26.263 60.027 26.5706 60.0635 26.8896 60.0635C27.3499 60.0635 27.7396 59.9997 28.0586 59.8721C28.3776 59.7445 28.6191 59.5622 28.7832 59.3252C28.9518 59.0882 29.0361 58.8079 29.0361 58.4844ZM32.4609 51.0469H33.7393L37 59.1611L40.2539 51.0469H41.5391L37.4922 61H36.4941L32.4609 51.0469ZM32.0439 51.0469H33.1719L33.3564 57.1172V61H32.0439V51.0469ZM40.8213 51.0469H41.9492V61H40.6367V57.1172L40.8213 51.0469ZM49.5713 58.4844C49.5713 58.252 49.5348 58.0469 49.4619 57.8691C49.3936 57.6868 49.2705 57.5228 49.0928 57.377C48.9196 57.2311 48.6781 57.0921 48.3682 56.96C48.0628 56.8278 47.6755 56.6934 47.2061 56.5566C46.7139 56.4108 46.2695 56.249 45.873 56.0713C45.4766 55.889 45.137 55.6816 44.8545 55.4492C44.5719 55.2168 44.3555 54.9502 44.2051 54.6494C44.0547 54.3486 43.9795 54.0046 43.9795 53.6172C43.9795 53.2298 44.0592 52.8721 44.2188 52.5439C44.3783 52.2158 44.6061 51.931 44.9023 51.6895C45.2031 51.4434 45.5609 51.252 45.9756 51.1152C46.3903 50.9785 46.8529 50.9102 47.3633 50.9102C48.1107 50.9102 48.7441 51.0537 49.2637 51.3408C49.7878 51.6234 50.1865 51.9948 50.46 52.4551C50.7334 52.9108 50.8701 53.3984 50.8701 53.918H49.5576C49.5576 53.5443 49.4779 53.2139 49.3184 52.9268C49.1589 52.6351 48.9173 52.4072 48.5938 52.2432C48.2702 52.0745 47.86 51.9902 47.3633 51.9902C46.8939 51.9902 46.5065 52.0609 46.2012 52.2021C45.8958 52.3434 45.668 52.5348 45.5176 52.7764C45.3717 53.0179 45.2988 53.2936 45.2988 53.6035C45.2988 53.8132 45.3421 54.0046 45.4287 54.1777C45.5199 54.3464 45.6589 54.5036 45.8457 54.6494C46.0371 54.7952 46.2786 54.9297 46.5703 55.0527C46.8665 55.1758 47.2197 55.2943 47.6299 55.4082C48.195 55.5677 48.6826 55.7454 49.0928 55.9414C49.5029 56.1374 49.8402 56.3584 50.1045 56.6045C50.3734 56.846 50.5716 57.1217 50.6992 57.4316C50.8314 57.737 50.8975 58.0833 50.8975 58.4707C50.8975 58.8763 50.8154 59.2432 50.6514 59.5713C50.4873 59.8994 50.2526 60.1797 49.9473 60.4121C49.6419 60.6445 49.2751 60.8245 48.8467 60.9521C48.4229 61.0752 47.9489 61.1367 47.4248 61.1367C46.9645 61.1367 46.5111 61.0729 46.0645 60.9453C45.6224 60.8177 45.2191 60.6263 44.8545 60.3711C44.4945 60.1159 44.2051 59.8014 43.9863 59.4277C43.7721 59.0495 43.665 58.612 43.665 58.1152H44.9775C44.9775 58.457 45.0436 58.751 45.1758 58.9971C45.3079 59.2386 45.488 59.4391 45.7158 59.5986C45.9482 59.7581 46.2103 59.8766 46.502 59.9541C46.7982 60.027 47.1058 60.0635 47.4248 60.0635C47.8851 60.0635 48.2747 59.9997 48.5938 59.8721C48.9128 59.7445 49.1543 59.5622 49.3184 59.3252C49.487 59.0882 49.5713 58.8079 49.5713 58.4844Z" fill="#222222"/>
</svg>
