<svg width="74" height="64" viewBox="0 0 74 64" fill="none" xmlns="http://www.w3.org/2000/svg">
<path d="M37.0001 25.5008C34.9669 25.4887 32.9945 24.805 31.3901 23.5557C31.1939 23.3901 31.0617 23.161 31.0162 22.9081C30.9704 22.6555 31.0144 22.3947 31.1401 22.1709C31.2412 21.9566 31.4334 21.7995 31.6635 21.7432C31.8934 21.687 32.1365 21.7374 32.3251 21.8807C33.6574 22.9302 35.3041 23.501 37.0001 23.501C38.696 23.501 40.3427 22.9302 41.675 21.8807C41.8637 21.7374 42.1067 21.687 42.3366 21.7432C42.5668 21.7995 42.759 21.9566 42.8601 22.1709C42.9858 22.3948 43.0297 22.6555 42.984 22.9081C42.9384 23.161 42.8063 23.3901 42.6101 23.5557C41.0056 24.805 39.0333 25.4887 37 25.5008H37.0001Z" fill="#8A8A8A"/>
<path d="M30.5 15C30.2348 15 29.9804 14.8946 29.7929 14.7071C29.6054 14.5196 29.5 14.2652 29.5 14V11.5C29.5 11.1426 29.6906 10.8125 30 10.6339C30.3094 10.4554 30.6906 10.4554 31 10.6339C31.3094 10.8125 31.5 11.1426 31.5 11.5V14C31.5 14.2652 31.3946 14.5196 31.2071 14.7071C31.0196 14.8946 30.7652 15 30.5 15Z" fill="#8A8A8A"/>
<path d="M43.5 15C43.2348 15 42.9804 14.8946 42.7929 14.7071C42.6054 14.5196 42.5 14.2652 42.5 14V11.5C42.5 11.1426 42.6906 10.8125 43 10.6339C43.3094 10.4554 43.6906 10.4554 44 10.6339C44.3094 10.8125 44.5 11.1426 44.5 11.5V14C44.5 14.2652 44.3946 14.5196 44.2071 14.7071C44.0196 14.8946 43.7652 15 43.5 15Z" fill="#8A8A8A"/>
<path d="M35.5 20C35.1426 20 34.8125 19.8094 34.6339 19.5C34.4554 19.1906 34.4554 18.8094 34.6339 18.5C34.8125 18.1906 35.1426 18 35.5 18C35.7652 18 36.0196 17.8946 36.2071 17.7071C36.3946 17.5196 36.5 17.2652 36.5 17V11.5C36.5 11.1426 36.6906 10.8125 37 10.6339C37.3094 10.4554 37.6906 10.4554 38 10.6339C38.3094 10.8125 38.5 11.1426 38.5 11.5V17C38.5 17.7958 38.1839 18.5587 37.6214 19.1214C37.0587 19.6839 36.2958 20 35.5 20Z" fill="#8A8A8A"/>
<path d="M32 32C24.5 32 21 28.5 21 21C21 20.6426 21.1906 20.3125 21.5 20.1339C21.8094 19.9554 22.1906 19.9554 22.5 20.1339C22.8094 20.3125 23 20.6426 23 21C23 27.5 25.5 30 32 30C32.3574 30 32.6875 30.1906 32.8661 30.5C33.0446 30.8094 33.0446 31.1906 32.8661 31.5C32.6875 31.8094 32.3574 32 32 32Z" fill="#8A8A8A"/>
<path d="M52 12C51.7348 12 51.4803 11.8946 51.2928 11.7071C51.1053 11.5196 51 11.2652 51 11C51 4.5 48.5 2 42 2C41.6426 2 41.3125 1.80938 41.1339 1.5C40.9554 1.19062 40.9554 0.809371 41.1339 0.5C41.3125 0.190629 41.6426 0 42 0C49.5 0 53 3.5 53 11C53 11.2652 52.8946 11.5196 52.7071 11.7071C52.5196 11.8946 52.2652 12 52 12Z" fill="#8A8A8A"/>
<path d="M22 12C21.7348 12 21.4804 11.8946 21.2929 11.7071C21.1054 11.5196 21 11.2652 21 11C21 3.5 24.5 0 32 0C32.3574 0 32.6875 0.190623 32.8661 0.5C33.0446 0.809377 33.0446 1.19063 32.8661 1.5C32.6875 1.80937 32.3574 2 32 2C25.5 2 23 4.5 23 11C23 11.2652 22.8946 11.5196 22.7071 11.7071C22.5196 11.8946 22.2652 12 22 12Z" fill="#8A8A8A"/>
<path d="M42 32C41.6426 32 41.3125 31.8094 41.1339 31.5C40.9554 31.1906 40.9554 30.8094 41.1339 30.5C41.3125 30.1906 41.6426 30 42 30C48.5 30 51 27.5 51 21C51 20.6426 51.1906 20.3125 51.5 20.1339C51.8094 19.9554 52.1906 19.9554 52.5 20.1339C52.8094 20.3125 53 20.6426 53 21C53 28.5 49.5 32 42 32Z" fill="#8A8A8A"/>
<path d="M18.0371 51.0469V61H16.7178V51.0469H18.0371ZM22.207 55.5244V56.6045H17.75V55.5244H22.207ZM22.8838 51.0469V52.127H17.75V51.0469H22.8838ZM28.3936 59.7354V55.9277C28.3936 55.6361 28.3343 55.3831 28.2158 55.1689C28.1019 54.9502 27.9287 54.7816 27.6963 54.6631C27.4639 54.5446 27.1768 54.4854 26.835 54.4854C26.516 54.4854 26.2357 54.54 25.9941 54.6494C25.7572 54.7588 25.5703 54.9023 25.4336 55.0801C25.3014 55.2578 25.2354 55.4492 25.2354 55.6543H23.9707C23.9707 55.39 24.0391 55.1279 24.1758 54.8682C24.3125 54.6084 24.5085 54.3737 24.7637 54.1641C25.0234 53.9499 25.3333 53.7812 25.6934 53.6582C26.0579 53.5306 26.4635 53.4668 26.9102 53.4668C27.4479 53.4668 27.9219 53.5579 28.332 53.7402C28.7467 53.9225 29.0703 54.1982 29.3027 54.5674C29.5397 54.932 29.6582 55.39 29.6582 55.9414V59.3867C29.6582 59.6328 29.6787 59.8949 29.7197 60.1729C29.7653 60.4508 29.8314 60.6901 29.918 60.8906V61H28.5986C28.5348 60.8542 28.4847 60.6605 28.4482 60.4189C28.4118 60.1729 28.3936 59.945 28.3936 59.7354ZM28.6123 56.5156L28.626 57.4043H27.3477C26.9876 57.4043 26.6663 57.4339 26.3838 57.4932C26.1012 57.5479 25.8643 57.6322 25.6729 57.7461C25.4814 57.86 25.3356 58.0036 25.2354 58.1768C25.1351 58.3454 25.085 58.5436 25.085 58.7715C25.085 59.0039 25.1374 59.2158 25.2422 59.4072C25.347 59.5986 25.5042 59.7513 25.7139 59.8652C25.9281 59.9746 26.1901 60.0293 26.5 60.0293C26.8874 60.0293 27.2292 59.9473 27.5254 59.7832C27.8216 59.6191 28.0563 59.4186 28.2295 59.1816C28.4072 58.9447 28.5029 58.7145 28.5166 58.4912L29.0566 59.0996C29.0247 59.291 28.9382 59.5029 28.7969 59.7354C28.6556 59.9678 28.4665 60.1911 28.2295 60.4053C27.9971 60.6149 27.7191 60.7904 27.3955 60.9316C27.0765 61.0684 26.7165 61.1367 26.3154 61.1367C25.8141 61.1367 25.3743 61.0387 24.9961 60.8428C24.6224 60.6468 24.3307 60.3848 24.1211 60.0566C23.916 59.724 23.8135 59.3525 23.8135 58.9424C23.8135 58.5459 23.891 58.1973 24.0459 57.8965C24.2008 57.5911 24.4242 57.3382 24.7158 57.1377C25.0075 56.9326 25.3584 56.7777 25.7686 56.6729C26.1787 56.568 26.6367 56.5156 27.1426 56.5156H28.6123ZM34.6074 60.0977C34.9082 60.0977 35.1862 60.0361 35.4414 59.9131C35.6966 59.79 35.9062 59.6214 36.0703 59.4072C36.2344 59.1885 36.3278 58.9401 36.3506 58.6621H37.5537C37.5309 59.0996 37.3828 59.5075 37.1094 59.8857C36.8405 60.2594 36.4873 60.5625 36.0498 60.7949C35.6123 61.0228 35.1315 61.1367 34.6074 61.1367C34.0514 61.1367 33.5661 61.0387 33.1514 60.8428C32.7412 60.6468 32.3994 60.3779 32.126 60.0361C31.8571 59.6943 31.6543 59.3024 31.5176 58.8604C31.3854 58.4137 31.3193 57.9421 31.3193 57.4453V57.1582C31.3193 56.6615 31.3854 56.1921 31.5176 55.75C31.6543 55.3034 31.8571 54.9092 32.126 54.5674C32.3994 54.2256 32.7412 53.9567 33.1514 53.7607C33.5661 53.5648 34.0514 53.4668 34.6074 53.4668C35.1862 53.4668 35.6921 53.5853 36.125 53.8223C36.5579 54.0547 36.8975 54.3737 37.1436 54.7793C37.3942 55.1803 37.5309 55.6361 37.5537 56.1465H36.3506C36.3278 55.8411 36.2412 55.5654 36.0908 55.3193C35.945 55.0732 35.7445 54.8773 35.4893 54.7314C35.2386 54.5811 34.9447 54.5059 34.6074 54.5059C34.2201 54.5059 33.8942 54.5833 33.6299 54.7383C33.3701 54.8887 33.1628 55.0938 33.0078 55.3535C32.8574 55.6087 32.748 55.8936 32.6797 56.208C32.6159 56.5179 32.584 56.8346 32.584 57.1582V57.4453C32.584 57.7689 32.6159 58.0879 32.6797 58.4023C32.7435 58.7168 32.8506 59.0016 33.001 59.2568C33.1559 59.512 33.3633 59.7171 33.623 59.8721C33.8874 60.0225 34.2155 60.0977 34.6074 60.0977ZM42.0449 61.1367C41.5299 61.1367 41.0628 61.0501 40.6436 60.877C40.2288 60.6992 39.8711 60.4508 39.5703 60.1318C39.2741 59.8128 39.0462 59.4346 38.8867 58.9971C38.7272 58.5596 38.6475 58.0811 38.6475 57.5615V57.2744C38.6475 56.6729 38.7363 56.1374 38.9141 55.668C39.0918 55.194 39.3333 54.793 39.6387 54.4648C39.944 54.1367 40.2904 53.8883 40.6777 53.7197C41.0651 53.5511 41.4661 53.4668 41.8809 53.4668C42.4095 53.4668 42.8652 53.5579 43.248 53.7402C43.6354 53.9225 43.9521 54.1777 44.1982 54.5059C44.4443 54.8294 44.6266 55.2122 44.7451 55.6543C44.8636 56.0918 44.9229 56.5703 44.9229 57.0898V57.6572H39.3994V56.625H43.6582V56.5293C43.64 56.2012 43.5716 55.8822 43.4531 55.5723C43.3392 55.2624 43.1569 55.0072 42.9062 54.8066C42.6556 54.6061 42.3138 54.5059 41.8809 54.5059C41.5938 54.5059 41.3294 54.5674 41.0879 54.6904C40.8464 54.8089 40.639 54.9867 40.4658 55.2236C40.2926 55.4606 40.1582 55.75 40.0625 56.0918C39.9668 56.4336 39.9189 56.8278 39.9189 57.2744V57.5615C39.9189 57.9124 39.9668 58.2428 40.0625 58.5527C40.1628 58.8581 40.3063 59.127 40.4932 59.3594C40.6846 59.5918 40.9147 59.7741 41.1836 59.9062C41.457 60.0384 41.7669 60.1045 42.1133 60.1045C42.5599 60.1045 42.9382 60.0133 43.248 59.8311C43.5579 59.6488 43.8291 59.4049 44.0615 59.0996L44.8271 59.708C44.6676 59.9495 44.4648 60.1797 44.2188 60.3984C43.9727 60.6172 43.6696 60.7949 43.3096 60.9316C42.9541 61.0684 42.5326 61.1367 42.0449 61.1367ZM48.0059 51.0469V61H46.6865V51.0469H48.0059ZM53.0986 61H51.0205L51.0342 59.9268H53.0986C53.8096 59.9268 54.402 59.7786 54.876 59.4824C55.3499 59.1816 55.7054 58.7624 55.9424 58.2246C56.1839 57.6823 56.3047 57.0488 56.3047 56.3242V55.7158C56.3047 55.1462 56.2363 54.6403 56.0996 54.1982C55.9629 53.7516 55.7624 53.3757 55.498 53.0703C55.2337 52.7604 54.9102 52.5257 54.5273 52.3662C54.1491 52.2067 53.7139 52.127 53.2217 52.127H50.9795V51.0469H53.2217C53.8734 51.0469 54.4681 51.1562 55.0059 51.375C55.5436 51.5892 56.0062 51.9014 56.3936 52.3115C56.7855 52.7171 57.0863 53.2093 57.2959 53.7881C57.5055 54.3623 57.6104 55.0094 57.6104 55.7295V56.3242C57.6104 57.0443 57.5055 57.6937 57.2959 58.2725C57.0863 58.8467 56.7832 59.3366 56.3867 59.7422C55.9948 60.1478 55.5208 60.46 54.9648 60.6787C54.4134 60.8929 53.7913 61 53.0986 61ZM51.7246 51.0469V61H50.4053V51.0469H51.7246Z" fill="#222222"/>
</svg>
