<svg width="30" height="64" viewBox="0 0 30 64" fill="none" xmlns="http://www.w3.org/2000/svg">
<path fill-rule="evenodd" clip-rule="evenodd" d="M21.2226 8.88931H8.77768V24.0002C8.77768 27.4365 11.5637 30.2225 15 30.2225C18.4363 30.2225 21.2223 27.4365 21.2223 24.0002L21.2226 8.88931ZM8.77768 7.11133C7.79581 7.11133 7 7.90744 7 8.88931V24.0002C7 28.4186 10.5819 32.0002 15 32.0002C19.4184 32.0002 23 28.4186 23 24.0002V8.88931C23 7.90744 22.2042 7.11133 21.2223 7.11133H8.77768Z" fill="#8A8A8A"/>
<path fill-rule="evenodd" clip-rule="evenodd" d="M19.4444 1.77768H10.5561V7.11101H19.4444V1.77768ZM10.5561 0C9.57419 0 8.77808 0.79581 8.77808 1.77768V8.88899H21.223V1.77768C21.223 0.79581 20.4269 0 19.445 0H10.5561Z" fill="#8A8A8A"/>
<path d="M12.6894 3.55664H13.7561C13.9525 3.55664 14.1117 3.75307 14.1117 3.9123V4.97896C14.1117 5.17539 13.9525 5.33462 13.7561 5.33462H12.6894C12.493 5.33462 12.3337 5.13819 12.3337 4.97896V3.9123C12.3337 3.71587 12.493 3.55664 12.6894 3.55664Z" fill="#8A8A8A"/>
<path d="M16.2443 3.55664H17.311C17.5074 3.55664 17.6667 3.75307 17.6667 3.9123V4.97896C17.6667 5.17539 17.5074 5.33462 17.311 5.33462H16.2443C16.0479 5.33462 15.8887 5.13819 15.8887 4.97896V3.9123C15.8887 3.71587 16.0479 3.55664 16.2443 3.55664Z" fill="#8A8A8A"/>
<path fill-rule="evenodd" clip-rule="evenodd" d="M15.0002 24.8896C15.4909 24.8896 15.8892 24.4914 15.8892 24.0007C15.8892 23.5099 15.4909 23.1117 15.0002 23.1117C14.5094 23.1117 14.1112 23.5099 14.1112 24.0007C14.1112 24.4914 14.5094 24.8896 15.0002 24.8896ZM15.0002 26.6673C16.4728 26.6673 17.6668 25.4733 17.6668 24.0007C17.6668 22.528 16.4728 21.334 15.0002 21.334C13.5276 21.334 12.3335 22.528 12.3335 24.0007C12.3335 25.4733 13.5276 26.6673 15.0002 26.6673Z" fill="#8A8A8A"/>
<path d="M7.67871 55.4971V56.5771H3.59766V55.4971H7.67871ZM1.1709 57.835H2.4834C2.55632 58.3044 2.67708 58.7054 2.8457 59.0381C3.01888 59.3708 3.27181 59.626 3.60449 59.8037C3.93717 59.9769 4.38379 60.0635 4.94434 60.0635C5.38639 60.0635 5.76921 59.9723 6.09277 59.79C6.41634 59.6032 6.68294 59.348 6.89258 59.0244C7.10221 58.7008 7.25716 58.3249 7.35742 57.8965C7.46224 57.4681 7.51465 57.0101 7.51465 56.5225V55.5244C7.51465 55.1006 7.47819 54.7087 7.40527 54.3486C7.33236 53.984 7.22298 53.6582 7.07715 53.3711C6.93132 53.0794 6.74902 52.8311 6.53027 52.626C6.31608 52.4209 6.06543 52.2637 5.77832 52.1543C5.49577 52.0449 5.17904 51.9902 4.82812 51.9902C4.31771 51.9902 3.90072 52.0814 3.57715 52.2637C3.25814 52.446 3.01204 52.7057 2.83887 53.043C2.67025 53.3757 2.55176 53.7744 2.4834 54.2393H1.1709C1.23926 53.583 1.41927 53.0065 1.71094 52.5098C2.0026 52.0085 2.40592 51.6165 2.9209 51.334C3.44043 51.0514 4.07617 50.9102 4.82812 50.9102C5.44336 50.9102 5.99707 51.0195 6.48926 51.2383C6.98145 51.457 7.40072 51.7692 7.74707 52.1748C8.09798 52.5804 8.36458 53.068 8.54688 53.6377C8.73372 54.2074 8.82715 54.8408 8.82715 55.5381V56.5225C8.82715 57.2197 8.73372 57.8532 8.54688 58.4229C8.36458 58.988 8.10254 59.4733 7.76074 59.8789C7.41895 60.2799 7.00879 60.5898 6.53027 60.8086C6.05632 61.0273 5.52767 61.1367 4.94434 61.1367C4.14681 61.1367 3.48145 60.9932 2.94824 60.7061C2.41504 60.4144 2.0026 60.0202 1.71094 59.5234C1.42383 59.0267 1.24382 58.4639 1.1709 57.835ZM19.3955 59.8926L19.2725 63.3994H18.0898V61H17.1123V59.8926H19.3955ZM10.8027 61V51.0469H12.1289V59.9268H17.0303V51.0469H18.3496V61H10.8027ZM28.6035 51.0469V61H27.291V52.127H22.3828V61H21.0635V51.0469H28.6035Z" fill="#222222"/>
</svg>
