<svg width="15" height="16" viewBox="0 0 15 16" fill="none" xmlns="http://www.w3.org/2000/svg">
<path d="M7.51051 14.6796L9.68408 13.4277L9.68618 16L14.976 12.9522V6.86524L12.7549 8.14284V5.61461L10.5527 4.34558L12.8005 3.04794L7.51025 0L2.53643 2.86576V3.23726L4.46296 4.34854L2.26559 5.61468V8.16199L0 6.85512V12.9454L5.28235 15.9888L5.28414 13.3971L7.51051 14.6796ZM9.38376 7.19835L7.50661 8.27858L5.60922 7.18432L7.48426 6.10395L9.38376 7.19835ZM12.122 9.2369V11.2928L10.3166 12.3331L10.3149 10.2763L12.122 9.2369ZM7.82165 10.9738L7.82311 8.82611L9.68193 7.75655V9.90213L7.82165 10.9738ZM7.18974 8.82566L7.18828 10.9973L5.28684 9.90201V7.72783L7.18974 8.82566ZM4.65332 10.2693L4.65186 12.303L2.89895 11.2928V9.25731L4.65332 10.2693ZM5.28639 10.6316L7.18783 11.7272L7.18638 13.7635L5.28493 12.6676L5.28639 10.6316ZM7.81958 13.7717L7.8212 11.7037L9.68196 10.6316L9.68375 12.6975L7.81958 13.7717ZM14.3431 7.95871V12.5872L10.3186 14.9063L10.317 13.0628L12.7551 11.658V8.87275L14.3431 7.95871ZM10.3146 9.5477V7.39277L12.1221 6.3528V8.50773L10.3146 9.5477ZM11.8127 5.80122L10.0175 6.83424L8.1279 5.74531L9.92033 4.71067L11.8127 5.80122ZM7.50648 5.37412L5.72882 4.34855L7.51055 3.32183L9.28726 4.34578L7.50648 5.37412ZM3.48057 3.0517L7.51071 0.729453L11.5352 3.04864L9.92 3.98093L7.51055 2.59241L5.09641 3.98382L3.48057 3.0517ZM6.86276 5.73268L4.97686 6.81938L3.21006 5.80027L5.09625 4.71357L6.86276 5.73268ZM2.89937 6.35102L4.6539 7.36335V9.5398L2.89937 8.52747V6.35102ZM4.6505 14.895L0.63366 12.5807V7.95048L2.26618 8.89232V11.6582L4.65178 13.0333L4.6505 14.895Z" fill="#222222"/>
</svg>
