<svg width="129" height="27" viewBox="0 0 129 27" fill="none" xmlns="http://www.w3.org/2000/svg">
<path fill-rule="evenodd" clip-rule="evenodd" d="M23.1184 13.9185C23.1184 13.793 23.0482 13.68 22.9407 13.6321C22.8332 13.5842 22.7095 13.611 22.6274 13.6999C21.3605 15.0719 18.0196 18.6904 17.15 19.6321C17.016 19.7773 16.9407 19.9738 16.9407 20.1787C16.9407 20.6691 16.9407 21.6585 16.9407 22.6856C16.9407 23.5689 17.2661 24.416 17.8453 25.0406C18.4245 25.6652 19.21 26.0161 20.0291 26.0161C20.0294 26.0161 20.0297 26.0161 20.0299 26.0161C20.849 26.0161 21.6346 25.6652 22.2138 25.0406C22.793 24.416 23.1184 23.5689 23.1184 22.6856C23.1184 19.7176 23.1184 15.5923 23.1184 13.9185ZM0 13.9185C0 13.793 0.0701436 13.68 0.177663 13.6321C0.285182 13.5842 0.408853 13.611 0.490937 13.6999C1.75781 15.0719 5.09881 18.6904 5.96836 19.6321C6.10241 19.7773 6.17765 19.9738 6.17765 20.1787C6.17765 20.6691 6.17765 21.6585 6.17765 22.6856C6.17765 23.5689 5.85227 24.416 5.27308 25.0406C4.69388 25.6652 3.90833 26.0161 3.08921 26.0161C3.08897 26.0161 3.0887 26.0161 3.08846 26.0161C2.26934 26.0161 1.4838 25.6652 0.904594 25.0406C0.325412 24.416 0 23.5689 0 22.6856C0 19.7176 0 15.5923 0 13.9185ZM0.852731 12.9203C-0.284234 11.6942 -0.284234 9.70632 0.852731 8.48024C0.85278 8.48021 0.852807 8.48016 0.852855 8.48013C1.98982 7.25405 3.83322 7.25405 4.97018 8.48013C7.52719 11.2375 11.5567 15.5829 11.5567 15.5829C11.5567 15.5829 15.598 11.2247 18.159 8.463C19.2951 7.23789 21.137 7.23789 22.2731 8.463C22.2731 8.46308 22.2732 8.46316 22.2733 8.46324C23.4092 9.68822 23.4092 11.6743 22.2733 12.8993C19.9373 15.4184 16.1409 19.5124 13.7489 22.0919C13.1666 22.7198 12.3768 23.0726 11.5533 23.0726C10.7298 23.0726 9.94002 22.7198 9.35772 22.0919C6.97044 19.5175 3.18486 15.4352 0.852731 12.9203ZM3.10321 0C4.81382 0 6.20262 1.49766 6.20262 3.34235C6.20262 5.18701 4.81382 6.68467 3.10321 6.68467C1.3926 6.68467 0.00379551 5.18701 0.00379551 3.34235C0.00379551 1.49766 1.3926 0 3.10321 0ZM20.026 0C21.7366 0 23.1254 1.49766 23.1254 3.34235C23.1254 5.18701 21.7366 6.68467 20.026 6.68467C18.3154 6.68467 16.9266 5.18701 16.9266 3.34235C16.9266 1.49766 18.3154 0 20.026 0Z" fill="#737373"/>
<path d="M46.0718 16.2266H49.2476C49.146 17.4377 48.8072 18.5174 48.2314 19.4659C47.6555 20.406 46.8467 21.147 45.805 21.689C44.7634 22.231 43.4973 22.502 42.0068 22.502C40.8635 22.502 39.8346 22.2987 38.9199 21.8922C38.0053 21.4773 37.2219 20.8929 36.5698 20.1392C35.9177 19.377 35.4181 18.4581 35.0709 17.3826C34.7321 16.3071 34.5627 15.1045 34.5627 13.7749V12.2378C34.5627 10.9082 34.7364 9.70566 35.0836 8.63013C35.4393 7.55459 35.9474 6.63573 36.608 5.87354C37.2685 5.10288 38.0604 4.5143 38.9834 4.1078C39.915 3.7013 40.9609 3.49805 42.1211 3.49805C43.5947 3.49805 44.8396 3.76905 45.8559 4.31105C46.8721 4.85305 47.6597 5.60254 48.2187 6.55951C48.7861 7.51648 49.1333 8.61319 49.2603 9.84963H46.0845C45.9998 9.05357 45.8135 8.37183 45.5256 7.80442C45.2461 7.23701 44.8311 6.80511 44.2807 6.5087C43.7302 6.20382 43.0104 6.05138 42.1211 6.05138C41.3928 6.05138 40.7577 6.18688 40.2157 6.45789C39.6737 6.72889 39.2206 7.12692 38.8564 7.65198C38.4923 8.17705 38.217 8.82491 38.0307 9.59557C37.8529 10.3578 37.7639 11.23 37.7639 12.2124V13.7749C37.7639 14.7065 37.8444 15.5534 38.0053 16.3155C38.1747 17.0693 38.4287 17.7171 38.7675 18.2591C39.1147 18.8011 39.5551 19.2203 40.0886 19.5167C40.6222 19.8132 41.2615 19.9614 42.0068 19.9614C42.913 19.9614 43.6455 19.8174 44.2044 19.5294C44.7719 19.2415 45.1995 18.8223 45.4875 18.2718C45.7839 17.7129 45.9787 17.0312 46.0718 16.2266Z" fill="#737373"/>
<path d="M50.7344 15.5279V15.2358C50.7344 14.2449 50.8784 13.3261 51.1663 12.4792C51.4542 11.6238 51.8692 10.8828 52.4112 10.2561C52.9617 9.62097 53.6307 9.12979 54.4183 8.78257C55.2144 8.42688 56.1121 8.24903 57.1114 8.24903C58.1192 8.24903 59.0169 8.42688 59.8044 8.78257C60.6005 9.12979 61.2738 9.62097 61.8243 10.2561C62.3747 10.8828 62.7939 11.6238 63.0819 12.4792C63.3698 13.3261 63.5138 14.2449 63.5138 15.2358V15.5279C63.5138 16.5188 63.3698 17.4377 63.0819 18.2845C62.7939 19.1314 62.3747 19.8724 61.8243 20.5076C61.2738 21.1343 60.6047 21.6255 59.8172 21.9812C59.0296 22.3284 58.1361 22.502 57.1368 22.502C56.129 22.502 55.2271 22.3284 54.431 21.9812C53.6434 21.6255 52.9744 21.1343 52.4239 20.5076C51.8734 19.8724 51.4542 19.1314 51.1663 18.2845C50.8784 17.4377 50.7344 16.5188 50.7344 15.5279ZM53.7959 15.2358V15.5279C53.7959 16.1462 53.8594 16.7305 53.9864 17.281C54.1134 17.8315 54.3124 18.3142 54.5834 18.7291C54.8544 19.1441 55.2017 19.4702 55.6251 19.7073C56.0485 19.9444 56.5524 20.063 57.1368 20.063C57.7042 20.063 58.1954 19.9444 58.6104 19.7073C59.0338 19.4702 59.381 19.1441 59.652 18.7291C59.923 18.3142 60.122 17.8315 60.2491 17.281C60.3846 16.7305 60.4523 16.1462 60.4523 15.5279V15.2358C60.4523 14.626 60.3846 14.0501 60.2491 13.5081C60.122 12.9577 59.9188 12.4707 59.6393 12.0473C59.3683 11.6238 59.0211 11.2936 58.5976 11.0564C58.1827 10.8108 57.6873 10.688 57.1114 10.688C56.5355 10.688 56.0358 10.8108 55.6124 11.0564C55.1974 11.2936 54.8544 11.6238 54.5834 12.0473C54.3124 12.4707 54.1134 12.9577 53.9864 13.5081C53.8594 14.0501 53.7959 14.626 53.7959 15.2358Z" fill="#737373"/>
<path d="M68.5956 11.4375V22.2479H65.5341V8.5031H68.4177L68.5956 11.4375ZM68.0493 14.8674L67.0585 14.8547C67.0669 13.8808 67.2024 12.9873 67.465 12.1743C67.736 11.3613 68.1086 10.6626 68.5828 10.0783C69.0656 9.49394 69.6414 9.0451 70.3105 8.73175C70.9795 8.40994 71.7248 8.24903 72.5462 8.24903C73.2068 8.24903 73.8039 8.34219 74.3374 8.5285C74.8794 8.70635 75.3409 8.99852 75.722 9.40502C76.1116 9.81152 76.408 10.3408 76.6113 10.9929C76.8145 11.6365 76.9161 12.4284 76.9161 13.3684V22.2479H73.842V13.3557C73.842 12.6951 73.7446 12.1743 73.5498 11.7932C73.3635 11.4037 73.0882 11.1284 72.7241 10.9675C72.3684 10.7981 71.9238 10.7134 71.3902 10.7134C70.8652 10.7134 70.3952 10.8235 69.9802 11.0437C69.5652 11.2639 69.2138 11.5646 68.9258 11.9457C68.6464 12.3267 68.4304 12.7671 68.278 13.2668C68.1255 13.7664 68.0493 14.3 68.0493 14.8674Z" fill="#737373"/>
<path d="M85.8216 8.5031V10.7389H78.0726V8.5031H85.8216ZM80.3084 5.13676H83.3698V18.4497C83.3698 18.8731 83.4291 19.1992 83.5477 19.4278C83.6747 19.648 83.8483 19.7962 84.0685 19.8724C84.2887 19.9487 84.547 19.9868 84.8434 19.9868C85.0551 19.9868 85.2584 19.9741 85.4532 19.9487C85.6479 19.9232 85.8046 19.8978 85.9232 19.8724L85.9359 22.2098C85.6818 22.286 85.3854 22.3538 85.0467 22.4131C84.7164 22.4723 84.3353 22.502 83.9034 22.502C83.2005 22.502 82.578 22.3792 82.036 22.1336C81.494 21.8795 81.0706 21.4688 80.7657 20.9014C80.4608 20.334 80.3084 19.5803 80.3084 18.6402V5.13676Z" fill="#737373"/>
<path d="M90.7382 11.1199V22.2479H87.6767V8.5031H90.5985L90.7382 11.1199ZM94.9429 8.41417L94.9175 11.2597C94.7312 11.2258 94.528 11.2004 94.3078 11.1835C94.0961 11.1665 93.8843 11.1581 93.6726 11.1581C93.1476 11.1581 92.686 11.2343 92.288 11.3867C91.8899 11.5307 91.5554 11.7424 91.2844 12.0219C91.0219 12.2929 90.8186 12.6232 90.6747 13.0127C90.5307 13.4023 90.446 13.8384 90.4206 14.3211L89.7219 14.372C89.7219 13.5081 89.8066 12.7078 89.976 11.9711C90.1454 11.2343 90.3994 10.5864 90.7382 10.0275C91.0854 9.46854 91.5173 9.03239 92.0339 8.71905C92.559 8.4057 93.1645 8.24903 93.8505 8.24903C94.0368 8.24903 94.2358 8.26597 94.4475 8.29984C94.6677 8.33372 94.8328 8.37183 94.9429 8.41417Z" fill="#737373"/>
<path d="M103.632 19.4913V12.9365C103.632 12.4453 103.543 12.0219 103.366 11.6662C103.188 11.3105 102.917 11.0353 102.553 10.8405C102.197 10.6457 101.748 10.5483 101.206 10.5483C100.706 10.5483 100.275 10.633 99.9104 10.8024C99.5462 10.9717 99.2625 11.2004 99.0593 11.4883C98.856 11.7763 98.7544 12.1023 98.7544 12.4665H95.7056C95.7056 11.9245 95.8369 11.3994 96.0994 10.8913C96.362 10.3832 96.7431 9.93008 97.2427 9.53205C97.7424 9.13402 98.3394 8.82067 99.0339 8.59202C99.7283 8.36336 100.507 8.24903 101.371 8.24903C102.404 8.24903 103.319 8.42264 104.115 8.76986C104.92 9.11708 105.551 9.64215 106.008 10.3451C106.474 11.0395 106.707 11.9118 106.707 12.9619V19.0721C106.707 19.6988 106.749 20.262 106.834 20.7617C106.927 21.2528 107.058 21.6805 107.227 22.0447V22.2479H104.09C103.946 21.9176 103.831 21.4984 103.747 20.9903C103.671 20.4737 103.632 19.9741 103.632 19.4913ZM104.077 13.8892L104.102 15.782H101.905C101.337 15.782 100.838 15.8371 100.406 15.9472C99.9739 16.0488 99.614 16.2012 99.326 16.4045C99.0381 16.6077 98.8222 16.8533 98.6782 17.1413C98.5342 17.4292 98.4622 17.7552 98.4622 18.1194C98.4622 18.4836 98.5469 18.8181 98.7163 19.1229C98.8857 19.4194 99.1313 19.6522 99.4531 19.8216C99.7834 19.991 100.181 20.0757 100.647 20.0757C101.274 20.0757 101.82 19.9487 102.286 19.6946C102.76 19.4321 103.133 19.1145 103.404 18.7418C103.675 18.3608 103.819 18.0008 103.836 17.6621L104.827 19.0213C104.725 19.3685 104.551 19.7412 104.306 20.1392C104.06 20.5372 103.738 20.9183 103.34 21.2825C102.951 21.6382 102.481 21.9303 101.93 22.159C101.388 22.3877 100.761 22.502 100.05 22.502C99.1524 22.502 98.3521 22.3241 97.6492 21.9685C96.9463 21.6043 96.3958 21.1173 95.9978 20.5076C95.5998 19.8894 95.4008 19.1907 95.4008 18.4116C95.4008 17.6833 95.5363 17.0396 95.8073 16.4807C96.0867 15.9133 96.4932 15.439 97.0268 15.0579C97.5688 14.6768 98.2293 14.3889 99.0085 14.1941C99.7876 13.9909 100.677 13.8892 101.676 13.8892H104.077Z" fill="#737373"/>
<path d="M115.002 20.063C115.502 20.063 115.951 19.9656 116.349 19.7708C116.755 19.5676 117.081 19.2881 117.327 18.9324C117.581 18.5767 117.721 18.166 117.746 17.7002H120.63C120.613 18.5894 120.35 19.3982 119.842 20.1265C119.334 20.8548 118.661 21.4349 117.822 21.8668C116.984 22.2903 116.057 22.502 115.04 22.502C113.99 22.502 113.076 22.3241 112.296 21.9685C111.517 21.6043 110.869 21.1046 110.353 20.4695C109.836 19.8343 109.447 19.1018 109.184 18.2718C108.93 17.4419 108.803 16.5527 108.803 15.6042V15.1596C108.803 14.2111 108.93 13.3218 109.184 12.4919C109.447 11.6535 109.836 10.9167 110.353 10.2815C110.869 9.64638 111.517 9.15096 112.296 8.79527C113.076 8.43111 113.986 8.24903 115.028 8.24903C116.129 8.24903 117.094 8.46922 117.924 8.9096C118.754 9.3415 119.406 9.94702 119.88 10.7262C120.363 11.4968 120.613 12.3945 120.63 13.4192H117.746C117.721 12.9111 117.594 12.4538 117.365 12.0473C117.145 11.6323 116.832 11.302 116.425 11.0564C116.027 10.8108 115.549 10.688 114.99 10.688C114.371 10.688 113.859 10.8151 113.452 11.0691C113.046 11.3147 112.728 11.6535 112.5 12.0854C112.271 12.5088 112.106 12.9873 112.004 13.5208C111.911 14.0459 111.865 14.5921 111.865 15.1596V15.6042C111.865 16.1716 111.911 16.722 112.004 17.2556C112.097 17.7891 112.258 18.2676 112.487 18.691C112.724 19.106 113.046 19.4405 113.452 19.6946C113.859 19.9402 114.376 20.063 115.002 20.063Z" fill="#737373"/>
<path d="M128.76 8.5031V10.7389H121.011V8.5031H128.76ZM123.247 5.13676H126.309V18.4497C126.309 18.8731 126.368 19.1992 126.486 19.4278C126.613 19.648 126.787 19.7962 127.007 19.8724C127.227 19.9487 127.486 19.9868 127.782 19.9868C127.994 19.9868 128.197 19.9741 128.392 19.9487C128.587 19.9232 128.743 19.8978 128.862 19.8724L128.875 22.2098C128.621 22.286 128.324 22.3538 127.985 22.4131C127.655 22.4723 127.274 22.502 126.842 22.502C126.139 22.502 125.517 22.3792 124.975 22.1336C124.433 21.8795 124.009 21.4688 123.704 20.9014C123.4 20.334 123.247 19.5803 123.247 18.6402V5.13676Z" fill="#737373"/>
</svg>
