<svg width="176" height="28" viewBox="0 0 176 28" fill="none" xmlns="http://www.w3.org/2000/svg">
<path fill-rule="evenodd" clip-rule="evenodd" d="M23.1184 13.9185C23.1184 13.793 23.0482 13.68 22.9407 13.6321C22.8332 13.5842 22.7095 13.611 22.6274 13.6999C21.3605 15.0719 18.0196 18.6904 17.15 19.6321C17.016 19.7773 16.9407 19.9738 16.9407 20.1787C16.9407 20.6691 16.9407 21.6585 16.9407 22.6856C16.9407 23.5689 17.2661 24.416 17.8453 25.0406C18.4245 25.6652 19.21 26.0161 20.0291 26.0161C20.0294 26.0161 20.0297 26.0161 20.0299 26.0161C20.849 26.0161 21.6346 25.6652 22.2138 25.0406C22.793 24.416 23.1184 23.5689 23.1184 22.6856C23.1184 19.7176 23.1184 15.5923 23.1184 13.9185ZM0 13.9185C0 13.793 0.0701436 13.68 0.177663 13.6321C0.285182 13.5842 0.408853 13.611 0.490937 13.6999C1.75781 15.0719 5.09881 18.6904 5.96836 19.6321C6.10241 19.7773 6.17765 19.9738 6.17765 20.1787C6.17765 20.6691 6.17765 21.6585 6.17765 22.6856C6.17765 23.5689 5.85227 24.416 5.27308 25.0406C4.69388 25.6652 3.90833 26.0161 3.08921 26.0161C3.08897 26.0161 3.0887 26.0161 3.08846 26.0161C2.26934 26.0161 1.4838 25.6652 0.904594 25.0406C0.325412 24.416 0 23.5689 0 22.6856C0 19.7176 0 15.5923 0 13.9185ZM0.852731 12.9203C-0.284234 11.6942 -0.284234 9.70632 0.852731 8.48024C0.85278 8.48021 0.852807 8.48016 0.852855 8.48013C1.98982 7.25405 3.83322 7.25405 4.97018 8.48013C7.52719 11.2375 11.5567 15.5829 11.5567 15.5829C11.5567 15.5829 15.598 11.2247 18.159 8.463C19.2951 7.23789 21.137 7.23789 22.2731 8.463C22.2731 8.46308 22.2732 8.46316 22.2733 8.46324C23.4092 9.68822 23.4092 11.6743 22.2733 12.8993C19.9373 15.4184 16.1409 19.5124 13.7489 22.0919C13.1666 22.7198 12.3768 23.0726 11.5533 23.0726C10.7298 23.0726 9.94002 22.7198 9.35772 22.0919C6.97044 19.5175 3.18486 15.4352 0.852731 12.9203ZM3.10321 0C4.81382 0 6.20262 1.49766 6.20262 3.34235C6.20262 5.18701 4.81382 6.68467 3.10321 6.68467C1.3926 6.68467 0.00379551 5.18701 0.00379551 3.34235C0.00379551 1.49766 1.3926 0 3.10321 0ZM20.026 0C21.7366 0 23.1254 1.49766 23.1254 3.34235C23.1254 5.18701 21.7366 6.68467 20.026 6.68467C18.3154 6.68467 16.9266 5.18701 16.9266 3.34235C16.9266 1.49766 18.3154 0 20.026 0Z" fill="#007E8C"/>
<path d="M40.0786 4.9375V22H36.8677V4.9375H40.0786ZM45.3755 4.9375V7.48047H31.6294V4.9375H45.3755ZM49.0791 11.9102V22H45.9853V9.32031H48.915L49.0791 11.9102ZM52.9346 9.23828L52.8877 12.1211C52.7158 12.0898 52.5205 12.0664 52.3017 12.0508C52.0908 12.0352 51.8916 12.0273 51.7041 12.0273C51.2275 12.0273 50.8096 12.0938 50.4502 12.2266C50.0908 12.3516 49.79 12.5352 49.5478 12.7773C49.3135 13.0195 49.1338 13.3164 49.0088 13.668C48.8838 14.0117 48.8135 14.4023 48.7978 14.8398L48.1299 14.7578C48.1299 13.9531 48.2119 13.207 48.376 12.5195C48.54 11.832 48.7783 11.2305 49.0908 10.7148C49.4033 10.1992 49.7939 9.80078 50.2627 9.51953C50.7392 9.23047 51.2861 9.08594 51.9033 9.08594C52.0752 9.08594 52.2588 9.10156 52.4541 9.13281C52.6572 9.15625 52.8174 9.19141 52.9346 9.23828ZM61.7006 18.9883V9.32031H64.8178V22H61.8881L61.7006 18.9883ZM62.0991 16.3633L63.06 16.3398C63.06 17.1914 62.9663 17.9766 62.7788 18.6953C62.5913 19.4141 62.2983 20.0391 61.8999 20.5703C61.5092 21.0938 61.0131 21.5039 60.4116 21.8008C59.81 22.0898 59.0991 22.2344 58.2788 22.2344C57.6538 22.2344 57.0835 22.1484 56.5678 21.9766C56.0522 21.7969 55.6069 21.5195 55.2319 21.1445C54.8647 20.7617 54.5796 20.2734 54.3764 19.6797C54.1733 19.0781 54.0717 18.3555 54.0717 17.5117V9.32031H57.1655V17.5352C57.1655 17.957 57.2124 18.3086 57.3061 18.5898C57.4077 18.8711 57.5444 19.1016 57.7163 19.2812C57.896 19.4531 58.103 19.5781 58.3374 19.6562C58.5796 19.7266 58.8374 19.7617 59.1108 19.7617C59.8608 19.7617 60.4506 19.6133 60.8803 19.3164C61.3178 19.0117 61.6303 18.6055 61.8178 18.0977C62.0053 17.582 62.0991 17.0039 62.0991 16.3633ZM74.0527 18.5312C74.0527 18.2656 73.9824 18.0273 73.8417 17.8164C73.7011 17.6055 73.4355 17.4141 73.0449 17.2422C72.6621 17.0625 72.0996 16.8945 71.3574 16.7383C70.7011 16.5977 70.0956 16.4219 69.541 16.2109C68.9863 16 68.5097 15.7461 68.1113 15.4492C67.7128 15.1445 67.4003 14.7891 67.1738 14.3828C66.955 13.9688 66.8456 13.4922 66.8456 12.9531C66.8456 12.4297 66.9589 11.9375 67.1855 11.4766C67.4121 11.0078 67.7402 10.5977 68.1699 10.2461C68.5996 9.88672 69.123 9.60547 69.7402 9.40234C70.3574 9.19141 71.0527 9.08594 71.8261 9.08594C72.9042 9.08594 73.83 9.26172 74.6035 9.61328C75.3847 9.96484 75.9824 10.4492 76.3964 11.0664C76.8105 11.6758 77.0175 12.3633 77.0175 13.1289H73.9238C73.9238 12.793 73.8456 12.4883 73.6894 12.2148C73.541 11.9414 73.3105 11.7227 72.998 11.5586C72.6855 11.3867 72.291 11.3008 71.8144 11.3008C71.3847 11.3008 71.0214 11.3711 70.7246 11.5117C70.4355 11.6523 70.2167 11.8359 70.0683 12.0625C69.9199 12.2891 69.8456 12.5391 69.8456 12.8125C69.8456 13.0156 69.8847 13.1992 69.9628 13.3633C70.0488 13.5195 70.1855 13.6641 70.373 13.7969C70.5605 13.9297 70.8144 14.0508 71.1347 14.1602C71.4628 14.2695 71.8652 14.375 72.3417 14.4766C73.2871 14.6641 74.1113 14.9141 74.8144 15.2266C75.5253 15.5312 76.08 15.9375 76.4785 16.4453C76.8769 16.9531 77.0761 17.6016 77.0761 18.3906C77.0761 18.9531 76.955 19.4688 76.7128 19.9375C76.4706 20.3984 76.1191 20.8008 75.6581 21.1445C75.1972 21.4883 74.6464 21.7578 74.0058 21.9531C73.3652 22.1406 72.6425 22.2344 71.8378 22.2344C70.6738 22.2344 69.6894 22.0273 68.8847 21.6133C68.08 21.1914 67.4706 20.6602 67.0566 20.0195C66.6425 19.3711 66.4355 18.6992 66.4355 18.0039H69.4003C69.4238 18.4961 69.5566 18.8906 69.7988 19.1875C70.041 19.4844 70.3456 19.6992 70.7128 19.832C71.0878 19.957 71.4824 20.0195 71.8964 20.0195C72.3652 20.0195 72.7597 19.957 73.08 19.832C73.4003 19.6992 73.6425 19.5234 73.8066 19.3047C73.9706 19.0781 74.0527 18.8203 74.0527 18.5312ZM84.9516 9.32031V11.5469H77.686V9.32031H84.9516ZM79.6313 6.20312H82.7367V18.3438C82.7367 18.7188 82.7875 19.0078 82.8891 19.2109C82.9906 19.4141 83.143 19.5508 83.3461 19.6211C83.5492 19.6914 83.7914 19.7266 84.0727 19.7266C84.2758 19.7266 84.4633 19.7148 84.6352 19.6914C84.8071 19.668 84.9516 19.6445 85.0688 19.6211L85.0805 21.9414C84.8227 22.0273 84.5297 22.0977 84.2016 22.1523C83.8813 22.207 83.518 22.2344 83.1117 22.2344C82.4164 22.2344 81.8071 22.1172 81.2836 21.8828C80.7602 21.6406 80.3539 21.2539 80.0649 20.7227C79.7758 20.1836 79.6313 19.4727 79.6313 18.5898V6.20312ZM96.7528 16.3867H99.9755C99.8895 17.5273 99.5731 18.5391 99.0263 19.4219C98.4794 20.2969 97.7177 20.9844 96.7411 21.4844C95.7645 21.9844 94.581 22.2344 93.1903 22.2344C92.12 22.2344 91.1552 22.0469 90.2958 21.6719C89.4442 21.2891 88.7138 20.7461 88.1044 20.043C87.5028 19.332 87.0419 18.4805 86.7216 17.4883C86.4013 16.4883 86.2411 15.3672 86.2411 14.125V12.8242C86.2411 11.582 86.4052 10.4609 86.7333 9.46094C87.0614 8.46094 87.5302 7.60938 88.1395 6.90625C88.7567 6.19531 89.495 5.64844 90.3544 5.26562C91.2216 4.88281 92.1903 4.69141 93.2606 4.69141C94.6513 4.69141 95.827 4.94922 96.788 5.46484C97.7489 5.97266 98.495 6.67188 99.0263 7.5625C99.5575 8.45312 99.8778 9.47656 99.9872 10.6328H96.7645C96.702 9.91406 96.5458 9.30469 96.2958 8.80469C96.0536 8.30469 95.6864 7.92578 95.1942 7.66797C94.7099 7.40234 94.0653 7.26953 93.2606 7.26953C92.6356 7.26953 92.0849 7.38672 91.6083 7.62109C91.1395 7.85547 90.7489 8.20703 90.4364 8.67578C90.1239 9.13672 89.8895 9.71484 89.7333 10.4102C89.577 11.0977 89.4989 11.8945 89.4989 12.8008V14.125C89.4989 14.9922 89.5692 15.7695 89.7099 16.457C89.8505 17.1445 90.0692 17.7266 90.3661 18.2031C90.663 18.6797 91.0458 19.043 91.5145 19.293C91.9833 19.543 92.5419 19.668 93.1903 19.668C93.9794 19.668 94.62 19.543 95.1122 19.293C95.6122 19.043 95.9911 18.6758 96.2489 18.1914C96.5145 17.707 96.6825 17.1055 96.7528 16.3867ZM101.206 15.7891V15.543C101.206 14.6133 101.339 13.7578 101.605 12.9766C101.87 12.1875 102.257 11.5039 102.765 10.9258C103.273 10.3477 103.894 9.89844 104.628 9.57812C105.363 9.25 106.199 9.08594 107.136 9.08594C108.089 9.08594 108.933 9.25 109.667 9.57812C110.41 9.89844 111.035 10.3477 111.542 10.9258C112.05 11.5039 112.437 12.1875 112.703 12.9766C112.968 13.7578 113.101 14.6133 113.101 15.543V15.7891C113.101 16.7109 112.968 17.5664 112.703 18.3555C112.437 19.1367 112.05 19.8203 111.542 20.4062C111.035 20.9844 110.413 21.4336 109.679 21.7539C108.945 22.0742 108.105 22.2344 107.16 22.2344C106.222 22.2344 105.382 22.0742 104.64 21.7539C103.898 21.4336 103.273 20.9844 102.765 20.4062C102.257 19.8203 101.87 19.1367 101.605 18.3555C101.339 17.5664 101.206 16.7109 101.206 15.7891ZM104.3 15.543V15.7891C104.3 16.3438 104.355 16.8633 104.464 17.3477C104.574 17.832 104.742 18.2578 104.968 18.625C105.195 18.9922 105.488 19.2812 105.847 19.4922C106.214 19.6953 106.652 19.7969 107.16 19.7969C107.66 19.7969 108.089 19.6953 108.449 19.4922C108.808 19.2812 109.101 18.9922 109.328 18.625C109.562 18.2578 109.734 17.832 109.843 17.3477C109.953 16.8633 110.007 16.3438 110.007 15.7891V15.543C110.007 14.9961 109.953 14.4844 109.843 14.0078C109.734 13.5234 109.562 13.0977 109.328 12.7305C109.101 12.3555 108.804 12.0625 108.437 11.8516C108.078 11.6328 107.644 11.5234 107.136 11.5234C106.636 11.5234 106.206 11.6328 105.847 11.8516C105.488 12.0625 105.195 12.3555 104.968 12.7305C104.742 13.0977 104.574 13.5234 104.464 14.0078C104.355 14.4844 104.3 14.9961 104.3 15.543ZM117.906 12.0273V22H114.812V9.32031H117.719L117.906 12.0273ZM117.414 15.2031H116.5C116.508 14.2812 116.633 13.4453 116.875 12.6953C117.117 11.9453 117.457 11.3008 117.894 10.7617C118.34 10.2227 118.867 9.80859 119.476 9.51953C120.086 9.23047 120.765 9.08594 121.515 9.08594C122.125 9.08594 122.676 9.17188 123.168 9.34375C123.66 9.51562 124.082 9.78906 124.433 10.1641C124.793 10.5391 125.066 11.0312 125.254 11.6406C125.449 12.2422 125.547 12.9844 125.547 13.8672V22H122.43V13.8438C122.43 13.2656 122.344 12.8086 122.172 12.4727C122.008 12.1367 121.765 11.8984 121.445 11.7578C121.133 11.6172 120.746 11.5469 120.285 11.5469C119.808 11.5469 119.39 11.6445 119.031 11.8398C118.68 12.0273 118.383 12.2891 118.14 12.625C117.906 12.9609 117.726 13.3477 117.601 13.7852C117.476 14.2227 117.414 14.6953 117.414 15.2031ZM133.797 9.32031V11.5469H126.532V9.32031H133.797ZM128.477 6.20312H131.582V18.3438C131.582 18.7188 131.633 19.0078 131.735 19.2109C131.836 19.4141 131.989 19.5508 132.192 19.6211C132.395 19.6914 132.637 19.7266 132.918 19.7266C133.121 19.7266 133.309 19.7148 133.481 19.6914C133.653 19.668 133.797 19.6445 133.914 19.6211L133.926 21.9414C133.668 22.0273 133.375 22.0977 133.047 22.1523C132.727 22.207 132.364 22.2344 131.957 22.2344C131.262 22.2344 130.653 22.1172 130.129 21.8828C129.606 21.6406 129.2 21.2539 128.91 20.7227C128.621 20.1836 128.477 19.4727 128.477 18.5898V6.20312ZM138.473 11.9102V22H135.38V9.32031H138.309L138.473 11.9102ZM142.329 9.23828L142.282 12.1211C142.11 12.0898 141.915 12.0664 141.696 12.0508C141.485 12.0352 141.286 12.0273 141.098 12.0273C140.622 12.0273 140.204 12.0938 139.845 12.2266C139.485 12.3516 139.184 12.5352 138.942 12.7773C138.708 13.0195 138.528 13.3164 138.403 13.668C138.278 14.0117 138.208 14.4023 138.192 14.8398L137.524 14.7578C137.524 13.9531 137.606 13.207 137.77 12.5195C137.934 11.832 138.173 11.2305 138.485 10.7148C138.798 10.1992 139.188 9.80078 139.657 9.51953C140.134 9.23047 140.68 9.08594 141.298 9.08594C141.47 9.08594 141.653 9.10156 141.848 9.13281C142.052 9.15625 142.212 9.19141 142.329 9.23828ZM150.134 19.3047V13.457C150.134 13.0273 150.06 12.6562 149.911 12.3438C149.763 12.0312 149.536 11.7891 149.232 11.6172C148.927 11.4453 148.54 11.3594 148.072 11.3594C147.658 11.3594 147.294 11.4297 146.982 11.5703C146.677 11.7109 146.443 11.9102 146.279 12.168C146.115 12.418 146.033 12.707 146.033 13.0352H142.927C142.927 12.5117 143.052 12.0156 143.302 11.5469C143.552 11.0703 143.908 10.6484 144.368 10.2812C144.837 9.90625 145.396 9.61328 146.044 9.40234C146.7 9.19141 147.435 9.08594 148.247 9.08594C149.208 9.08594 150.064 9.25 150.814 9.57812C151.572 9.89844 152.165 10.3828 152.595 11.0312C153.033 11.6797 153.251 12.4961 153.251 13.4805V19.0117C153.251 19.6445 153.29 20.1875 153.368 20.6406C153.454 21.0859 153.579 21.4727 153.743 21.8008V22H150.591C150.443 21.6797 150.329 21.2734 150.251 20.7812C150.173 20.2812 150.134 19.7891 150.134 19.3047ZM150.568 14.2773L150.591 16.1172H148.634C148.15 16.1172 147.724 16.168 147.357 16.2695C146.99 16.3633 146.689 16.5039 146.454 16.6914C146.22 16.8711 146.044 17.0898 145.927 17.3477C145.81 17.5977 145.751 17.8828 145.751 18.2031C145.751 18.5156 145.822 18.7969 145.962 19.0469C146.111 19.2969 146.322 19.4961 146.595 19.6445C146.876 19.7852 147.204 19.8555 147.579 19.8555C148.126 19.8555 148.603 19.7461 149.009 19.5273C149.415 19.3008 149.732 19.0273 149.958 18.707C150.185 18.3867 150.306 18.082 150.322 17.793L151.212 19.1289C151.103 19.4492 150.939 19.7891 150.72 20.1484C150.501 20.5078 150.22 20.8438 149.876 21.1562C149.533 21.4688 149.118 21.7266 148.634 21.9297C148.15 22.1328 147.587 22.2344 146.947 22.2344C146.126 22.2344 145.392 22.0703 144.743 21.7422C144.095 21.4141 143.583 20.9648 143.208 20.3945C142.833 19.8242 142.646 19.1758 142.646 18.4492C142.646 17.7773 142.771 17.1836 143.021 16.668C143.271 16.1523 143.642 15.7188 144.134 15.3672C144.626 15.0078 145.236 14.7383 145.962 14.5586C146.697 14.3711 147.536 14.2773 148.482 14.2773H150.568ZM160.763 19.7969C161.201 19.7969 161.592 19.7109 161.935 19.5391C162.279 19.3672 162.553 19.125 162.756 18.8125C162.967 18.5 163.08 18.1367 163.095 17.7227H166.013C165.998 18.582 165.756 19.3516 165.287 20.0312C164.818 20.7109 164.193 21.25 163.412 21.6484C162.638 22.0391 161.771 22.2344 160.81 22.2344C159.834 22.2344 158.982 22.0703 158.256 21.7422C157.529 21.4141 156.924 20.957 156.439 20.3711C155.963 19.7852 155.603 19.1055 155.361 18.332C155.127 17.5586 155.01 16.7305 155.01 15.8477V15.4727C155.01 14.5898 155.127 13.7617 155.361 12.9883C155.603 12.2148 155.963 11.5352 156.439 10.9492C156.924 10.3633 157.529 9.90625 158.256 9.57812C158.982 9.25 159.83 9.08594 160.799 9.08594C161.822 9.08594 162.72 9.28516 163.494 9.68359C164.275 10.082 164.885 10.6445 165.322 11.3711C165.767 12.0977 165.998 12.9531 166.013 13.9375H163.095C163.08 13.4844 162.978 13.0781 162.791 12.7188C162.603 12.3594 162.338 12.0703 161.994 11.8516C161.65 11.6328 161.232 11.5234 160.74 11.5234C160.217 11.5234 159.779 11.6328 159.428 11.8516C159.084 12.0703 158.814 12.3711 158.619 12.7539C158.431 13.1289 158.299 13.5508 158.22 14.0195C158.15 14.4805 158.115 14.9648 158.115 15.4727V15.8477C158.115 16.3633 158.15 16.8555 158.22 17.3242C158.299 17.793 158.431 18.2148 158.619 18.5898C158.814 18.957 159.084 19.25 159.428 19.4688C159.779 19.6875 160.224 19.7969 160.763 19.7969ZM173.596 9.32031V11.5469H166.33V9.32031H173.596ZM168.276 6.20312H171.381V18.3438C171.381 18.7188 171.432 19.0078 171.533 19.2109C171.635 19.4141 171.787 19.5508 171.99 19.6211C172.194 19.6914 172.436 19.7266 172.717 19.7266C172.92 19.7266 173.108 19.7148 173.28 19.6914C173.451 19.668 173.596 19.6445 173.713 19.6211L173.725 21.9414C173.467 22.0273 173.174 22.0977 172.846 22.1523C172.526 22.207 172.162 22.2344 171.756 22.2344C171.061 22.2344 170.451 22.1172 169.928 21.8828C169.405 21.6406 168.998 21.2539 168.709 20.7227C168.42 20.1836 168.276 19.4727 168.276 18.5898V6.20312Z" fill="#007E8C"/>
</svg>
