<svg width="27" height="26" viewBox="0 0 27 26" fill="none" xmlns="http://www.w3.org/2000/svg">
<path d="M25.3809 12.8896C25.3809 12.2803 25.2871 11.624 25.1934 10.9209H14.1309V14.9521H20.7402C20.5996 15.6553 20.3184 16.3584 19.9434 17.0146C19.3809 17.8584 18.6777 18.5615 17.834 19.0303C16.7559 19.6865 15.5371 19.9678 14.1309 19.9678C12.8184 19.9678 11.5996 19.6396 10.5215 18.9834C9.39648 18.3271 8.55273 17.4365 7.89648 16.3115C7.24023 15.1865 6.91211 13.9678 6.91211 12.6084C6.91211 11.0615 7.33398 9.65527 8.17773 8.43652C8.92773 7.31152 9.95898 6.46777 11.2715 5.90527C12.5371 5.34277 13.8496 5.15527 15.1621 5.34277C16.5684 5.53027 17.7402 6.13965 18.7715 7.07715L21.9121 4.03027C19.7559 2.01465 17.1309 0.983398 14.1309 0.983398C12.0215 0.983398 10.0996 1.5459 8.31836 2.57715C6.53711 3.6084 5.08398 5.01465 4.05273 6.7959C3.02148 8.57715 2.50586 10.5459 2.50586 12.6084C2.50586 14.7178 3.02148 16.6396 4.05273 18.4209C5.08398 20.2021 6.53711 21.6553 8.31836 22.6865C10.0996 23.7178 12.0215 24.2334 14.1309 24.2334C16.334 24.2334 18.3027 23.7646 19.9902 22.7803C21.6777 21.8428 23.0371 20.4834 23.9746 18.749C24.9121 17.0615 25.3809 15.0928 25.3809 12.8896Z" fill="#9598B0"/>
</svg>
