<svg width="26" height="26" viewBox="0 0 26 26" fill="none" xmlns="http://www.w3.org/2000/svg">
<path d="M19.8652 5.53027C20.8496 6.56152 21.5996 7.68652 22.1621 8.95215C22.7246 10.2178 23.0059 11.5303 23.0059 12.8896C23.0059 14.7646 22.4902 16.499 21.5527 18.0928C20.6152 19.6865 19.3027 20.9521 17.709 21.8896C16.1152 22.8271 14.3809 23.2959 12.5059 23.2959C10.7246 23.2959 9.03711 22.874 7.53711 22.0303L2.00586 23.4834L3.50586 18.0928C2.56836 16.499 2.09961 14.7646 2.09961 12.8896C2.09961 11.0146 2.56836 9.28027 3.50586 7.68652C4.44336 6.09277 5.70898 4.82715 7.30273 3.88965C8.89648 2.95215 10.6309 2.4834 12.5059 2.4834C13.8652 2.4834 15.1777 2.76465 16.4434 3.28027C17.709 3.84277 18.834 4.59277 19.8652 5.53027ZM12.5059 21.5615C14.0527 21.5615 15.5059 21.1865 16.8652 20.3896C18.1777 19.6396 19.2559 18.5615 20.0527 17.249C20.8496 15.9365 21.2715 14.4834 21.2715 12.8896C21.2715 11.7646 21.0371 10.6865 20.5684 9.6084C20.0996 8.57715 19.4434 7.63965 18.5996 6.7959C17.7559 5.95215 16.8184 5.34277 15.7871 4.87402C14.7559 4.45215 13.6309 4.21777 12.5059 4.21777C10.9121 4.21777 9.45898 4.63965 8.14648 5.38965C6.83398 6.18652 5.75586 7.26465 5.00586 8.57715C4.20898 9.88965 3.83398 11.3428 3.83398 12.8896C3.83398 14.5771 4.25586 16.0771 5.19336 17.4834L5.38086 17.8115L4.49023 20.999L7.77148 20.1553L8.09961 20.3428C9.41211 21.1865 10.9121 21.5615 12.5059 21.5615ZM17.2402 15.0459L17.3809 15.1396C17.5684 15.2334 17.709 15.3271 17.7559 15.374C17.7559 15.4678 17.7559 15.6084 17.7559 15.8428C17.7559 16.124 17.6621 16.3584 17.5684 16.6396C17.4746 16.9209 17.1934 17.1553 16.8184 17.4365C16.4434 17.7178 16.1152 17.8584 15.834 17.8584C15.3652 17.9521 14.9434 17.9521 14.5684 17.8584C14.0996 17.7646 13.4434 17.5771 12.6934 17.2021C11.0996 16.5459 9.64648 15.2334 8.33398 13.3584L8.24023 13.2646C7.53711 12.3271 7.20898 11.4365 7.20898 10.5928C7.20898 9.7959 7.49023 9.09277 8.05273 8.4834L8.09961 8.43652C8.28711 8.24902 8.52148 8.1084 8.80273 8.1084H9.36523C9.45898 8.1084 9.55273 8.15527 9.64648 8.20215C9.74023 8.24902 9.78711 8.34277 9.88086 8.53027L10.6777 10.4521C10.7715 10.6396 10.7715 10.8271 10.7246 10.9209C10.5371 11.249 10.3496 11.5303 10.1152 11.7646C9.97461 11.9053 9.88086 11.999 9.88086 12.0928C9.83398 12.1865 9.88086 12.2334 9.97461 12.3271C10.3965 13.1709 10.9121 13.7803 11.5215 14.249C11.9434 14.624 12.5996 14.999 13.4902 15.4209C13.7246 15.5615 13.9121 15.5615 14.0527 15.374C14.4277 14.9053 14.709 14.5771 14.8965 14.3428C14.9434 14.249 15.0371 14.1553 15.1309 14.1553C15.2246 14.1553 15.3184 14.2021 15.459 14.2021C15.6934 14.2959 16.3027 14.5771 17.2402 15.0459Z" fill="#9598B0"/>
</svg>
