<svg width="142" height="22" viewBox="0 0 142 22" fill="none" xmlns="http://www.w3.org/2000/svg">
<path fill-rule="evenodd" clip-rule="evenodd" d="M18.4814 11.1268C18.4814 11.0265 18.4254 10.9361 18.3394 10.8979C18.2535 10.8596 18.1546 10.881 18.089 10.952C17.0762 12.0489 14.4053 14.9416 13.7102 15.6945C13.603 15.8105 13.5429 15.9676 13.5429 16.1314C13.5429 16.5235 13.5429 17.3144 13.5429 18.1355C13.5429 18.8416 13.803 19.5188 14.266 20.0181C14.729 20.5175 15.357 20.798 16.0118 20.798C16.012 20.798 16.0123 20.798 16.0125 20.798C16.6673 20.798 17.2953 20.5175 17.7583 20.0181C18.2213 19.5188 18.4814 18.8416 18.4814 18.1355C18.4814 15.7628 18.4814 12.4649 18.4814 11.1268ZM0 11.1268C0 11.0265 0.0560747 10.9361 0.142028 10.8979C0.227982 10.8596 0.326848 10.881 0.392468 10.952C1.40524 12.0489 4.07612 14.9416 4.77127 15.6945C4.87843 15.8105 4.93858 15.9676 4.93858 16.1314C4.93858 16.5235 4.93858 17.3144 4.93858 18.1355C4.93858 18.8416 4.67846 19.5188 4.21545 20.0181C3.75241 20.5175 3.12443 20.798 2.4696 20.798C2.46941 20.798 2.46919 20.798 2.469 20.798C1.81417 20.798 1.18619 20.5175 0.723157 20.0181C0.260143 19.5188 0 18.8416 0 18.1355C0 15.7628 0 12.4649 0 11.1268ZM0.681697 10.3288C-0.227225 9.34866 -0.227225 7.75949 0.681697 6.77933C0.681735 6.77931 0.681757 6.77927 0.681796 6.77925C1.59072 5.79909 3.06438 5.79909 3.9733 6.77925C6.01744 8.98359 9.2387 12.4574 9.2387 12.4574C9.2387 12.4574 12.4695 8.97333 14.5168 6.76555C15.425 5.78616 16.8975 5.78616 17.8057 6.76555C17.8058 6.76562 17.8058 6.76568 17.8059 6.76574C18.714 7.74503 18.714 9.33278 17.8059 10.3121C15.9385 12.3259 12.9034 15.5988 10.9912 17.6609C10.5257 18.1629 9.89435 18.4449 9.23602 18.4449C8.57769 18.4449 7.94632 18.1629 7.48082 17.6609C5.57236 15.6028 2.54606 12.3393 0.681697 10.3288ZM2.48079 0C3.8483 0 4.95855 1.19727 4.95855 2.67196C4.95855 4.14664 3.8483 5.34391 2.48079 5.34391C1.11328 5.34391 0.00303423 4.14664 0.00303423 2.67196C0.00303423 1.19727 1.11328 0 2.48079 0ZM16.0093 0C17.3768 0 18.4871 1.19727 18.4871 2.67196C18.4871 4.14664 17.3768 5.34391 16.0093 5.34391C14.6418 5.34391 13.5316 4.14664 13.5316 2.67196C13.5316 1.19727 14.6418 0 16.0093 0Z" fill="#222222"/>
<path d="M33.6444 4.35977V18H31.0775V4.35977H33.6444ZM37.8789 4.35977V6.39269H26.8899V4.35977H37.8789ZM40.8397 9.93391V18H38.3664V7.86351H40.7085L40.8397 9.93391ZM43.9218 7.79794L43.8843 10.1025C43.7469 10.0776 43.5908 10.0588 43.4159 10.0463C43.2473 10.0338 43.088 10.0276 42.9381 10.0276C42.5572 10.0276 42.223 10.0807 41.9357 10.1868C41.6484 10.2868 41.408 10.4335 41.2144 10.6272C41.027 10.8208 40.8834 11.0581 40.7834 11.3391C40.6835 11.614 40.6273 11.9262 40.6148 12.276L40.0808 12.2104C40.0808 11.5671 40.1464 10.9707 40.2776 10.4211C40.4087 9.87145 40.5992 9.39054 40.849 8.97834C41.0988 8.56614 41.4111 8.24761 41.7858 8.02277C42.1668 7.79169 42.604 7.67615 43.0974 7.67615C43.2348 7.67615 43.3816 7.68864 43.5377 7.71362C43.7001 7.73236 43.8281 7.76046 43.9218 7.79794ZM50.9297 15.5924V7.86351H53.4216V18H51.0796L50.9297 15.5924ZM51.2482 13.4939L52.0164 13.4751C52.0164 14.1559 51.9414 14.7836 51.7916 15.3581C51.6417 15.9327 51.4075 16.4324 51.0889 16.8571C50.7767 17.2755 50.3801 17.6034 49.8992 17.8407C49.4183 18.0718 48.8499 18.1874 48.1941 18.1874C47.6945 18.1874 47.2386 18.1187 46.8264 17.9813C46.4142 17.8376 46.0582 17.6159 45.7584 17.3161C45.4648 17.0101 45.2369 16.6197 45.0745 16.1451C44.9121 15.6642 44.8309 15.0865 44.8309 14.4119V7.86351H47.3041V14.4307C47.3041 14.7679 47.3416 15.049 47.4166 15.2738C47.4978 15.4987 47.6071 15.6829 47.7445 15.8266C47.8881 15.964 48.0536 16.0639 48.241 16.1263C48.4346 16.1826 48.6407 16.2107 48.8593 16.2107C49.4588 16.2107 49.9304 16.092 50.2739 15.8547C50.6236 15.6111 50.8735 15.2863 51.0234 14.8804C51.1732 14.4682 51.2482 14.006 51.2482 13.4939ZM60.8042 15.227C60.8042 15.0146 60.748 14.8242 60.6356 14.6555C60.5232 14.4869 60.3108 14.3339 59.9985 14.1965C59.6925 14.0528 59.2428 13.9185 58.6495 13.7936C58.1249 13.6812 57.6409 13.5407 57.1974 13.3721C56.754 13.2034 56.373 13.0005 56.0545 12.7631C55.736 12.5196 55.4862 12.2354 55.305 11.9106C55.1302 11.5796 55.0427 11.1986 55.0427 10.7677C55.0427 10.3492 55.1333 9.95576 55.3144 9.58728C55.4955 9.21255 55.7578 8.88466 56.1013 8.60361C56.4448 8.31631 56.8633 8.09148 57.3567 7.92909C57.8501 7.76046 58.4059 7.67615 59.0242 7.67615C59.8861 7.67615 60.6262 7.81667 61.2445 8.09772C61.8691 8.37877 62.3469 8.76599 62.6779 9.25939C63.0089 9.74654 63.1744 10.2961 63.1744 10.9082H60.7012C60.7012 10.6396 60.6387 10.3961 60.5138 10.1775C60.3951 9.95889 60.2109 9.78401 59.9611 9.65286C59.7113 9.51546 59.3959 9.44675 59.0149 9.44675C58.6714 9.44675 58.381 9.50296 58.1436 9.61538C57.9125 9.7278 57.7377 9.87457 57.619 10.0557C57.5003 10.2368 57.441 10.4367 57.441 10.6553C57.441 10.8176 57.4722 10.9644 57.5347 11.0956C57.6034 11.2205 57.7127 11.336 57.8626 11.4422C58.0125 11.5484 58.2154 11.6452 58.4715 11.7326C58.7338 11.8201 59.0555 11.9044 59.4364 11.9856C60.1922 12.1355 60.8511 12.3353 61.4132 12.5851C61.9815 12.8287 62.4249 13.1535 62.7435 13.5594C63.062 13.9654 63.2212 14.4838 63.2212 15.1146C63.2212 15.5642 63.1244 15.9765 62.9308 16.3512C62.7372 16.7197 62.4562 17.0413 62.0877 17.3161C61.7192 17.5909 61.2789 17.8064 60.7667 17.9625C60.2546 18.1124 59.6769 18.1874 59.0336 18.1874C58.103 18.1874 57.3161 18.0219 56.6728 17.6908C56.0295 17.3536 55.5424 16.9289 55.2114 16.4168C54.8803 15.8984 54.7148 15.3613 54.7148 14.8054H57.085C57.1037 15.1989 57.2099 15.5143 57.4035 15.7516C57.5971 15.9889 57.8407 16.1607 58.1343 16.2669C58.434 16.3668 58.7494 16.4168 59.0805 16.4168C59.4552 16.4168 59.7706 16.3668 60.0266 16.2669C60.2827 16.1607 60.4763 16.0202 60.6075 15.8453C60.7386 15.6642 60.8042 15.4581 60.8042 15.227ZM69.5171 7.86351V9.64349H63.7088V7.86351H69.5171ZM65.2639 5.37155H67.7465V15.0771C67.7465 15.3769 67.7871 15.608 67.8683 15.7703C67.9495 15.9327 68.0713 16.042 68.2336 16.0982C68.396 16.1544 68.5896 16.1826 68.8145 16.1826C68.9769 16.1826 69.1268 16.1732 69.2642 16.1544C69.4016 16.1357 69.5171 16.117 69.6108 16.0982L69.6201 17.9532C69.414 18.0219 69.1798 18.0781 68.9175 18.1218C68.6615 18.1655 68.371 18.1874 68.0463 18.1874C67.4904 18.1874 67.0033 18.0937 66.5848 17.9063C66.1664 17.7127 65.8416 17.4036 65.6105 16.9789C65.3794 16.5479 65.2639 15.9796 65.2639 15.2738V5.37155ZM78.9513 13.5126H81.5276C81.4589 14.4244 81.206 15.2332 80.7688 15.939C80.3316 16.6385 79.7227 17.1881 78.942 17.5878C78.1613 17.9875 77.2151 18.1874 76.1034 18.1874C75.2477 18.1874 74.4764 18.0375 73.7894 17.7377C73.1086 17.4317 72.5247 16.9976 72.0375 16.4355C71.5566 15.8672 71.1882 15.1864 70.9321 14.3932C70.676 13.5938 70.548 12.6975 70.548 11.7045V10.6646C70.548 9.67159 70.6791 8.77536 70.9415 7.97593C71.2038 7.17651 71.5785 6.49574 72.0656 5.93365C72.559 5.3653 73.1492 4.92812 73.8363 4.62209C74.5295 4.31606 75.304 4.16304 76.1596 4.16304C77.2713 4.16304 78.2112 4.36914 78.9794 4.78135C79.7476 5.18731 80.3441 5.74628 80.7688 6.45827C81.1935 7.17026 81.4495 7.98842 81.537 8.91276H78.9607C78.9107 8.33817 78.7858 7.85102 78.586 7.45131C78.3924 7.0516 78.0988 6.74869 77.7054 6.54259C77.3181 6.33024 76.8029 6.22406 76.1596 6.22406C75.6599 6.22406 75.2196 6.31775 74.8387 6.50511C74.4639 6.69248 74.1517 6.97353 73.9018 7.34826C73.652 7.71674 73.4646 8.17891 73.3397 8.73476C73.2148 9.28437 73.1524 9.92141 73.1524 10.6459V11.7045C73.1524 12.3978 73.2086 13.0192 73.321 13.5688C73.4334 14.1184 73.6083 14.5837 73.8456 14.9647C74.083 15.3457 74.389 15.6361 74.7637 15.8359C75.1384 16.0358 75.585 16.1357 76.1034 16.1357C76.7342 16.1357 77.2463 16.0358 77.6398 15.8359C78.0395 15.6361 78.3424 15.3425 78.5485 14.9553C78.7608 14.5681 78.8951 14.0872 78.9513 13.5126ZM82.5117 13.0348V12.8381C82.5117 12.0949 82.6178 11.411 82.8302 10.7864C83.0425 10.1556 83.3517 9.60914 83.7576 9.14697C84.1636 8.6848 84.6601 8.32568 85.2472 8.06962C85.8343 7.8073 86.5026 7.67615 87.252 7.67615C88.014 7.67615 88.6885 7.8073 89.2756 8.06962C89.8689 8.32568 90.3685 8.6848 90.7745 9.14697C91.1805 9.60914 91.4896 10.1556 91.702 10.7864C91.9143 11.411 92.0205 12.0949 92.0205 12.8381V13.0348C92.0205 13.7718 91.9143 14.4557 91.702 15.0865C91.4896 15.711 91.1805 16.2575 90.7745 16.7259C90.3685 17.1881 89.872 17.5472 89.2849 17.8033C88.6979 18.0593 88.0265 18.1874 87.2708 18.1874C86.5213 18.1874 85.8499 18.0593 85.2566 17.8033C84.6632 17.5472 84.1636 17.1881 83.7576 16.7259C83.3517 16.2575 83.0425 15.711 82.8302 15.0865C82.6178 14.4557 82.5117 13.7718 82.5117 13.0348ZM84.9849 12.8381V13.0348C84.9849 13.4782 85.0286 13.8936 85.116 14.2808C85.2035 14.668 85.3378 15.0084 85.5189 15.3019C85.7 15.5955 85.9342 15.8266 86.2215 15.9952C86.515 16.1576 86.8648 16.2388 87.2708 16.2388C87.6705 16.2388 88.014 16.1576 88.3013 15.9952C88.5886 15.8266 88.8228 15.5955 89.0039 15.3019C89.1913 15.0084 89.3287 14.668 89.4161 14.2808C89.5035 13.8936 89.5472 13.4782 89.5472 13.0348V12.8381C89.5472 12.4009 89.5035 11.9918 89.4161 11.6108C89.3287 11.2236 89.1913 10.8832 89.0039 10.5897C88.8228 10.2899 88.5854 10.0557 88.2919 9.88706C88.0046 9.71219 87.658 9.62475 87.252 9.62475C86.8523 9.62475 86.5088 9.71219 86.2215 9.88706C85.9342 10.0557 85.7 10.2899 85.5189 10.5897C85.3378 10.8832 85.2035 11.2236 85.116 11.6108C85.0286 11.9918 84.9849 12.4009 84.9849 12.8381ZM95.8618 10.0276V18H93.3886V7.86351H95.712L95.8618 10.0276ZM95.4684 12.5664H94.7377C94.7439 11.8294 94.8438 11.1612 95.0374 10.5616C95.231 9.96201 95.5027 9.44675 95.8525 9.01581C96.2085 8.58487 96.63 8.25386 97.1172 8.02277C97.6043 7.79169 98.1477 7.67615 98.7473 7.67615C99.2344 7.67615 99.6747 7.74485 100.068 7.88225C100.462 8.01965 100.799 8.23825 101.08 8.53803C101.367 8.83782 101.586 9.23128 101.736 9.71843C101.892 10.1993 101.97 10.7927 101.97 11.4984V18H99.478V11.4797C99.478 11.0175 99.4093 10.6521 99.2719 10.3836C99.1407 10.115 98.9471 9.92454 98.6911 9.81212C98.4412 9.6997 98.1321 9.64349 97.7636 9.64349C97.3826 9.64349 97.0485 9.72156 96.7612 9.8777C96.4802 10.0276 96.2428 10.2368 96.0492 10.5054C95.8618 10.7739 95.7182 11.0831 95.6183 11.4328C95.5183 11.7826 95.4684 12.1604 95.4684 12.5664ZM108.566 7.86351V9.64349H102.757V7.86351H108.566ZM104.312 5.37155H106.795V15.0771C106.795 15.3769 106.836 15.608 106.917 15.7703C106.998 15.9327 107.12 16.042 107.282 16.0982C107.445 16.1544 107.638 16.1826 107.863 16.1826C108.025 16.1826 108.175 16.1732 108.313 16.1544C108.45 16.1357 108.566 16.117 108.659 16.0982L108.669 17.9532C108.463 18.0219 108.228 18.0781 107.966 18.1218C107.71 18.1655 107.42 18.1874 107.095 18.1874C106.539 18.1874 106.052 18.0937 105.633 17.9063C105.215 17.7127 104.89 17.4036 104.659 16.9789C104.428 16.5479 104.312 15.9796 104.312 15.2738V5.37155ZM112.304 9.93391V18H109.831V7.86351H112.173L112.304 9.93391ZM115.386 7.79794L115.349 10.1025C115.211 10.0776 115.055 10.0588 114.88 10.0463C114.712 10.0338 114.552 10.0276 114.402 10.0276C114.021 10.0276 113.687 10.0807 113.4 10.1868C113.113 10.2868 112.872 10.4335 112.679 10.6272C112.491 10.8208 112.348 11.0581 112.248 11.3391C112.148 11.614 112.092 11.9262 112.079 12.276L111.545 12.2104C111.545 11.5671 111.611 10.9707 111.742 10.4211C111.873 9.87145 112.063 9.39054 112.313 8.97834C112.563 8.56614 112.875 8.24761 113.25 8.02277C113.631 7.79169 114.068 7.67615 114.562 7.67615C114.699 7.67615 114.846 7.68864 115.002 7.71362C115.164 7.73236 115.292 7.76046 115.386 7.79794ZM121.626 15.8453V11.1705C121.626 10.827 121.566 10.5304 121.448 10.2805C121.329 10.0307 121.148 9.8371 120.904 9.6997C120.661 9.5623 120.352 9.4936 119.977 9.4936C119.646 9.4936 119.356 9.54981 119.106 9.66223C118.862 9.77464 118.675 9.93391 118.544 10.14C118.412 10.3399 118.347 10.5709 118.347 10.8333H115.864C115.864 10.4148 115.964 10.0182 116.164 9.64349C116.364 9.26251 116.648 8.92525 117.017 8.63171C117.391 8.33193 117.838 8.09772 118.356 7.92909C118.881 7.76046 119.468 7.67615 120.117 7.67615C120.886 7.67615 121.57 7.8073 122.169 8.06962C122.775 8.32568 123.25 8.71291 123.593 9.23128C123.943 9.74966 124.118 10.4023 124.118 11.1893V15.6111C124.118 16.117 124.149 16.551 124.211 16.9133C124.28 17.2693 124.38 17.5784 124.511 17.8407V18H121.991C121.872 17.7439 121.782 17.4192 121.719 17.0257C121.657 16.626 121.626 16.2325 121.626 15.8453ZM121.972 11.8263L121.991 13.2971H120.427C120.039 13.2971 119.699 13.3377 119.405 13.4189C119.112 13.4939 118.871 13.6063 118.684 13.7562C118.497 13.8998 118.356 14.0747 118.263 14.2808C118.169 14.4806 118.122 14.7086 118.122 14.9647C118.122 15.2145 118.178 15.4393 118.291 15.6392C118.409 15.839 118.578 15.9983 118.797 16.117C119.021 16.2294 119.284 16.2856 119.583 16.2856C120.021 16.2856 120.402 16.1982 120.726 16.0233C121.051 15.8422 121.304 15.6236 121.485 15.3675C121.666 15.1114 121.763 14.8679 121.776 14.6368L122.488 15.7048C122.4 15.9608 122.269 16.2325 122.094 16.5198C121.919 16.8071 121.694 17.0757 121.42 17.3255C121.145 17.5753 120.814 17.7814 120.427 17.9438C120.039 18.1062 119.59 18.1874 119.078 18.1874C118.422 18.1874 117.835 18.0562 117.316 17.7939C116.798 17.5316 116.389 17.1725 116.089 16.7165C115.789 16.2606 115.639 15.7422 115.639 15.1614C115.639 14.6243 115.739 14.1496 115.939 13.7374C116.139 13.3252 116.436 12.9786 116.829 12.6975C117.223 12.4103 117.71 12.1948 118.291 12.0511C118.878 11.9012 119.549 11.8263 120.305 11.8263H121.972ZM130.123 16.2388C130.473 16.2388 130.785 16.1701 131.06 16.0327C131.335 15.8953 131.553 15.7016 131.716 15.4518C131.884 15.202 131.975 14.9116 131.987 14.5806H134.32C134.308 15.2676 134.114 15.8828 133.739 16.4261C133.365 16.9695 132.865 17.4004 132.24 17.719C131.622 18.0312 130.929 18.1874 130.161 18.1874C129.38 18.1874 128.699 18.0562 128.118 17.7939C127.538 17.5316 127.053 17.1662 126.666 16.6978C126.285 16.2294 125.998 15.686 125.804 15.0677C125.617 14.4494 125.523 13.7874 125.523 13.0816V12.7819C125.523 12.0761 125.617 11.4141 125.804 10.7958C125.998 10.1775 126.285 9.63412 126.666 9.16571C127.053 8.69729 127.538 8.33193 128.118 8.06962C128.699 7.8073 129.377 7.67615 130.151 7.67615C130.969 7.67615 131.688 7.83541 132.306 8.15393C132.931 8.47245 133.418 8.92213 133.767 9.50296C134.123 10.0838 134.308 10.7677 134.32 11.5546H131.987C131.975 11.1924 131.894 10.8676 131.744 10.5803C131.594 10.293 131.382 10.0619 131.107 9.88706C130.832 9.71219 130.498 9.62475 130.104 9.62475C129.686 9.62475 129.336 9.71219 129.055 9.88706C128.78 10.0619 128.565 10.3024 128.409 10.6084C128.259 10.9082 128.153 11.2455 128.09 11.6202C128.034 11.9887 128.006 12.3759 128.006 12.7819V13.0816C128.006 13.4939 128.034 13.8873 128.09 14.2621C128.153 14.6368 128.259 14.974 128.409 15.2738C128.565 15.5674 128.78 15.8016 129.055 15.9765C129.336 16.1513 129.692 16.2388 130.123 16.2388ZM140.382 7.86351V9.64349H134.573V7.86351H140.382ZM136.129 5.37155H138.611V15.0771C138.611 15.3769 138.652 15.608 138.733 15.7703C138.814 15.9327 138.936 16.042 139.098 16.0982C139.261 16.1544 139.454 16.1826 139.679 16.1826C139.842 16.1826 139.991 16.1732 140.129 16.1544C140.266 16.1357 140.382 16.117 140.476 16.0982L140.485 17.9532C140.279 18.0219 140.045 18.0781 139.782 18.1218C139.526 18.1655 139.236 18.1874 138.911 18.1874C138.355 18.1874 137.868 18.0937 137.45 17.9063C137.031 17.7127 136.706 17.4036 136.475 16.9789C136.244 16.5479 136.129 15.9796 136.129 15.2738V5.37155Z" fill="#222222"/>
</svg>
