<svg width="70" height="16" viewBox="0 0 70 16" fill="none" xmlns="http://www.w3.org/2000/svg">
<path fill-rule="evenodd" clip-rule="evenodd" d="M13.3775 8.05397C13.3775 7.98138 13.3369 7.91596 13.2747 7.88826C13.2125 7.86055 13.1409 7.87603 13.0934 7.92747C12.3604 8.72142 10.4271 10.8152 9.9239 11.3602C9.84634 11.4442 9.8028 11.5579 9.8028 11.6765C9.8028 11.9603 9.8028 12.5328 9.8028 13.1271C9.8028 13.6382 9.99109 14.1284 10.3262 14.4898C10.6614 14.8513 11.116 15.0543 11.5899 15.0543C11.5901 15.0543 11.5902 15.0543 11.5904 15.0543C12.0644 15.0543 12.5189 14.8513 12.8541 14.4898C13.1892 14.1284 13.3775 13.6382 13.3775 13.1271C13.3775 11.4096 13.3775 9.02254 13.3775 8.05397ZM0 8.05397C0 7.98138 0.0405888 7.91596 0.102805 7.88826C0.165021 7.86055 0.236584 7.87603 0.284082 7.92747C1.01716 8.72142 2.95044 10.8152 3.45362 11.3602C3.53118 11.4442 3.57472 11.5579 3.57472 11.6765C3.57472 11.9603 3.57472 12.5328 3.57472 13.1271C3.57472 13.6382 3.38643 14.1284 3.05129 14.4898C2.71613 14.8513 2.26157 15.0543 1.78758 15.0543C1.78744 15.0543 1.78729 15.0543 1.78715 15.0543C1.31316 15.0543 0.858606 14.8513 0.523446 14.4898C0.188301 14.1284 0 13.6382 0 13.1271C0 11.4096 0 9.02254 0 8.05397ZM0.493436 7.47637C-0.164473 6.76689 -0.164473 5.6166 0.493436 4.90712C0.493464 4.9071 0.49348 4.90707 0.493508 4.90706C1.15142 4.19758 2.2181 4.19758 2.87601 4.90706C4.35563 6.50264 6.6873 9.01707 6.6873 9.01707C6.6873 9.01707 9.02586 6.49521 10.5078 4.89715C11.1652 4.18823 12.231 4.18823 12.8884 4.89715C12.8884 4.89719 12.8885 4.89724 12.8885 4.89728C13.5458 5.60612 13.5458 6.75539 12.8885 7.46425C11.5368 8.92189 9.33996 11.2909 7.95584 12.7836C7.61889 13.1469 7.16188 13.351 6.68535 13.351C6.20883 13.351 5.75183 13.1469 5.41488 12.7836C4.03347 11.2939 1.84293 8.93163 0.493436 7.47637ZM1.79568 0C2.78554 0 3.58917 0.866625 3.58917 1.93406C3.58917 3.00148 2.78554 3.86811 1.79568 3.86811C0.805834 3.86811 0.00219628 3.00148 0.00219628 1.93406C0.00219628 0.866625 0.805834 0 1.79568 0ZM11.5881 0C12.578 0 13.3816 0.866625 13.3816 1.93406C13.3816 3.00148 12.578 3.86811 11.5881 3.86811C10.5983 3.86811 9.79463 3.00148 9.79463 1.93406C9.79463 0.866625 10.5983 0 11.5881 0Z" fill="#737373"/>
<path d="M23.1915 3.12673V13H21.3335V3.12673H23.1915ZM26.2566 3.12673V4.59822H18.3023V3.12673H26.2566ZM28.3997 7.16148V13H26.6094V5.66286H28.3047L28.3997 7.16148ZM30.6306 5.61539L30.6035 7.28354C30.5041 7.26545 30.391 7.25189 30.2645 7.24285C30.1424 7.23381 30.0271 7.22929 29.9186 7.22929C29.6429 7.22929 29.401 7.26771 29.193 7.34457C28.9851 7.4169 28.811 7.52314 28.6709 7.66328C28.5353 7.80342 28.4313 7.97521 28.359 8.17864C28.2866 8.37755 28.2459 8.60359 28.2369 8.85675L27.8504 8.80928C27.8504 8.34365 27.8978 7.91192 27.9928 7.51409C28.0877 7.11627 28.2256 6.76817 28.4064 6.46981C28.5873 6.17144 28.8133 5.94088 29.0845 5.77813C29.3603 5.61087 29.6768 5.52723 30.0339 5.52723C30.1334 5.52723 30.2396 5.53628 30.3526 5.55436C30.4701 5.56792 30.5628 5.58826 30.6306 5.61539ZM35.7032 11.2573V5.66286H37.5069V13H35.8117L35.7032 11.2573ZM35.9337 9.73829L36.4898 9.72473C36.4898 10.2175 36.4355 10.6718 36.327 11.0877C36.2185 11.5036 36.049 11.8653 35.8184 12.1727C35.5924 12.4756 35.3053 12.7129 34.9572 12.8847C34.6091 13.052 34.1978 13.1356 33.7231 13.1356C33.3614 13.1356 33.0314 13.0859 32.733 12.9864C32.4347 12.8825 32.177 12.722 31.96 12.505C31.7475 12.2835 31.5825 12.0009 31.465 11.6573C31.3474 11.3092 31.2887 10.8911 31.2887 10.4028V5.66286H33.0789V10.4164C33.0789 10.6605 33.106 10.864 33.1603 11.0267C33.219 11.1894 33.2981 11.3228 33.3976 11.4268C33.5016 11.5262 33.6214 11.5986 33.757 11.6438C33.8971 11.6845 34.0463 11.7048 34.2045 11.7048C34.6385 11.7048 34.9798 11.6189 35.2285 11.4471C35.4816 11.2708 35.6625 11.0357 35.771 10.7419C35.8795 10.4435 35.9337 10.109 35.9337 9.73829ZM42.8507 10.9928C42.8507 10.8391 42.81 10.7012 42.7286 10.5791C42.6473 10.4571 42.4936 10.3463 42.2675 10.2469C42.046 10.1429 41.7205 10.0457 41.2911 9.95529C40.9113 9.87392 40.561 9.7722 40.24 9.65014C39.919 9.52808 39.6432 9.38116 39.4127 9.20937C39.1821 9.03306 39.0013 8.82737 38.8702 8.59229C38.7436 8.35269 38.6803 8.07693 38.6803 7.76499C38.6803 7.46211 38.7459 7.1773 38.877 6.91058C39.0081 6.63933 39.198 6.40199 39.4466 6.19856C39.6952 5.99061 39.9981 5.82786 40.3553 5.71032C40.7124 5.58826 41.1147 5.52723 41.5623 5.52723C42.1862 5.52723 42.7219 5.62895 43.1694 5.83238C43.6215 6.03582 43.9673 6.3161 44.2069 6.67324C44.4465 7.02586 44.5663 7.42368 44.5663 7.86671H42.7761C42.7761 7.67232 42.7309 7.49601 42.6405 7.33779C42.5546 7.17956 42.4212 7.05298 42.2404 6.95804C42.0596 6.85859 41.8313 6.80886 41.5555 6.80886C41.3069 6.80886 41.0967 6.84955 40.9249 6.93092C40.7576 7.01229 40.631 7.11853 40.5451 7.24963C40.4592 7.38073 40.4163 7.5254 40.4163 7.68362C40.4163 7.80116 40.4389 7.9074 40.4841 8.00233C40.5338 8.09275 40.6129 8.17638 40.7214 8.25323C40.8299 8.33009 40.9769 8.40016 41.1622 8.46345C41.3521 8.52674 41.5849 8.58777 41.8607 8.64654C42.4077 8.75503 42.8846 8.8997 43.2915 9.08053C43.7029 9.25684 44.0238 9.49191 44.2544 9.78576C44.485 10.0796 44.6002 10.4548 44.6002 10.9114C44.6002 11.2369 44.5302 11.5353 44.39 11.8065C44.2499 12.0733 44.0464 12.3061 43.7797 12.505C43.513 12.7039 43.1943 12.8599 42.8236 12.9729C42.4529 13.0814 42.0347 13.1356 41.5691 13.1356C40.8955 13.1356 40.3259 13.0158 39.8602 12.7762C39.3946 12.5321 39.042 12.2247 38.8024 11.854C38.5628 11.4788 38.443 11.09 38.443 10.6876H40.1586C40.1722 10.9725 40.249 11.2007 40.3892 11.3725C40.5293 11.5443 40.7056 11.6686 40.9181 11.7455C41.1351 11.8178 41.3634 11.854 41.603 11.854C41.8742 11.854 42.1025 11.8178 42.2879 11.7455C42.4732 11.6686 42.6134 11.5669 42.7083 11.4403C42.8032 11.3092 42.8507 11.1601 42.8507 10.9928ZM49.1574 5.66286V6.95126H44.9531V5.66286H49.1574ZM46.0788 3.85908H47.8758V10.8843C47.8758 11.1013 47.9052 11.2686 47.9639 11.3861C48.0227 11.5036 48.1108 11.5828 48.2284 11.6234C48.3459 11.6641 48.4861 11.6845 48.6488 11.6845C48.7664 11.6845 48.8748 11.6777 48.9743 11.6641C49.0738 11.6506 49.1574 11.637 49.2252 11.6234L49.232 12.9661C49.0828 13.0158 48.9133 13.0565 48.7234 13.0882C48.5381 13.1198 48.3278 13.1356 48.0928 13.1356C47.6904 13.1356 47.3378 13.0678 47.0349 12.9322C46.732 12.792 46.4969 12.5683 46.3297 12.2609C46.1624 11.9489 46.0788 11.5375 46.0788 11.0267V3.85908ZM51.0225 3.12673H52.6364L55.3352 10.5588L58.0273 3.12673H59.648L55.9794 13H54.6843L51.0225 3.12673ZM50.2087 3.12673H51.7887L52.0735 9.95529V13H50.2087V3.12673ZM58.875 3.12673H60.4618V13H58.597V9.95529L58.875 3.12673ZM65.2427 13.1356C64.6866 13.1356 64.1871 13.0452 63.7441 12.8644C63.301 12.6835 62.9236 12.4326 62.6116 12.1117C62.3042 11.7862 62.0669 11.4087 61.8996 10.9792C61.7369 10.5452 61.6555 10.0796 61.6555 9.58233V9.31108C61.6555 8.74599 61.7369 8.23289 61.8996 7.77178C62.0624 7.30614 62.2929 6.90606 62.5913 6.57152C62.8897 6.23699 63.2468 5.97931 63.6627 5.79848C64.0786 5.61765 64.5375 5.52723 65.0393 5.52723C65.5591 5.52723 66.018 5.61539 66.4158 5.7917C66.8136 5.96348 67.1459 6.2076 67.4126 6.52405C67.6794 6.84051 67.8805 7.22025 68.0162 7.66328C68.1518 8.10179 68.2196 8.58777 68.2196 9.12121V9.87392H62.4692V8.63976H66.4565V8.50413C66.4475 8.21933 66.3932 7.95939 66.2938 7.72431C66.1943 7.48471 66.0406 7.29484 65.8327 7.1547C65.6247 7.01003 65.3557 6.9377 65.0257 6.9377C64.759 6.9377 64.5262 6.99647 64.3272 7.11401C64.1329 7.22703 63.9701 7.38977 63.839 7.60225C63.7124 7.8102 63.6175 8.05884 63.5542 8.34817C63.4909 8.6375 63.4593 8.95847 63.4593 9.31108V9.58233C63.4593 9.88974 63.5 10.1745 63.5813 10.4367C63.6672 10.6989 63.7915 10.9272 63.9543 11.1216C64.1216 11.3115 64.3205 11.4607 64.551 11.5692C64.7861 11.6732 65.0528 11.7252 65.3512 11.7252C65.7264 11.7252 66.0655 11.6528 66.3684 11.5082C66.6758 11.359 66.9425 11.1397 67.1685 10.8504L68.0704 11.7862C67.9167 12.0122 67.7088 12.2292 67.4466 12.4372C67.1889 12.6451 66.8769 12.8147 66.5108 12.9458C66.1446 13.0723 65.7219 13.1356 65.2427 13.1356Z" fill="#737373"/>
</svg>
