<svg width="320" height="309" viewBox="0 0 320 309" fill="none" xmlns="http://www.w3.org/2000/svg">
<ellipse cx="165.986" cy="154.5" rx="125.412" ry="124.935" fill="url(#paint0_linear_675_17515)"/>
<path d="M320.725 154.5C320.725 239.696 251.447 308.762 165.986 308.762C80.5258 308.762 11.2477 239.696 11.2477 154.5C11.2477 69.3044 80.5258 0.238426 165.986 0.238426C251.447 0.238426 320.725 69.3044 320.725 154.5Z" stroke="url(#paint1_linear_675_17515)" stroke-width="0.476852"/>
<g filter="url(#filter0_b_675_17515)">
<circle cx="272.086" cy="40.771" r="12.1597" fill="#22EABE" fill-opacity="0.01"/>
</g>
<g filter="url(#filter1_b_675_17515)">
<circle cx="286.391" cy="97.9928" r="20.2662" fill="#22EABE" fill-opacity="0.01"/>
</g>
<g filter="url(#filter2_b_675_17515)">
<circle cx="67.5162" cy="240.572" r="12.1597" fill="#22EABE" fill-opacity="0.01"/>
</g>
<g filter="url(#filter3_b_675_17515)">
<path opacity="0.3" d="M-11.1399 119.827C-11.4518 118.663 -11.1081 117.422 -10.2421 116.584L8.85345 98.1083C9.67735 97.3112 10.8544 96.9958 11.9665 97.2742L37.7414 103.727C38.9104 104.019 39.8288 104.923 40.1407 106.087L44.1243 120.954C47.2431 132.593 43.8063 145.009 35.1461 153.388L28.6788 159.645C27.8549 160.443 26.6779 160.758 25.5658 160.48L16.8362 158.294C5.14672 155.368 -4.03741 146.334 -7.15624 134.694L-11.1399 119.827Z" fill="url(#paint2_linear_675_17515)"/>
<path d="M10.7532 131.024L18.8808 135.717L28.2658 119.462" stroke="url(#paint3_linear_675_17515)" stroke-width="4.97714" stroke-linecap="round" stroke-linejoin="round"/>
</g>
<g filter="url(#filter4_b_675_17515)">
<path opacity="0.3" d="M305.998 170.362C306.301 169.887 306.837 169.614 307.399 169.649L319.786 170.403C320.321 170.435 320.801 170.741 321.055 171.212L326.959 182.128C327.227 182.623 327.205 183.225 326.902 183.699L323.036 189.76C320.009 194.504 314.647 197.235 309.029 196.893L304.834 196.637C304.299 196.605 303.819 196.299 303.565 195.828L301.565 192.131C298.888 187.18 299.105 181.167 302.132 176.422L305.998 170.362Z" fill="url(#paint4_linear_675_17515)"/>
<path d="M309.044 181.435L309.99 185.715L318.55 183.823" stroke="url(#paint5_linear_675_17515)" stroke-width="2.32465" stroke-linecap="round" stroke-linejoin="round"/>
</g>
<defs>
<filter id="filter0_b_675_17515" x="221.778" y="-9.53682" width="100.616" height="100.617" filterUnits="userSpaceOnUse" color-interpolation-filters="sRGB">
<feFlood flood-opacity="0" result="BackgroundImageFix"/>
<feGaussianBlur in="BackgroundImageFix" stdDeviation="19.0741"/>
<feComposite in2="SourceAlpha" operator="in" result="effect1_backgroundBlur_675_17515"/>
<feBlend mode="normal" in="SourceGraphic" in2="effect1_backgroundBlur_675_17515" result="shape"/>
</filter>
<filter id="filter1_b_675_17515" x="227.977" y="39.5784" width="116.829" height="116.829" filterUnits="userSpaceOnUse" color-interpolation-filters="sRGB">
<feFlood flood-opacity="0" result="BackgroundImageFix"/>
<feGaussianBlur in="BackgroundImageFix" stdDeviation="19.0741"/>
<feComposite in2="SourceAlpha" operator="in" result="effect1_backgroundBlur_675_17515"/>
<feBlend mode="normal" in="SourceGraphic" in2="effect1_backgroundBlur_675_17515" result="shape"/>
</filter>
<filter id="filter2_b_675_17515" x="17.2083" y="190.264" width="100.616" height="100.617" filterUnits="userSpaceOnUse" color-interpolation-filters="sRGB">
<feFlood flood-opacity="0" result="BackgroundImageFix"/>
<feGaussianBlur in="BackgroundImageFix" stdDeviation="19.0741"/>
<feComposite in2="SourceAlpha" operator="in" result="effect1_backgroundBlur_675_17515"/>
<feBlend mode="normal" in="SourceGraphic" in2="effect1_backgroundBlur_675_17515" result="shape"/>
</filter>
<filter id="filter3_b_675_17515" x="-37.1528" y="72.9586" width="111.837" height="111.837" filterUnits="userSpaceOnUse" color-interpolation-filters="sRGB">
<feFlood flood-opacity="0" result="BackgroundImageFix"/>
<feGaussianBlur in="BackgroundImageFix" stdDeviation="3.57639"/>
<feComposite in2="SourceAlpha" operator="in" result="effect1_backgroundBlur_675_17515"/>
<feBlend mode="normal" in="SourceGraphic" in2="effect1_backgroundBlur_675_17515" result="shape"/>
</filter>
<filter id="filter4_b_675_17515" x="283.289" y="154.497" width="58.0435" height="58.043" filterUnits="userSpaceOnUse" color-interpolation-filters="sRGB">
<feFlood flood-opacity="0" result="BackgroundImageFix"/>
<feGaussianBlur in="BackgroundImageFix" stdDeviation="1.67041"/>
<feComposite in2="SourceAlpha" operator="in" result="effect1_backgroundBlur_675_17515"/>
<feBlend mode="normal" in="SourceGraphic" in2="effect1_backgroundBlur_675_17515" result="shape"/>
</filter>
<linearGradient id="paint0_linear_675_17515" x1="280.171" y1="339.489" x2="13.6248" y2="123.583" gradientUnits="userSpaceOnUse">
<stop stop-color="#28F5D0"/>
<stop offset="1" stop-color="#15D49B"/>
</linearGradient>
<linearGradient id="paint1_linear_675_17515" x1="307.088" y1="383.266" x2="-22.4832" y2="116.502" gradientUnits="userSpaceOnUse">
<stop stop-color="#28F5D0"/>
<stop offset="1" stop-color="#15D49B"/>
</linearGradient>
<linearGradient id="paint2_linear_675_17515" x1="54.6438" y1="169.395" x2="-19.5966" y2="144.952" gradientUnits="userSpaceOnUse">
<stop stop-color="#28F5D0"/>
<stop offset="1" stop-color="#15D49B"/>
</linearGradient>
<linearGradient id="paint3_linear_675_17515" x1="22.7576" y1="111.072" x2="32.1937" y2="123.138" gradientUnits="userSpaceOnUse">
<stop stop-color="#28F5D0"/>
<stop offset="1" stop-color="#15D49B"/>
</linearGradient>
<linearGradient id="paint4_linear_675_17515" x1="309.661" y1="208.658" x2="294.675" y2="175.37" gradientUnits="userSpaceOnUse">
<stop stop-color="#28F5D0"/>
<stop offset="1" stop-color="#15D49B"/>
</linearGradient>
<linearGradient id="paint5_linear_675_17515" x1="319.704" y1="179.28" x2="318.522" y2="186.336" gradientUnits="userSpaceOnUse">
<stop stop-color="#28F5D0"/>
<stop offset="1" stop-color="#15D49B"/>
</linearGradient>
</defs>
</svg>
