<svg width="22" height="22" viewBox="0 0 22 22" fill="none" xmlns="http://www.w3.org/2000/svg">
<path d="M18.687 3.59375C16.7651 1.625 14.1401 0.5 11.3276 0.5C5.60889 0.5 0.921387 5.1875 0.921387 10.9062C0.921387 12.7812 1.43701 14.5625 2.32764 16.1094L0.874512 21.5L6.35889 20.0938C7.90576 20.8906 9.59326 21.3594 11.3276 21.3594C17.0933 21.3594 21.8745 16.6719 21.8745 10.9531C21.8745 8.14062 20.6558 5.5625 18.687 3.59375ZM11.3276 19.5781C9.78076 19.5781 8.28076 19.1562 6.92139 18.3594L6.64014 18.1719L3.35889 19.0625L4.24951 15.875L4.01514 15.5469C3.17139 14.1406 2.70264 12.5469 2.70264 10.9062C2.70264 6.17188 6.59326 2.28125 11.3745 2.28125C13.6714 2.28125 15.8276 3.17188 17.4683 4.8125C19.1089 6.45312 20.0933 8.60938 20.0933 10.9531C20.0933 15.6875 16.1089 19.5781 11.3276 19.5781ZM16.1089 13.1094C15.8276 12.9688 14.562 12.3594 14.3276 12.2656C14.0933 12.1719 13.9058 12.125 13.7183 12.4062C13.5776 12.6406 13.062 13.25 12.9214 13.4375C12.7339 13.5781 12.5933 13.625 12.3589 13.4844C10.812 12.7344 9.82764 12.125 8.79639 10.3906C8.51514 9.92188 9.07764 9.96875 9.54639 8.98438C9.64014 8.79688 9.59326 8.65625 9.54639 8.51562C9.49951 8.375 8.93701 7.10938 8.74951 6.59375C8.51514 6.07812 8.32764 6.125 8.14014 6.125C7.99951 6.125 7.81201 6.125 7.67139 6.125C7.48389 6.125 7.20264 6.17188 6.96826 6.45312C6.73389 6.73438 6.07764 7.34375 6.07764 8.60938C6.07764 9.92188 6.96826 11.1406 7.10889 11.3281C7.24951 11.4688 8.93701 14.0938 11.562 15.2188C13.2026 15.9688 13.8589 16.0156 14.7026 15.875C15.1714 15.8281 16.2026 15.2656 16.437 14.6562C16.6714 14.0469 16.6714 13.5312 16.5776 13.4375C16.5308 13.2969 16.3433 13.25 16.1089 13.1094Z" fill="#737373"/>
</svg>
