<svg width="22" height="22" viewBox="0 0 22 22" fill="none" xmlns="http://www.w3.org/2000/svg">
<path d="M11.3745 5.60938C8.37451 5.60938 5.98389 8.04688 5.98389 11C5.98389 14 8.37451 16.3906 11.3745 16.3906C14.3276 16.3906 16.7651 14 16.7651 11C16.7651 8.04688 14.3276 5.60938 11.3745 5.60938ZM11.3745 14.5156C9.45264 14.5156 7.85889 12.9688 7.85889 11C7.85889 9.07812 9.40576 7.53125 11.3745 7.53125C13.2964 7.53125 14.8433 9.07812 14.8433 11C14.8433 12.9688 13.2964 14.5156 11.3745 14.5156ZM18.2183 5.42188C18.2183 4.71875 17.6558 4.15625 16.9526 4.15625C16.2495 4.15625 15.687 4.71875 15.687 5.42188C15.687 6.125 16.2495 6.6875 16.9526 6.6875C17.6558 6.6875 18.2183 6.125 18.2183 5.42188ZM21.7808 6.6875C21.687 5 21.312 3.5 20.0933 2.28125C18.8745 1.0625 17.3745 0.6875 15.687 0.59375C13.9526 0.5 8.74951 0.5 7.01514 0.59375C5.32764 0.6875 3.87451 1.0625 2.60889 2.28125C1.39014 3.5 1.01514 5 0.921387 6.6875C0.827637 8.42188 0.827637 13.625 0.921387 15.3594C1.01514 17.0469 1.39014 18.5 2.60889 19.7656C3.87451 20.9844 5.32764 21.3594 7.01514 21.4531C8.74951 21.5469 13.9526 21.5469 15.687 21.4531C17.3745 21.3594 18.8745 20.9844 20.0933 19.7656C21.312 18.5 21.687 17.0469 21.7808 15.3594C21.8745 13.625 21.8745 8.42188 21.7808 6.6875ZM19.5308 17.1875C19.2026 18.125 18.4526 18.8281 17.562 19.2031C16.1558 19.7656 12.8745 19.625 11.3745 19.625C9.82764 19.625 6.54639 19.7656 5.18701 19.2031C4.24951 18.8281 3.54639 18.125 3.17139 17.1875C2.60889 15.8281 2.74951 12.5469 2.74951 11C2.74951 9.5 2.60889 6.21875 3.17139 4.8125C3.54639 3.92188 4.24951 3.21875 5.18701 2.84375C6.54639 2.28125 9.82764 2.42188 11.3745 2.42188C12.8745 2.42188 16.1558 2.28125 17.562 2.84375C18.4526 3.17188 19.1558 3.92188 19.5308 4.8125C20.0933 6.21875 19.9526 9.5 19.9526 11C19.9526 12.5469 20.0933 15.8281 19.5308 17.1875Z" fill="#737373"/>
</svg>
