<svg width="22" height="21" viewBox="0 0 22 21" fill="none" xmlns="http://www.w3.org/2000/svg">
<path d="M5.56201 21V6.98438H1.20264V21H5.56201ZM3.35889 5.10938C4.76514 5.10938 5.89014 3.9375 5.89014 2.53125C5.89014 1.17188 4.76514 0.046875 3.35889 0.046875C1.99951 0.046875 0.874512 1.17188 0.874512 2.53125C0.874512 3.9375 1.99951 5.10938 3.35889 5.10938ZM21.8276 21H21.8745V13.3125C21.8745 9.5625 21.0308 6.65625 16.6245 6.65625C14.5151 6.65625 13.1089 7.82812 12.4995 8.90625H12.4526V6.98438H8.28076V21H12.6401V14.0625C12.6401 12.2344 12.9683 10.5 15.2183 10.5C17.4683 10.5 17.5151 12.5625 17.5151 14.2031V21H21.8276Z" fill="#737373"/>
</svg>
