<svg width="205" height="214" viewBox="0 0 205 214" fill="none" xmlns="http://www.w3.org/2000/svg">
<path d="M117.352 211.368L151.314 191.807L151.347 232L234 184.378V89.2693L199.296 109.232V69.7284L164.886 49.8996L200.008 29.6241L117.348 -18L39.6317 26.7776V32.5822L69.7338 49.946L35.3998 69.7294V109.531L0 89.1113V184.272L82.5368 231.825L82.5646 191.329L117.352 211.368ZM146.621 94.4742L117.291 111.353L87.6441 94.2549L116.942 77.3743L146.621 94.4742ZM189.406 126.327V158.449L161.198 174.704L161.17 142.566L189.406 126.327ZM122.213 153.466L122.236 119.908L151.28 103.196V136.721L122.213 153.466ZM112.34 119.901L112.317 153.832L82.6068 136.719V102.747L112.34 119.901ZM72.7081 142.458L72.6853 174.235L45.2961 158.45V126.645L72.7081 142.458ZM82.5998 148.118L112.31 165.237L112.287 197.054L82.577 179.931L82.5998 148.118ZM122.181 197.183L122.206 164.87L151.281 148.118L151.309 180.398L122.181 197.183ZM224.111 106.355V178.676L161.229 214.91L161.203 186.107L199.299 164.157V120.637L224.111 106.355ZM161.165 131.183V97.512L189.407 81.2625V114.933L161.165 131.183ZM184.573 72.644L156.523 88.7849L126.998 71.7704L155.005 55.6043L184.573 72.644ZM117.289 65.9706L89.5128 49.9461L117.352 33.9035L145.113 49.9028L117.289 65.9706ZM54.3838 29.6829L117.355 -6.6023L180.237 29.635L155 44.202L117.352 22.5064L79.6315 44.2473L54.3838 29.6829ZM107.231 71.5732L77.7634 88.5528L50.1572 72.6291L79.6289 55.6496L107.231 71.5732ZM45.3027 81.2347L72.7171 97.0523V131.059L45.3027 115.242V81.2347ZM72.664 214.735L9.90093 178.573V106.226L35.4091 120.943V164.159L72.6841 185.645L72.664 214.735Z" fill="url(#paint0_linear_585_17630)"/>
<defs>
<linearGradient id="paint0_linear_585_17630" x1="54.5" y1="16.5" x2="190" y2="224.5" gradientUnits="userSpaceOnUse">
<stop stop-color="#00B4C8"/>
<stop offset="1" stop-color="#02474E"/>
</linearGradient>
</defs>
</svg>
