<svg width="109" height="144" viewBox="0 0 109 144" fill="none" xmlns="http://www.w3.org/2000/svg">
<path d="M87.2615 128.65L112.515 114.097L112.54 144L174 108.569V37.8084L148.195 52.6605V23.2699L122.608 8.51734L148.724 -6.56767L87.2585 -42L29.4697 -8.68549V-4.36681L51.8533 8.55179L26.323 23.2707V52.8831L0 37.6908V108.49L61.3735 143.87L61.3942 113.741L87.2615 128.65ZM109.026 41.6808L87.2162 54.2385L65.1713 41.5177L86.9565 28.9585L109.026 41.6808ZM140.841 65.379V89.2783L119.865 101.372L119.844 77.4614L140.841 65.379ZM90.8765 85.5704L90.8935 60.6036L112.49 48.1699V73.1123L90.8765 85.5704ZM83.5347 60.5983L83.5177 85.8432L61.4256 73.1108V47.836L83.5347 60.5983ZM54.065 77.3806L54.048 101.023L33.6817 89.2788V65.6162L54.065 77.3806ZM61.4204 81.5921L83.5125 94.3284L83.4956 118L61.4034 105.261L61.4204 81.5921ZM90.8525 118.096L90.8713 94.0556L112.491 81.5921L112.511 105.608L90.8525 118.096ZM166.647 50.5201V104.327L119.888 131.285L119.869 109.856L148.197 93.5245V61.1457L166.647 50.5201ZM119.841 68.992V43.941L140.841 31.8513V56.9024L119.841 68.992ZM137.246 25.4392L116.389 37.448L94.4347 24.7892L115.26 12.7616L137.246 25.4392ZM87.2148 20.4742L66.5608 8.55193L87.262 -3.38377L107.905 8.51969L87.2148 20.4742ZM40.4393 -6.52394L87.2639 -33.5201L134.023 -6.55954L115.256 4.27829L87.262 -11.8632L59.2132 4.31196L40.4393 -6.52394ZM79.7356 24.6424L57.8241 37.2753L37.2964 25.4281L59.2112 12.7953L79.7356 24.6424ZM33.6866 31.8306L54.0717 43.5989V68.9001L33.6866 57.1319V31.8306ZM54.0322 131.154L7.36223 104.25V50.4243L26.3298 61.3733V93.5264L54.0471 109.512L54.0322 131.154Z" fill="url(#paint0_linear_585_19243)"/>
<defs>
<linearGradient id="paint0_linear_585_19243" x1="40.5256" y1="-16.332" x2="141.36" y2="138.369" gradientUnits="userSpaceOnUse">
<stop stop-color="#00B4C8"/>
<stop offset="1" stop-color="#02474E"/>
</linearGradient>
</defs>
</svg>
